<svg width="24" height="25" viewBox="0 0 24 25" fill="none" xmlns="http://www.w3.org/2000/svg">
<path d="M7.99805 16.6729H11.998M7.99805 11.6729H15.998" stroke="#386B45" stroke-width="1.5" stroke-linecap="round"/>
<path d="M7.5 4.17285C5.9442 4.21952 5.01661 4.39269 4.37477 5.03512C3.49609 5.91462 3.49609 7.33015 3.49609 10.1612V16.6673C3.49609 19.4984 3.49609 20.9139 4.37477 21.7934C5.25345 22.6729 6.66767 22.6729 9.49609 22.6729H14.4961C17.3245 22.6729 18.7387 22.6729 19.6174 21.7934C20.4961 20.9139 20.4961 19.4984 20.4961 16.6673V10.1612C20.4961 7.33015 20.4961 5.91462 19.6174 5.03513C18.9756 4.39269 18.048 4.21952 16.4922 4.17285" stroke="#386B45" stroke-width="1.5"/>
<path d="M7.49609 4.42285C7.49609 3.45635 8.2796 2.67285 9.24609 2.67285H14.7461C15.7126 2.67285 16.4961 3.45635 16.4961 4.42285C16.4961 5.38935 15.7126 6.17285 14.7461 6.17285H9.24609C8.2796 6.17285 7.49609 5.38935 7.49609 4.42285Z" stroke="#386B45" stroke-width="1.5" stroke-linejoin="round"/>
</svg>
