<svg width="25" height="24" viewBox="0 0 25 24" fill="none" xmlns="http://www.w3.org/2000/svg">
<path d="M4.38281 11.9999V14.5441C4.38281 17.7891 4.38281 19.4116 5.26888 20.5106C5.44789 20.7326 5.65012 20.9349 5.87214 21.1139C6.97112 21.9999 8.59363 21.9999 11.8386 21.9999C12.5442 21.9999 12.8969 21.9999 13.22 21.8859C13.2872 21.8622 13.353 21.8349 13.4173 21.8042C13.7264 21.6564 13.9758 21.4069 14.4747 20.908L19.2112 16.1715C19.7893 15.5934 20.0783 15.3044 20.2306 14.9369C20.3828 14.5693 20.3828 14.1606 20.3828 13.3431V9.99992C20.3828 6.22871 20.3828 4.3431 19.2112 3.17152C18.1521 2.11236 16.5093 2.01074 13.4173 2.00098M13.3828 21.4999V20.9999C13.3828 18.1715 13.3828 16.7573 14.2615 15.8786C15.1402 14.9999 16.5544 14.9999 19.3828 14.9999H19.8828" stroke="#386B45" stroke-width="1.5" stroke-linecap="round" stroke-linejoin="round"/>
<path d="M4.38281 8.22979V5.46056C4.38281 3.5488 5.94981 1.99902 7.88281 1.99902C9.81581 1.99902 11.3828 3.5488 11.3828 5.46056V9.26825C11.3828 10.2241 10.5993 10.999 9.63281 10.999C8.66631 10.999 7.88281 10.2241 7.88281 9.26825V5.46056" stroke="#386B45" stroke-width="1.5" stroke-linecap="round" stroke-linejoin="round"/>
</svg>
