<svg width="346" height="532" viewBox="0 0 346 532" fill="none" xmlns="http://www.w3.org/2000/svg">
<path d="M46.7695 414.89C46.5495 417.21 46.3895 419.18 46.2595 420.9H46.0895C44.8495 423.21 40.2295 424.71 36.1695 425.26C32.1095 425.8 28.2695 424.57 23.5395 424.16C18.7995 423.76 15.4195 421.44 12.9395 420.34H12.3895C12.7895 417.26 13.1595 414.41 13.4495 412.1L13.9495 412.16C16.8795 413.52 25.1995 417.31 30.0795 417.62C36.6195 418.03 42.9395 418.16 46.4295 413.25L46.9295 413.31C46.8695 413.83 46.8195 414.35 46.7695 414.89Z" fill="#D1CFE0"/>
<path d="M98.9995 214.24L116.73 233.34L116.7 233.88C112.54 233.63 107.85 233.04 102.22 233.89C97.0795 234.66 95.9895 231.08 94.6495 227.41C93.9195 225.4 92.0095 222.85 89.3595 222.3C86.7195 221.76 85.5295 222.67 84.6195 224.4L84.3695 224.67C83.1795 223.56 82.0095 222.41 80.8495 221.23L81.0595 221.03C82.2895 215.46 80.2495 203.53 78.7495 195.98L78.9595 195.94C78.9595 195.94 85.1095 190.01 87.6495 187.4L88.6295 187.64C92.8495 192.37 95.6195 204.17 98.9995 214.24Z" fill="#9D7557"/>
<path d="M49.2496 397.43L49.6496 397.52C48.9396 400.8 48.3196 403.81 47.7996 407L47.6696 406.98C47.6696 406.98 44.9696 408.48 42.7096 409.16C40.4496 409.84 38.4696 409.07 34.5896 408.61C31.7696 408.28 28.4996 408.34 24.2096 408.07C19.9696 407.79 17.1596 405.12 14.7996 403.47C15.2796 400.9 15.8396 398.18 16.4196 395.54L17.6696 395.79C20.2696 397.29 24.0996 400.97 29.1796 400.97C34.2596 400.97 36.5096 402.88 39.7796 402.34C43.0496 401.79 47.3296 400.02 49.2496 397.43Z" fill="#D1CFE0"/>
<path d="M59.0796 200.5C66.3596 204.39 73.2096 213.39 80.8496 221.23C82.0096 222.41 83.1796 223.56 84.3696 224.67C85.4696 225.69 86.5796 226.67 87.7196 227.59C90.9996 229.51 92.7396 238.54 90.0896 246.2C89.9096 246.72 89.7096 247.19 89.5096 247.6L89.4496 247.57C89.4496 247.57 85.6796 246.23 81.4996 243.98C80.5696 243.49 79.6296 242.95 78.6996 242.36C78.1396 242.02 77.5896 241.65 77.0496 241.28C75.6996 240.33 74.2396 239.43 72.6996 238.57C67.3896 235.59 61.0896 233.07 54.5196 230.88C53.7496 230.62 52.8896 230.25 51.9596 229.79C50.5896 229.11 49.0696 228.24 47.5396 227.28C42.8596 224.36 38.0496 220.68 36.6396 219.38C36.6396 219.38 33.8096 218.47 30.0696 216.65C26.3296 214.82 27.7896 211.45 28.0596 209.71C28.3296 207.98 28.8796 203.51 28.6096 202.6L28.7896 200.8C35.8896 201.5 52.4096 201.44 56.4296 200.41C57.0196 200.26 57.9396 200.24 58.8496 199.92L59.0796 200.5Z" fill="#9D7557"/>
<path d="M80.8495 221.23C73.2095 213.39 66.3595 204.39 59.0795 200.5L58.8495 199.92C59.9895 199.52 61.0895 198.64 61.4495 196.4C61.5095 196.03 61.5395 194.3 61.5595 191.77C63.2795 191.9 65.5295 190 66.1895 186.82C67.4695 180.71 67.5595 160.55 66.9195 155.35C66.2795 150.15 64.8195 145.77 61.6295 141.84C58.4395 137.92 49.6795 130.9 38.4595 132.72C27.2395 134.55 23.8695 154.7 27.0595 156.26L27.2195 156.28C25.9195 167.22 23.4095 188.76 23.4095 191.2C23.4095 191.2 23.5295 195.04 23.2295 196.76C22.6795 199.86 23.8495 199.79 26.2395 200.41C26.8095 200.56 27.6795 200.69 28.7895 200.8L28.6095 202.6C28.8795 203.51 28.3295 207.98 28.0595 209.71C27.7895 211.45 26.3295 214.82 30.0695 216.65C33.8095 218.47 36.6395 219.38 36.6395 219.38C38.0495 220.68 42.8595 224.36 47.5395 227.28C46.2295 236.05 43.4095 237.89 37.3795 238.94C35.1595 239.32 20.5995 237.91 16.5995 237.51C15.9495 237.45 15.5795 237.41 15.5795 237.41C15.5795 237.41 10.4195 236.94 10.2995 235.89C9.94951 232.74 11.5895 228.5 12.9995 222.53C14.4095 216.55 21.8295 146.13 22.9595 140.46C27.1395 128.62 38.3595 125.07 44.5595 126.6C46.5695 127.44 48.7495 128.2 50.9795 128.74C59.6195 130.81 66.3695 143.3 66.3695 143.3C67.2695 144.47 69.4895 148.44 73.1895 149.02C74.6995 156.9 76.4595 167.2 76.7495 177.36C77.0895 189.01 76.6195 185.85 78.0595 192.64C78.2595 193.6 78.4995 194.73 78.7495 195.98C80.2495 203.53 82.2895 215.46 81.0595 221.03L80.8495 221.23Z" fill="#F15A29"/>
<path d="M72.6996 238.57L72.6696 238.63C72.6696 238.63 57.4296 240.82 53.5996 237.81C51.4896 236.15 52.0496 231.45 51.9596 229.79C52.8896 230.25 53.7496 230.62 54.5196 230.88C61.0896 233.07 67.3896 235.59 72.6996 238.57Z" fill="#F15A29"/>
<path d="M66.3695 143.3C66.3695 143.3 59.6195 130.81 50.9795 128.74C59.1895 130.73 67.9795 138.59 70.6795 141.63C71.4195 142.47 71.7695 142.62 71.8795 142.4C72.2495 144.32 72.7095 146.55 73.1895 149.02C69.4895 148.44 67.2695 144.47 66.3695 143.3Z" fill="#88958C"/>
<path d="M88.1796 401.15C91.5396 400.28 95.0496 397.86 95.3396 395.43H95.5196C95.5096 395.83 95.4996 396.22 95.4896 396.61C95.2596 405.61 95.7096 434.81 95.7096 439.44C95.7096 443.08 96.8196 447.39 96.0996 449.6C95.9096 450.22 95.5796 450.67 95.0396 450.9C94.4996 451.14 89.5096 449.27 85.1096 449.54C80.7096 449.81 74.0596 451.86 68.4196 452C65.7996 452.06 63.4996 451.98 61.7296 451.69C59.6896 451.36 58.3496 450.76 58.0496 449.81C57.4796 448.04 59.5096 442.99 60.0796 437.53C60.6396 432.08 62.5596 415.3 62.5596 409.43C62.5596 407.92 62.7496 405.1 63.0496 401.57H63.1996C66.1996 404.62 74.4396 402.79 76.1596 402.71C77.8796 402.62 86.9796 401.46 88.1796 401.15Z" fill="#5D5E84"/>
<path d="M134.88 246.86C117.73 252.05 105.8 255.69 104.42 256.17C102.05 257 100.85 258.17 100.26 259.29L99.2096 258.61C97.8496 258.43 87.9896 257.15 84.9796 256.06C81.9696 254.96 80.0696 252.26 79.1496 249.85C78.6896 248.67 77.7796 245.02 78.5096 242.65L78.6996 242.36C79.6296 242.95 80.5696 243.49 81.4996 243.98L81.4296 244.11C83.1696 249.87 87.1396 252.29 89.5096 247.6C89.7096 247.19 89.9096 246.72 90.0896 246.2C92.7396 238.54 90.9996 229.51 87.7196 227.59C86.5796 226.67 85.4696 225.69 84.3696 224.67L84.6196 224.4C85.5296 222.67 86.7196 221.76 89.3596 222.3C92.0096 222.85 93.9196 225.4 94.6496 227.41C95.9896 231.08 97.0796 234.66 102.22 233.89C107.85 233.04 112.54 233.63 116.7 233.88C117.46 233.93 118.2 233.97 118.92 233.98C123.94 234.07 124.21 234.16 126.76 235.8C129.32 237.45 130.32 237.99 131.87 240.91C133.42 243.83 134.79 246.57 134.79 246.57L134.88 246.86Z" fill="#C2B59B"/>
<path d="M46.2595 420.9C45.9195 425.25 45.7095 428.11 44.7395 431.53C43.3895 436.31 39.3095 468.75 39.0995 473.28C38.8895 477.78 38.4495 485.35 37.8695 485.35C37.8695 485.35 37.0295 486.07 35.3995 486.16C34.4395 486.21 33.1795 486.04 31.6595 485.35C27.5995 483.51 20.3795 482.96 17.2195 482.56C14.0695 482.15 5.2695 479.28 5.2695 479.28C2.6795 478.33 0.189503 476.55 1.8895 473.01C2.9195 470.83 8.3095 448.86 9.5495 440.81C10.3595 435.53 11.4695 427.37 12.3895 420.34H12.9395C15.4195 421.44 18.7995 423.76 23.5395 424.16C28.2695 424.57 32.1095 425.8 36.1695 425.26C40.2295 424.71 44.8495 423.21 46.0895 420.89H46.2595V420.9Z" fill="#5D5E84"/>
<path d="M71.8796 142.4C72.0596 142.05 71.6796 140.82 71.3396 139.86L71.3896 139.84C79.0496 144.03 80.6996 165.93 87.3596 180.71C88.8496 184.03 90.3696 184.26 88.6296 186.36C88.4696 186.55 88.1196 186.92 87.6496 187.4C85.1096 190.01 78.9596 195.94 78.9596 195.94L78.7496 195.98C78.4996 194.73 78.2596 193.6 78.0596 192.64C76.6196 185.85 77.0896 189.01 76.7496 177.36C76.4596 167.2 74.6996 156.9 73.1896 149.02C72.7096 146.55 72.2496 144.32 71.8796 142.4Z" fill="#88958C"/>
<path d="M66.3196 360.03H65.7196C64.3596 357.73 62.1096 351.04 60.7496 347.49C59.4096 343.97 57.1696 340.98 56.3796 338C54.5596 346.75 53.0295 362.01 52.8596 368.5C52.6296 376.69 52.2996 385.15 50.5996 393.06C50.2696 394.62 49.9496 396.1 49.6496 397.52L49.2496 397.43C47.3296 400.02 43.0496 401.79 39.7796 402.34C36.5096 402.88 34.2496 400.97 29.1796 400.97C24.1096 400.97 20.2696 397.29 17.6696 395.79L16.4196 395.54C17.3396 391.3 18.2896 387.25 19.0296 384.33C20.7196 377.64 21.1696 371.64 23.9896 364.68C22.6396 361.14 21.8496 349.81 22.1796 343.67C22.5196 337.53 21.0596 331.4 19.6996 321.85C18.3496 312.3 17.8996 294.42 17.8996 286.92L18.3796 285.85C20.9296 287.25 24.2296 288.24 25.3196 288.13C26.9596 287.96 31.2896 281.95 34.1896 272.02C35.1696 268.7 35.1796 257.68 35.1796 257.25C35.2396 257.77 37.1396 274.6 36.8196 281.55C36.4896 288.62 35.5796 294.35 36.2896 297.87C36.4896 298.89 42.4096 296.13 50.6196 295.68C61.1796 295.11 74.6096 290.92 79.5396 286.81C80.6196 285.91 81.5396 285.06 82.2996 284.23L82.4096 284.33C82.4096 284.33 82.9696 292.92 83.5295 300.56C83.9995 306.94 91.0896 340.67 93.4596 346.4C95.8296 352.13 95.9396 363.46 95.7096 369.32C94.0196 373.96 88.9496 376.55 80.0396 378.05C74.8996 378.92 68.6496 378.46 65.7196 377.51L65.3496 377.47C65.7096 373.71 66.0096 370.38 66.1696 367.96C66.3596 365.19 66.3896 362.53 66.3196 360.03Z" fill="#5D5E84"/>
<path d="M35.1796 257.25C35.1796 257.68 35.1796 268.7 34.1896 272.02C31.2896 281.95 26.9596 287.96 25.3196 288.13C24.2296 288.24 20.9296 287.25 18.3796 285.85C17.0996 285.15 16.0096 284.35 15.4596 283.53C13.8196 281.06 16.4496 275.8 17.1096 269.07C17.7496 262.47 16.6496 238.48 16.5996 237.51C20.5996 237.91 35.1596 239.32 37.3796 238.94C43.4096 237.89 46.2296 236.05 47.5396 227.28C49.0696 228.24 50.5896 229.11 51.9596 229.79C52.0496 231.45 51.4896 236.15 53.5996 237.81C57.4296 240.82 72.6696 238.63 72.6696 238.63L72.6996 238.57C74.2396 239.43 75.6996 240.33 77.0496 241.28C77.5896 241.65 78.1396 242.02 78.6996 242.36L78.5096 242.65C77.7796 245.02 78.6896 248.67 79.1496 249.85C80.0696 252.26 81.9696 254.96 84.9796 256.06C84.9796 256.06 85.6196 271.7 85.7896 275.64C85.9096 278.72 85.0396 281.29 82.2996 284.23C81.5396 285.06 80.6196 285.91 79.5396 286.81C74.6096 290.92 61.1796 295.11 50.6196 295.68C42.4096 296.13 36.4896 298.89 36.2896 297.87C35.5796 294.35 36.4896 288.62 36.8196 281.55C37.1396 274.6 35.2396 257.77 35.1796 257.25Z" fill="#88958C"/>
<path d="M51.8395 124.49C60.0095 127.45 67.1595 132.84 70.8795 138.66C70.8795 138.66 71.0995 139.19 71.3395 139.86C71.6795 140.82 72.0595 142.05 71.8795 142.4C71.7695 142.62 71.4195 142.47 70.6795 141.63C67.9795 138.59 59.1895 130.73 50.9795 128.74C48.7495 128.2 46.5695 127.44 44.5595 126.6C38.1895 123.96 33.3995 120.53 33.3995 120.53L36.9295 115.23C37.5695 116.84 42.2795 121.02 51.8395 124.49Z" fill="#88958C"/>
<path d="M40.9396 106.18C40.7196 107.76 41.3396 109.43 42.5196 110.48C43.7096 111.54 45.4396 111.96 46.9696 111.56C46.6896 113.14 47.4896 114.81 48.7696 115.76C50.0596 116.71 51.7696 116.99 53.3496 116.74C53.5296 116.71 53.7196 116.68 53.8896 116.74C54.2896 116.89 54.3096 117.43 54.3496 117.86C54.5196 119.52 55.0396 120.46 56.4096 121.41C58.4896 122.83 61.1296 122.49 62.6396 120.84C62.8396 122.06 63.9196 123.09 65.1596 123.21C65.2496 123.22 65.3396 123.22 65.4296 123.22L67.0396 123.46C67.1596 128.76 71.5396 139.69 70.8796 138.66C67.1596 132.84 60.0096 127.45 51.8396 124.49C42.2796 121.02 37.5696 116.84 36.9296 115.23L37.3796 114.55C37.3796 114.55 39.2996 107.99 39.9596 105.99L40.0296 105.82C40.3296 105.96 40.6296 106.08 40.9396 106.18Z" fill="#9D7557"/>
<path d="M95.7095 369.32C95.6295 371.37 95.6095 374.21 95.6095 377.43H95.1195C94.2595 380.8 91.5395 382.27 88.3195 382.97C85.5895 383.55 82.3695 384.9 78.8795 385.3C75.4795 385.7 67.9695 385.1 64.6395 384.81C64.8895 382.28 65.1295 379.79 65.3495 377.47L65.7195 377.51C68.6495 378.46 74.8995 378.92 80.0395 378.05C88.9495 376.55 94.0195 373.96 95.7095 369.32Z" fill="#D1CFE0"/>
<path d="M95.6095 377.43C95.5995 380.08 95.5995 382.99 95.5895 385.91C95.0095 389.2 89.9195 391.82 86.8895 393.01C83.8195 394.22 76.4395 394.83 73.5795 395.09C70.7195 395.35 65.7095 395 63.8495 394.57H63.6895C63.9895 391.41 64.3195 388.08 64.6395 384.81C67.9695 385.1 75.4795 385.7 78.8795 385.3C82.3695 384.9 85.5895 383.55 88.3195 382.97C91.5395 382.27 94.2595 380.8 95.1195 377.43H95.6095Z" fill="#5D5E84"/>
<path d="M96.1995 449.63C96.9795 452.57 99.9895 455.26 102.35 456.38C104.71 457.51 122.46 458.89 124.46 459.07C127.47 459.33 128.69 459.15 129.98 460.36C129.98 460.36 132.7 463.5 131.77 465.75C130.84 468 128.259 471.38 124.609 472.85C120.959 474.32 108.15 478.74 101.71 475.79C97.6695 473.94 90.7595 471.12 88.5395 471.46C86.3295 471.81 86.1795 473.97 84.6795 475.1C83.1795 476.23 79.5995 477.87 74.3695 477.87C69.9695 477.87 61.2795 475.88 59.7795 475.1C58.2695 474.32 58.4895 474.93 58.6295 471.12C58.7695 467.31 61.1995 455.52 61.6995 451.88L61.7295 451.69C63.4995 451.98 65.7995 452.06 68.4195 452C74.0595 451.86 80.7095 449.81 85.1095 449.54C89.5095 449.27 94.4995 451.14 95.0395 450.9C95.5795 450.67 95.9095 450.22 96.0995 449.6L96.1995 449.63Z" fill="#414042"/>
<path d="M47.7995 407C47.4695 409 47.1795 411.07 46.9295 413.31L46.4295 413.25C42.9395 418.16 36.6195 418.03 30.0795 417.62C25.1995 417.31 16.8795 413.52 13.9495 412.16L13.4495 412.1C13.4995 411.64 13.5595 411.21 13.6095 410.8C13.8695 408.71 14.2895 406.18 14.7995 403.47C17.1595 405.12 19.9695 407.79 24.2095 408.07C28.4995 408.34 31.7695 408.28 34.5895 408.61C38.4695 409.07 40.4495 409.84 42.7095 409.16C44.9695 408.48 47.6695 406.98 47.6695 406.98L47.7995 407Z" fill="#5D5E84"/>
<path d="M44.5595 126.6C38.3595 125.07 27.1395 128.62 22.9595 140.46C24.7195 131.67 29.1795 124.4 33.3995 120.53C33.3995 120.53 38.1895 123.96 44.5595 126.6Z" fill="#88958C"/>
<path d="M95.5896 385.91C95.5896 389.17 95.5696 392.45 95.5196 395.43H95.3396C95.0496 397.86 91.5396 400.28 88.1796 401.15C86.9796 401.46 77.8796 402.62 76.1596 402.71C74.4396 402.79 66.1996 404.62 63.1996 401.58H63.0496C63.2296 399.45 63.4496 397.06 63.6896 394.56H63.8496C65.7096 395 70.7196 395.35 73.5796 395.09C76.4396 394.83 83.8196 394.22 86.8896 393.01C89.9196 391.82 95.0096 389.2 95.5896 385.91Z" fill="#D1CFE0"/>
<path d="M61.5595 191.77C61.5395 194.3 61.5095 196.03 61.4495 196.4C61.0895 198.64 59.9895 199.52 58.8495 199.92C57.9395 200.24 57.0195 200.26 56.4295 200.41C52.4095 201.44 35.8895 201.5 28.7895 200.8C27.6795 200.69 26.8095 200.56 26.2395 200.41C23.8495 199.79 22.6795 199.86 23.2295 196.76C23.5295 195.04 23.4095 191.2 23.4095 191.2C23.4095 188.76 25.9195 167.22 27.2195 156.28L27.0595 156.26C23.8695 154.7 27.2395 134.55 38.4595 132.72C49.6795 130.9 58.4395 137.92 61.6295 141.84C64.8195 145.77 66.2795 150.15 66.9195 155.35C67.5595 160.55 67.4695 180.71 66.1895 186.82C65.5295 190 63.2795 191.9 61.5595 191.77Z" fill="#88958C"/>
<path d="M89.4496 247.57L89.5096 247.6C87.1396 252.29 83.1696 249.87 81.4296 244.11L81.4996 243.98C85.6796 246.23 89.4496 247.57 89.4496 247.57Z" fill="#726658"/>
<path d="M61.9896 509.02C62.1996 512.74 60.6296 512.71 58.8396 513.14C57.0496 513.57 49.0896 513.46 43.5196 512.1C36.7096 510.44 32.4496 509.43 30.7096 507.69C28.5796 505.56 21.7696 497.88 20.7696 498.69C19.0196 499.56 20.5796 500.69 18.2696 502C15.5096 503.57 4.95957 500.18 2.66957 498.88C0.379567 497.58 1.01956 493.49 1.29956 490.8C1.51956 488.75 2.98957 481.35 5.26957 479.28C5.26957 479.28 14.0696 482.15 17.2196 482.56C20.3796 482.96 27.5996 483.51 31.6596 485.35C33.1796 486.04 34.4396 486.21 35.3996 486.16L38.1596 486.86C38.8696 489.02 42.2396 491.27 45.0996 493.09C47.9596 494.91 54.7596 499.5 58.5496 502.09C59.8096 502.96 61.7696 505.3 61.9896 509.02Z" fill="#414042"/>
<path d="M39.9595 105.99C39.2995 107.99 37.3795 114.55 37.3795 114.55C36.8995 114.5 36.7395 114.76 36.9295 115.23C37.5695 116.84 42.2795 121.02 51.8395 124.49C60.0095 127.45 67.1595 132.84 70.8795 138.66C71.5395 139.69 67.1595 128.76 67.0395 123.46" stroke="#1E150F" stroke-width="2" stroke-miterlimit="10"/>
<path d="M37.3795 114.55L36.9295 115.23L33.3995 120.53C33.3995 120.53 38.1895 123.96 44.5595 126.6C46.5695 127.44 48.7495 128.2 50.9795 128.74C59.1895 130.73 67.9795 138.59 70.6795 141.63C71.4195 142.47 71.7695 142.62 71.8795 142.4C72.0595 142.05 71.6795 140.82 71.3395 139.86C71.0995 139.19 70.8795 138.66 70.8795 138.66" stroke="#1E150F" stroke-width="2" stroke-miterlimit="10"/>
<path d="M33.3995 120.53C29.1795 124.4 24.7195 131.67 22.9595 140.46C21.8295 146.13 14.4095 216.55 12.9995 222.53C11.5895 228.5 9.94951 232.74 10.2995 235.89C10.4195 236.94 15.5795 237.41 15.5795 237.41C15.5795 237.41 15.9495 237.45 16.5995 237.51C20.5995 237.91 35.1595 239.32 37.3795 238.94C43.4095 237.89 46.2295 236.05 47.5395 227.28C47.5395 227.18 47.5695 227.08 47.5795 226.98" stroke="#1E150F" stroke-width="2" stroke-miterlimit="10"/>
<path d="M22.9596 140.46C27.1396 128.62 38.3596 125.07 44.5596 126.6C45.2996 126.78 45.9696 127.04 46.5396 127.36" stroke="#1E150F" stroke-width="2" stroke-miterlimit="10"/>
<path d="M71.7896 141.96C71.8196 142.1 71.8496 142.25 71.8796 142.4C72.2496 144.32 72.7096 146.55 73.1896 149.02C74.6996 156.9 76.4596 167.2 76.7496 177.36C77.0896 189.01 76.6196 185.85 78.0596 192.64C78.2596 193.6 78.4996 194.73 78.7496 195.98C80.2496 203.53 82.2895 215.46 81.0595 221.03" stroke="#1E150F" stroke-width="2" stroke-miterlimit="10"/>
<path d="M50.9796 128.74C59.6196 130.81 66.3696 143.3 66.3696 143.3C67.2696 144.47 69.4896 148.44 73.1896 149.02L73.3996 149.05" stroke="#1E150F" stroke-width="2" stroke-miterlimit="10"/>
<path d="M78.9596 195.94C78.9596 195.94 85.1097 190.01 87.6497 187.4C88.1197 186.92 88.4696 186.55 88.6296 186.36C90.3696 184.26 88.8496 184.03 87.3596 180.71C80.6996 165.93 79.0496 144.03 71.3896 139.84" stroke="#1E150F" stroke-width="2" stroke-miterlimit="10"/>
<path d="M27.0596 156.26C23.8696 154.7 27.2396 134.55 38.4596 132.72C49.6796 130.9 58.4396 137.92 61.6296 141.84C64.8196 145.77 66.2796 150.15 66.9196 155.35C67.5596 160.55 67.4696 180.71 66.1896 186.82C65.5296 190 63.2796 191.9 61.5596 191.77C61.3596 191.76 61.1696 191.72 60.9896 191.65" stroke="#1E150F" stroke-width="2" stroke-miterlimit="10"/>
<path d="M27.9695 149.96C27.9695 149.96 27.6695 152.48 27.2195 156.28C25.9195 167.22 23.4095 188.76 23.4095 191.2C23.4095 191.2 23.5295 195.04 23.2295 196.76C22.6795 199.86 23.8495 199.79 26.2395 200.41C26.8095 200.56 27.6795 200.69 28.7895 200.8C35.8895 201.5 52.4095 201.44 56.4295 200.41C57.0195 200.26 57.9395 200.24 58.8495 199.92C59.9895 199.52 61.0895 198.64 61.4495 196.4C61.5095 196.03 61.5395 194.3 61.5595 191.77C61.6495 182.13 61.5595 160.78 61.9995 157.17" stroke="#1E150F" stroke-width="2" stroke-miterlimit="10" stroke-linecap="round"/>
<path d="M28.6096 202.6C28.8796 203.51 28.3296 207.98 28.0596 209.71C27.7896 211.45 26.3296 214.82 30.0696 216.65C33.8096 218.47 36.6396 219.38 36.6396 219.38C38.0496 220.68 42.8596 224.36 47.5396 227.28C49.0696 228.24 50.5896 229.11 51.9596 229.79C52.8896 230.25 53.7496 230.62 54.5196 230.88C61.0896 233.07 67.3896 235.59 72.6996 238.57C74.2396 239.43 75.6996 240.33 77.0496 241.28C77.5896 241.65 78.1396 242.02 78.6996 242.36C79.6296 242.95 80.5696 243.49 81.4996 243.98C85.6796 246.23 89.4496 247.57 89.4496 247.57" stroke="#1E150F" stroke-width="2" stroke-miterlimit="10" stroke-linecap="round"/>
<path d="M59.0796 200.5C66.3596 204.39 73.2096 213.39 80.8496 221.23C82.0096 222.41 83.1796 223.56 84.3696 224.67C85.4696 225.69 86.5796 226.67 87.7196 227.59" stroke="#1E150F" stroke-width="2" stroke-miterlimit="10" stroke-linecap="round"/>
<path d="M51.9596 229.78C52.0496 231.45 51.4896 236.15 53.5996 237.81C57.4296 240.82 72.6696 238.63 72.6696 238.63" stroke="#1E150F" stroke-width="2" stroke-miterlimit="10"/>
<path d="M81.4296 244.11C83.1696 249.87 87.1396 252.29 89.5096 247.6C89.7096 247.19 89.9096 246.72 90.0896 246.2C92.7396 238.54 90.9996 229.51 87.7196 227.59" stroke="#1E150F" stroke-width="2" stroke-miterlimit="10"/>
<path d="M84.6196 224.4C85.5296 222.67 86.7196 221.76 89.3596 222.3C92.0096 222.85 93.9196 225.4 94.6496 227.41C95.9896 231.08 97.0796 234.66 102.22 233.89C107.85 233.04 112.54 233.63 116.7 233.88C117.46 233.93 118.2 233.97 118.92 233.98C123.94 234.07 124.21 234.16 126.76 235.8C129.32 237.45 130.32 237.99 131.87 240.91C133.42 243.83 134.79 246.57 134.79 246.57" stroke="#1E150F" stroke-width="2" stroke-miterlimit="10"/>
<path d="M78.5096 242.65C77.7796 245.02 78.6896 248.67 79.1496 249.85C80.0696 252.26 81.9696 254.96 84.9796 256.06C87.9896 257.15 97.8496 258.43 99.2096 258.61" stroke="#1E150F" stroke-width="2" stroke-miterlimit="10"/>
<path d="M88.6296 187.64C92.8496 192.37 95.6196 204.17 98.9996 214.24C99.9196 217 100.89 219.63 101.95 221.94" stroke="#1E150F" stroke-width="2" stroke-miterlimit="10" stroke-linecap="round"/>
<path d="M98.9396 214.18L98.9996 214.24L116.73 233.34" stroke="#1E150F" stroke-width="2" stroke-miterlimit="10" stroke-linecap="round"/>
<path d="M119.28 241.28C122.11 241.37 128.86 241.37 130.96 247.66" stroke="#1E150F" stroke-width="2" stroke-miterlimit="10" stroke-linecap="round"/>
<path d="M120.01 246.39C122.11 246.84 124.94 247.57 126.03 249.31" stroke="#1E150F" stroke-width="2" stroke-miterlimit="10" stroke-linecap="round"/>
<path d="M35.1796 257.24C35.2396 257.77 37.1396 274.6 36.8196 281.55C36.4896 288.62 35.5796 294.35 36.2896 297.87C36.4896 298.89 42.4096 296.13 50.6196 295.68C61.1796 295.11 74.6096 290.92 79.5396 286.81C80.6196 285.91 81.5396 285.06 82.2996 284.23C85.0396 281.29 85.9096 278.72 85.7896 275.64C85.6196 271.7 84.9796 256.06 84.9796 256.06" stroke="#1E150F" stroke-width="2" stroke-miterlimit="10" stroke-linecap="round"/>
<path d="M16.5996 237.48V237.51C16.6496 238.48 17.7496 262.47 17.1096 269.07C16.4496 275.8 13.8196 281.06 15.4596 283.53C16.0096 284.35 17.0996 285.15 18.3796 285.85C20.9296 287.25 24.2296 288.24 25.3196 288.13C26.9596 287.96 31.2896 281.95 34.1896 272.02C35.1696 268.7 35.1796 257.68 35.1796 257.25" stroke="#1E150F" stroke-width="2" stroke-miterlimit="10" stroke-linecap="round"/>
<path d="M17.8995 286.92C17.8995 294.42 18.3495 312.3 19.6995 321.85C21.0595 331.4 22.5195 337.53 22.1795 343.67C21.8495 349.81 22.6395 361.14 23.9895 364.68C25.3395 368.23 26.0195 373.96 26.0195 373.96" stroke="#1E150F" stroke-width="2" stroke-miterlimit="10" stroke-linecap="round"/>
<path d="M23.9895 364.68C21.1695 371.64 20.7195 377.64 19.0295 384.33C18.2895 387.25 17.3395 391.3 16.4195 395.54C15.8395 398.18 15.2795 400.9 14.7995 403.47C14.2895 406.18 13.8695 408.71 13.6095 410.8C13.5595 411.21 13.4995 411.64 13.4495 412.1C13.1595 414.41 12.7895 417.26 12.3895 420.34C11.4695 427.37 10.3595 435.53 9.5495 440.81C8.3095 448.86 2.9195 470.83 1.8895 473.01C0.189503 476.55 2.6795 478.33 5.2695 479.28C5.2695 479.28 14.0695 482.15 17.2195 482.56C20.3795 482.96 27.5995 483.51 31.6595 485.35C33.1795 486.04 34.4395 486.21 35.3995 486.16C37.0295 486.07 37.8695 485.35 37.8695 485.35C38.4495 485.35 38.8895 477.78 39.0995 473.28C39.3095 468.75 43.3895 436.31 44.7395 431.53C45.7095 428.11 45.9195 425.25 46.2595 420.9C46.3895 419.18 46.5495 417.21 46.7695 414.89C46.8195 414.35 46.8695 413.83 46.9295 413.31C47.1795 411.07 47.4695 409 47.7995 407C48.3195 403.81 48.9395 400.8 49.6495 397.52C49.9495 396.1 50.2695 394.62 50.5995 393.06C52.2995 385.15 52.6295 376.69 52.8595 368.5C53.0295 362.01 54.5595 346.75 56.3795 338C56.8395 335.72 57.3295 333.89 57.8195 332.76C60.1895 327.3 63.4595 312.02 63.4595 312.02" stroke="#1E150F" stroke-width="2" stroke-miterlimit="10" stroke-linecap="round"/>
<path d="M65.7196 360.04C64.3596 357.73 62.1096 351.04 60.7496 347.49C59.4096 343.97 57.1696 340.98 56.3796 338C56.3696 337.98 56.3696 337.96 56.3596 337.94" stroke="#1E150F" stroke-width="2" stroke-miterlimit="10" stroke-linecap="round"/>
<path d="M64.8096 343.95C65.2996 347.99 66.1396 353.52 66.3196 360.03C66.3896 362.53 66.3596 365.19 66.1696 367.96C66.0096 370.38 65.7096 373.71 65.3496 377.47C65.1296 379.79 64.8896 382.28 64.6396 384.81C64.3196 388.08 63.9896 391.41 63.6896 394.56C63.4496 397.06 63.2296 399.45 63.0496 401.57C62.7496 405.1 62.5596 407.92 62.5596 409.43C62.5596 415.3 60.6396 432.08 60.0796 437.53C59.5096 442.99 57.4796 448.04 58.0496 449.81C58.3496 450.76 59.6896 451.36 61.7296 451.69C63.4996 451.98 65.7996 452.06 68.4196 452C74.0596 451.86 80.7096 449.81 85.1096 449.54C89.5096 449.27 94.4996 451.14 95.0396 450.9C95.5796 450.67 95.9096 450.22 96.0996 449.6C96.8196 447.39 95.7096 443.08 95.7096 439.44C95.7096 434.81 95.2596 405.61 95.4896 396.61C95.4896 396.22 95.5096 395.83 95.5196 395.43C95.5696 392.45 95.5896 389.17 95.5896 385.91C95.5896 382.99 95.5896 380.08 95.6096 377.43C95.6096 374.21 95.6296 371.37 95.7096 369.32C95.9396 363.46 95.8296 352.13 93.4596 346.4C91.0896 340.67 83.9996 306.94 83.5296 300.56C82.9696 292.92 82.4096 284.33 82.4096 284.33" stroke="#1E150F" stroke-width="2" stroke-miterlimit="10" stroke-linecap="round"/>
<path d="M17.6696 395.79C20.2696 397.29 24.0996 400.97 29.1796 400.97C34.2596 400.97 36.5096 402.88 39.7796 402.34C43.0496 401.79 47.3296 400.02 49.2496 397.43" stroke="#1E150F" stroke-miterlimit="10" stroke-linecap="round"/>
<path d="M14.7395 403.43C14.7395 403.43 14.7795 403.46 14.7995 403.47C17.1595 405.12 19.9695 407.79 24.2095 408.07C28.4995 408.34 31.7695 408.28 34.5895 408.61C38.4695 409.07 40.4495 409.84 42.7095 409.16C44.9695 408.48 47.6695 406.98 47.6695 406.98" stroke="#1E150F" stroke-miterlimit="10" stroke-linecap="round"/>
<path d="M13.9496 412.16C16.8796 413.52 25.1996 417.31 30.0796 417.62C36.6196 418.03 42.9396 418.16 46.4296 413.25" stroke="#1E150F" stroke-miterlimit="10" stroke-linecap="round"/>
<path d="M12.9396 420.34C15.4196 421.44 18.7996 423.76 23.5396 424.16C28.2696 424.57 32.1096 425.8 36.1696 425.26C40.2296 424.71 44.8496 423.21 46.0896 420.89" stroke="#1E150F" stroke-miterlimit="10" stroke-linecap="round"/>
<path d="M65.7196 377.51C68.6496 378.46 74.8996 378.92 80.0396 378.05C88.9496 376.55 94.0196 373.96 95.7096 369.32" stroke="#1E150F" stroke-miterlimit="10" stroke-linecap="round"/>
<path d="M64.3496 384.79C64.4396 384.79 64.5396 384.81 64.6396 384.81C67.9696 385.1 75.4796 385.7 78.8796 385.3C82.3696 384.9 85.5896 383.55 88.3196 382.97C91.5396 382.27 94.2596 380.8 95.1196 377.43" stroke="#1E150F" stroke-miterlimit="10" stroke-linecap="round"/>
<path d="M63.8496 394.57C65.7096 395 70.7196 395.35 73.5796 395.09C76.4396 394.83 83.8196 394.22 86.8896 393.01C89.9196 391.82 95.0096 389.2 95.5896 385.91C95.5896 385.85 95.6096 385.8 95.6196 385.74" stroke="#1E150F" stroke-miterlimit="10" stroke-linecap="round"/>
<path d="M63.1996 401.58C66.1996 404.62 74.4396 402.79 76.1596 402.71C77.8796 402.62 86.9796 401.46 88.1796 401.15C91.5396 400.28 95.0496 397.86 95.3396 395.43" stroke="#1E150F" stroke-miterlimit="10" stroke-linecap="round"/>
<path d="M5.26957 479.28C2.98957 481.35 1.51956 488.75 1.29956 490.8C1.01956 493.49 0.379567 497.58 2.66957 498.88C4.95957 500.18 15.5096 503.57 18.2696 502C20.5796 500.69 19.0196 499.56 20.7696 498.69C21.7696 497.88 28.5796 505.56 30.7096 507.69C32.4496 509.43 36.7096 510.44 43.5196 512.1C49.0896 513.46 57.0496 513.57 58.8396 513.14C60.6296 512.71 62.1996 512.74 61.9896 509.02C61.7696 505.3 59.8096 502.96 58.5496 502.09C54.7596 499.5 47.9596 494.91 45.0996 493.09C42.2396 491.27 38.8696 489.02 38.1596 486.86" stroke="#1E150F" stroke-width="2" stroke-miterlimit="10" stroke-linecap="round"/>
<path d="M61.6995 451.88C61.1995 455.52 58.7695 467.31 58.6295 471.12C58.4895 474.93 58.2695 474.32 59.7795 475.1C61.2795 475.88 69.9695 477.87 74.3695 477.87C79.5995 477.87 83.1795 476.23 84.6795 475.1C86.1795 473.97 86.3295 471.81 88.5395 471.46C90.7595 471.12 97.6695 473.94 101.71 475.79C108.15 478.74 120.959 474.32 124.609 472.85C128.259 471.38 130.84 468 131.77 465.75C132.7 463.5 129.98 460.36 129.98 460.36C128.69 459.15 127.47 459.33 124.46 459.07C122.46 458.89 104.71 457.51 102.35 456.38C99.9895 455.26 96.9795 452.57 96.1995 449.63" stroke="#1E150F" stroke-width="2" stroke-miterlimit="10" stroke-linecap="round"/>
<path opacity="0.9" d="M35.2507 72.5396C33.7185 69.4402 38.7083 47.2343 41.3947 36.5188L50.7549 26.2252L97.0891 30.2009L113.023 56.1022L107.565 66.6841C104.217 74.3001 97.6015 90.5482 97.9256 94.6128C98.3306 99.6935 64.3658 108.272 56.2296 108.378C48.0933 108.483 37.1659 76.414 35.2507 72.5396Z" fill="#9D7557"/>
<path d="M63.509 71.9355C65.1724 74.5302 70.4417 78.8667 78.2112 75.4547" stroke="#3C2B1F" stroke-width="1.66984" stroke-linecap="round"/>
<path d="M114.513 55.6395C115.914 58.669 116.402 60.9088 116.127 61.6221C114.923 64.7189 113.02 61.579 113.02 61.579C113.02 61.579 112.473 60.534 111.19 58.8389C110.952 58.5164 110.68 58.1692 110.383 57.7973C106.319 52.8234 97.0781 44.0341 79.3205 38.4531C62.8875 33.2808 48.4123 36.767 41.5047 39.1696C40.8647 39.395 40.2914 39.6112 39.7846 39.8099C38.1229 40.4493 37.2105 40.9121 37.2105 40.9121C31.8327 42.8105 36.0399 37.579 36.0399 37.579C36.0399 37.579 37.5986 36.0808 40.6055 34.2215C47.3648 30.0422 61.44 24.0479 81.5394 29.2811C100.734 34.2756 110.803 47.6718 114.513 55.6395Z" fill="#5D5E84"/>
<path d="M78.5773 89.2469C73.0747 90.5291 62.5379 88.6619 55.8345 82.9959L55.7581 82.8967C56.105 82.6083 56.4864 82.4029 56.9192 82.2887C57.4601 82.1481 58.0682 82.04 58.7185 81.9648C63.5356 85.1169 72.3661 87.3987 76.4529 86.4021C76.9842 86.8043 77.4656 87.2239 77.8718 87.6445C78.2695 88.0485 78.5688 88.5873 78.7935 89.1773L78.5773 89.2469Z" fill="white"/>
<path d="M30.9959 49.1089C30.54 47.4365 31.2071 45.4405 33.3264 44.6698C35.67 43.8211 38.1265 45.2338 38.5804 46.7475C38.2985 48.1874 37.9997 49.6108 37.6835 50.9843C37.5886 51.3946 37.4937 51.7967 37.3986 52.1903C37.1453 53.2624 36.867 54.3348 36.3536 55.3101C35.7177 56.4957 34.7618 57.4767 34.0503 58.6215C33.6005 59.3538 33.261 60.2099 33.2134 61.0455L32.9126 61.0327C32.1707 61.1258 30.245 60.725 29.6992 58.5611C29.1533 56.3889 30.1728 53.879 30.726 52.7613C31.271 51.6437 31.539 51.064 30.9959 49.1089Z" fill="#9D7557"/>
<path d="M84.2226 5.71646C86.0052 6.02731 87.7466 6.38044 89.3883 6.77662C90.8373 7.12519 92.5222 7.62936 94.3342 8.27383C102.546 11.1732 113.282 16.7785 116.086 22.4284C118.435 27.174 114.788 53.6906 114.513 55.6397C110.802 47.672 100.734 34.2758 81.5393 29.2814C61.44 24.0481 47.3647 30.0424 40.6054 34.2217C41.1598 33.1874 55.0769 7.29731 59.4173 5.88827C65.828 3.80939 75.6111 4.21675 84.2226 5.71646Z" fill="#58595B"/>
<path d="M55.8345 82.9958C62.5379 88.6618 73.0747 90.529 78.5773 89.2468L78.7935 89.1772C78.9407 89.5844 79.0632 90.017 79.1525 90.4584C78.7233 90.8481 76.7178 92.6526 74.7905 94.0638L58.4685 89.7166L58.3688 89.7597C57.1385 86.9617 55.8345 82.9958 55.8345 82.9958Z" fill="#3F2717"/>
<path d="M107.795 71.9671C108.936 70.4827 109.483 68.2461 109.863 65.9617C111.406 65.2319 115.096 65.1506 116.242 66.5636C117.413 68.0096 116.751 69.8051 115.685 71.2718C114.61 72.7303 114.294 74.1455 113.826 75.4124C112.891 77.9713 111.59 78.723 110.189 78.8497C108.796 78.9764 107.962 77.8098 107.962 77.8098L107.921 77.8104C107.861 77.0346 107.542 76.2873 107.008 75.7181C107.871 75.2309 108.231 74.0155 107.768 73.1448C107.657 72.9375 107.504 72.7223 107.526 72.4883C107.54 72.2877 107.672 72.1273 107.795 71.9671Z" fill="#9D7557"/>
<path d="M74.7906 94.0639C76.7178 92.6528 78.7234 90.8482 79.1526 90.4585C79.5988 92.6738 79.3546 95.0901 79.3546 95.0901C79.3546 95.0901 74.6333 99.9526 65.4749 98.1344C58.1248 96.6851 53.0341 89.1778 53.0341 89.1778C53.0341 89.1778 53.5932 84.6532 55.7581 82.8967L55.8345 82.9959C55.8345 82.9959 57.1385 86.9619 58.3689 89.7598C58.8334 90.8059 59.2873 91.6851 59.6522 92.1312C61.0263 93.7834 69.5557 96.0273 71.5983 95.792C72.3404 95.7072 73.5498 94.9651 74.7906 94.0639Z" fill="#9D7557"/>
<path d="M59.6521 92.1311C59.2873 91.685 58.8333 90.8058 58.3688 89.7597L58.4685 89.7167L74.7906 94.0638C73.5498 94.965 72.3403 95.7071 71.5983 95.7919C69.5556 96.0272 61.0262 93.7833 59.6521 92.1311Z" fill="white"/>
<path d="M94.1546 3.44114C94.5937 4.46248 94.8036 5.83749 94.4228 8.02176L94.3342 8.27341C92.5223 7.62894 90.8374 7.12477 89.3883 6.7762C87.7466 6.38002 86.0052 6.02689 84.2227 5.71604C84.464 5.01151 85.7293 1.49647 87.0973 1.38685C88.6071 1.2754 93.7156 2.42815 94.1546 3.44114Z" fill="#5D5E84"/>
<path d="M76.4529 86.4017C72.366 87.3983 63.5356 85.1166 58.7185 81.9644C62.0949 81.5532 66.6088 81.9371 68.9557 82.6247C71.3864 83.3363 74.3277 84.7844 76.4529 86.4017Z" fill="#9D7557"/>
<path d="M65.4748 98.1346C58.1248 96.6853 53.034 89.178 53.034 89.178C51.6748 89.1957 49.5248 86.7576 48.6197 85.5363C44.9777 82.2102 33.6881 74.4495 41.5047 39.1698C40.8647 39.3952 40.2914 39.6114 39.7846 39.81L39.8105 39.8765C39.4465 42.0689 39.0345 44.4206 38.5804 46.7477C38.2985 48.1876 37.9997 49.6109 37.6836 50.9844C37.5887 51.3948 37.4937 51.7968 37.3986 52.1905C37.1454 53.2626 36.867 54.335 36.3537 55.3103C35.7178 56.4959 34.7619 57.4769 34.0503 58.6217C33.6006 59.354 33.261 60.2101 33.2134 61.0457C33.1862 61.522 33.2592 61.997 33.457 62.4453C31.5107 63.6646 30.6439 66.3645 31.5149 68.4908C30.0105 69.671 29.582 72.0396 30.5885 73.6714L30.5971 73.6857C30.7147 73.8813 30.8506 74.1072 30.7555 74.3122C30.7148 74.3962 30.6404 74.4557 30.5744 74.515C28.3859 76.3804 27.8641 79.9191 29.4068 82.3373C29.6625 82.7348 30.4946 83.1581 30.4946 83.1581C30.4946 83.1581 29.2442 85.2452 29.5274 86.4773C29.8021 87.7011 30.6088 88.7344 31.3898 89.7263C30.4622 90.949 30.1667 92.6312 30.645 94.0946C31.1232 95.558 32.3578 96.7527 33.833 97.1844C33.4831 98.5333 33.7362 100.016 34.5027 101.175C35.2775 102.326 36.5487 103.128 37.9207 103.327C37.0907 104.356 37.6862 105.843 38.3938 106.961C38.9564 107.848 39.8414 108.487 40.8071 108.909C41.0591 109.023 41.3109 109.12 41.5707 109.2C41.4042 110.521 41.9399 111.909 42.9364 112.772C43.9414 113.644 45.3902 113.976 46.6632 113.626C46.4466 114.948 47.1326 116.333 48.2115 117.113C49.2987 117.892 50.7294 118.107 52.0457 117.881C52.1957 117.854 52.354 117.827 52.4965 117.875C52.8321 117.996 52.8547 118.447 52.8927 118.805C53.0526 120.189 53.4969 120.968 54.651 121.747C56.4029 122.91 58.6032 122.597 59.8459 121.203C60.0261 122.22 60.9389 123.068 61.9754 123.155C62.0506 123.162 62.1257 123.161 62.2008 123.16L62.201 123.16C63.1527 123.148 64.0797 122.518 64.4187 121.62C65.1274 122.821 66.4739 123.631 67.8774 123.687C69.2727 123.753 70.6832 123.058 71.4866 121.912C71.7313 122.752 72.6656 123.333 73.5236 123.172C74.3815 123.01 75.0465 122.133 74.9684 121.266C75.8807 122.072 77.3747 122.028 78.3674 121.305C79.3601 120.591 79.8699 119.34 79.904 118.112C81.1082 118.89 82.7469 119.052 83.99 118.335C85.2332 117.617 85.9214 115.963 85.3698 114.634C88.118 114.716 90.6484 112.178 90.5627 109.432C92.6397 109.271 94.4223 107.01 94.0117 104.97C95.2757 105.212 96.6557 104.744 97.4948 103.772C98.3422 102.801 98.6159 101.37 98.191 100.156C99.5752 100.013 100.858 99.1113 101.443 97.8512C102.036 96.591 101.907 95.0229 101.132 93.8723C102.649 93.6856 103.936 92.4582 104.401 90.9992C104.858 89.5404 104.57 87.9076 103.826 86.5729C105.914 85.9446 106.979 83.1169 105.82 81.2699C106.841 80.8391 107.63 79.8853 107.858 78.7969C107.929 78.4703 107.95 78.1444 107.921 77.8108C107.861 77.035 107.542 76.2877 107.008 75.7185C107.87 75.2313 108.23 74.0159 107.768 73.1452C107.657 72.9379 107.504 72.7227 107.526 72.4887C107.54 72.2881 107.672 72.1277 107.795 71.9675C108.936 70.4831 109.483 68.2465 109.863 65.9621C110.304 63.3178 110.528 60.5928 111.19 58.8391C110.952 58.5165 110.68 58.1694 110.383 57.7975L110.35 57.823C107.57 68.1712 94.7777 93.8713 84.5394 95.0564C83.4546 95.3711 80.899 95.8184 79.3546 95.0903C79.3546 95.0903 74.6332 99.9528 65.4748 98.1346Z" fill="#58595B" stroke="#1E150F" stroke-width="1.66984"/>
<path d="M39.7846 39.8099C38.1229 40.4493 37.2105 40.9121 37.2105 40.9121C31.8327 42.8105 36.0399 37.579 36.0399 37.579C36.0399 37.579 37.5986 36.0808 40.6055 34.2215C47.3648 30.0422 61.44 24.0479 81.5394 29.2811C100.734 34.2756 110.803 47.6718 114.513 55.6395C115.914 58.669 116.402 60.9088 116.127 61.6221C114.923 64.7189 113.02 61.579 113.02 61.579C113.02 61.579 112.473 60.534 111.19 58.8389C110.952 58.5164 110.68 58.1692 110.383 57.7973C106.319 52.8234 97.0781 44.0341 79.3205 38.4531C62.8875 33.2808 48.4123 36.767 41.5047 39.1696C40.8647 39.395 40.2914 39.6112 39.7846 39.8099Z" stroke="#1E150F" stroke-width="1.66984" stroke-miterlimit="10"/>
<path d="M40.5893 34.2553C40.5893 34.2553 40.5976 34.2552 40.6055 34.2217C41.1599 33.1874 55.077 7.29731 59.4173 5.88826C65.8281 3.80939 75.6112 4.21675 84.2227 5.71645C86.0053 6.0273 87.7466 6.38044 89.3884 6.77661C90.8374 7.12519 92.5223 7.62936 94.3343 8.27382C102.546 11.1732 113.282 16.7785 116.086 22.4284C118.435 27.174 114.788 53.6906 114.513 55.6397C114.506 55.7149 114.498 55.7568 114.498 55.7568" stroke="#1E150F" stroke-width="1.66984" stroke-miterlimit="10"/>
<path d="M84.1827 5.84182C84.1827 5.84182 84.1988 5.79985 84.2228 5.71604C84.4641 5.01152 85.7294 1.49647 87.0974 1.38686C88.6073 1.27541 93.7157 2.42816 94.1547 3.44115C94.5938 4.46248 94.8037 5.8375 94.4229 8.02177" stroke="#1E150F" stroke-width="1.66984" stroke-miterlimit="10"/>
<path d="M79.1527 90.4582C79.5989 92.6734 79.3548 95.0897 79.3548 95.0897C79.3548 95.0897 74.6334 99.9522 65.475 98.134C58.125 96.6847 53.0342 89.1774 53.0342 89.1774C53.0342 89.1774 53.5934 84.6529 55.7582 82.8963C56.1052 82.6079 56.4866 82.4026 56.9193 82.2884C57.4602 82.1478 58.0684 82.0397 58.7187 81.9644C62.0951 81.5532 66.609 81.9371 68.9559 82.6247C71.3866 83.3363 74.3279 84.7844 76.4531 86.4017C76.9844 86.804 77.4657 87.2236 77.872 87.6442C78.2697 88.0481 78.5689 88.587 78.7937 89.1769C78.9409 89.5842 79.0635 90.0168 79.1527 90.4582Z" stroke="#1E150F" stroke-width="1.66984" stroke-miterlimit="10"/>
<path d="M55.8345 82.9958C55.8345 82.9958 57.1385 86.9617 58.3688 89.7597C58.8333 90.8057 59.2873 91.6849 59.6521 92.1311C61.0262 93.7832 69.5556 96.0272 71.5983 95.7919C72.3403 95.7071 73.5498 94.965 74.7905 94.0638C76.7178 92.6526 78.7233 90.8481 79.1525 90.4584C79.2103 90.4075 79.235 90.3822 79.235 90.3822" stroke="#1E150F" stroke-width="1.66984" stroke-miterlimit="10"/>
<path d="M58.6512 81.9242C58.6512 81.9242 58.6934 81.9571 58.7186 81.9651C63.5357 85.1173 72.3661 87.399 76.453 86.4024C76.4864 86.402 76.5113 86.3933 76.5446 86.3845" stroke="#1E150F" stroke-width="1.66984" stroke-miterlimit="10"/>
<path d="M55.8345 82.9958C62.5379 88.6618 73.0747 90.529 78.5773 89.2468" stroke="#1E150F" stroke-width="1.66984" stroke-miterlimit="10"/>
<path d="M58.4686 89.7167L74.7907 94.0638L74.9667 94.1116" stroke="#1E150F" stroke-width="1.66984" stroke-miterlimit="10"/>
<path d="M110.793 65.5663C112.336 64.8365 115.096 65.1513 116.242 66.5643C117.413 68.0103 116.751 69.8058 115.685 71.2725C114.61 72.731 114.294 74.1462 113.826 75.4132C112.891 77.972 111.59 78.7237 110.189 78.8505C108.796 78.9771 108.456 78.5389 108.456 78.5389" stroke="#1E150F" stroke-width="1.66984" stroke-miterlimit="10"/>
<path d="M110.012 69.7509C110.012 69.7509 112.61 68.0705 114.182 69.3817" stroke="#1E150F" stroke-width="1.66984" stroke-miterlimit="10" stroke-linecap="round"/>
<path d="M37.9005 46.4727C37.4466 44.9589 35.6701 43.8214 33.3264 44.6701C31.2072 45.4408 30.5401 47.4367 30.996 49.1091C31.5391 51.0643 31.271 51.6439 30.7261 52.7615C30.1728 53.8793 29.1533 56.3891 29.6992 58.5614C30.245 60.7252 32.1707 61.1261 32.9127 61.033" stroke="#1E150F" stroke-width="1.66984" stroke-miterlimit="10"/>
<path d="M33.3252 47.7844C35.7447 47.031 36.313 47.8875 37.0866 49.7681L37.1091 49.8228" stroke="#1E150F" stroke-width="1.66984" stroke-miterlimit="10" stroke-linecap="round"/>
<path d="M84.9291 57.1995C90.198 54.9784 94.4002 57.0764 96.1232 61.1639" stroke="#1E150F" stroke-width="4.1746" stroke-linecap="round"/>
<path d="M52.0695 48.751C57.0263 45.9007 61.454 47.4676 63.6653 51.3129" stroke="#1E150F" stroke-width="4.1746" stroke-linecap="round"/>
<path d="M208.31 332.01C206.65 331.29 204.56 331.37 201.54 332.28L194.31 334.46L202.2 360.61L209.44 358.43C212.85 357.4 214.68 356.17 215.57 354.32C216.65 351.95 216.37 348.22 214.67 342.58C212.81 336.42 210.85 333.16 208.31 332.01ZM201.06 330.67C204.49 329.64 206.94 329.58 209 330.48C212.02 331.84 214.26 335.43 216.27 342.1C218.13 348.23 218.38 352.22 217.08 355.04C216.5 356.25 215.64 357.24 214.39 358.07C213.25 358.84 211.79 359.47 209.92 360.04L202.37 362.32C201.58 362.55 200.93 362.21 200.69 361.41L192.61 334.63C192.46 334.14 192.56 333.79 192.67 333.58C192.78 333.38 193.02 333.1 193.51 332.95L201.06 330.67Z" fill="#1E150F"/>
<path d="M298.649 326.87L299.929 331.11L288.599 334.53L280.699 308.38L285.829 306.83L292.179 327.85C292.329 328.36 292.829 328.63 293.339 328.48L298.649 326.87Z" fill="white"/>
<path d="M208.72 295.64C210.63 295.06 211.12 295.04 211.98 297.9C212.84 300.74 212.31 301.04 210.52 301.58L210.35 301.64L208.55 295.69L208.72 295.64Z" fill="#386B45"/>
<path d="M256.6 274.57L262.57 294.32L261.3 294.7C260.35 291.55 258.5 290.11 254.72 288.08C250.41 285.77 250.25 285.24 249.94 284.23C249.77 283.67 249.9 283.25 250.34 282.87C250.69 282.58 251.2 282.33 251.93 282.11C252.43 281.96 253.15 281.85 254.05 281.77C254.47 281.74 254.81 281.57 255.03 281.28C255.25 280.99 255.32 280.6 255.23 280.19L254.24 275.57C254.22 275.48 254.2 275.39 254.17 275.31L256.6 274.57Z" fill="#386B45"/>
<path d="M284.14 202.12C285.12 201.83 285.68 201.68 285.75 201.67C287.17 201.5 289 200.67 290.08 202.33C291.17 204 294.08 215.67 294.08 215.67C294.25 216.58 294.25 218.92 292.58 219.83C292.43 219.91 291.5 220.22 289.91 220.72C273.57 225.85 188.09 250.99 183.25 252.42C173.67 255.25 168.05 259.89 166.08 264.83C163.5 271.33 164 274.75 166.58 290.33C167.8 297.67 167.33 299.58 164.5 300.67C162.19 301.55 152.83 304.54 148.74 305.61C147.82 305.86 147.16 306 146.92 306C145.58 306 144 305.5 142.92 302C141.83 298.5 134 271.25 133.83 270.92C133.67 270.58 132.75 270.08 130.92 270.83C129.08 271.58 110.06 277.06 108.33 277.67C106.67 278.25 104.33 278.83 102.42 272.42C101.45 269.18 99.7495 263.5 99.7495 262.67C99.7495 262.19 99.4795 260.78 100.26 259.29C100.85 258.17 102.05 257 104.42 256.17C105.8 255.69 117.73 252.05 134.88 246.86C135.45 246.69 136.04 246.51 136.63 246.33C184.84 231.76 271.3 205.81 284.14 202.12Z" fill="#386B45"/>
<path d="M254.449 345.05C254.469 345.15 254.49 345.24 254.53 345.33L251.72 346.01L245.5 325.39L248.629 324.44C249.119 324.29 249.36 324.02 249.47 323.81C249.54 323.68 249.609 323.49 249.609 323.24L251.289 323.05C252.299 331.44 253.639 340.69 254.449 345.05Z" fill="#386B45"/>
<path d="M219.42 414.83C239.34 414.83 255.5 430.99 255.5 450.92C255.5 470.85 239.34 487 219.42 487C199.5 487 183.33 470.84 183.33 450.92C183.33 431 199.49 414.83 219.42 414.83ZM241.08 450.33C241.08 438.46 231.46 428.83 219.58 428.83C207.7 428.83 198.08 438.46 198.08 450.33C198.08 462.2 207.71 471.83 219.58 471.83C231.45 471.83 241.08 462.21 241.08 450.33Z" fill="#6D6E71"/>
<path d="M329.919 372C329.919 372 343.829 419.33 344.419 421.5C344.999 423.67 343.83 427.42 341.75 428.33C339.67 429.25 331.58 432 331.58 432L331.15 431.93C331.3 431.08 331.22 430.27 331.08 429.67C330.75 428.17 323.43 399.51 322.83 397.25C320.08 386.92 323.5 381.83 328.75 374.33C329.23 373.65 329.6 372.85 329.89 371.99H329.919V372Z" fill="#386B45"/>
<path d="M219.58 428.83C231.46 428.83 241.08 438.46 241.08 450.33C241.08 462.2 231.46 471.83 219.58 471.83C207.7 471.83 198.08 462.21 198.08 450.33C198.08 438.45 207.71 428.83 219.58 428.83ZM235 450.42C235 441.9 228.1 435 219.58 435C211.06 435 204.17 441.9 204.17 450.42C204.17 458.94 211.07 465.83 219.58 465.83C228.09 465.83 235 458.93 235 450.42Z" fill="#6D6E71"/>
<path d="M280.7 308.38L288.6 334.53L299.93 331.11L298.65 326.87L293.34 328.48C292.83 328.63 292.33 328.36 292.18 327.85L285.83 306.83L280.7 308.38ZM279 308.55C278.85 308.06 278.95 307.71 279.06 307.5C279.17 307.3 279.41 307.02 279.9 306.87L285.66 305.13C286.46 304.89 287.1 305.24 287.34 306.03L293.57 326.66L298.49 325.17C298.98 325.02 299.33 325.13 299.53 325.24C299.74 325.35 300.02 325.58 300.17 326.07L301.64 330.94C301.78 331.43 301.68 331.78 301.57 331.99C301.5 332.12 301.38 332.28 301.17 332.42C301.06 332.5 300.91 332.57 300.74 332.62L288.76 336.24C287.97 336.48 287.32 336.13 287.08 335.34L279 308.55Z" fill="#1E150F"/>
<path d="M223.8 450.57C224.07 452.9 222.42 455.01 220.09 455.29C217.76 455.57 215.65 453.91 215.37 451.58C215.09 449.26 216.75 447.14 219.08 446.86C221.4 446.58 223.52 448.24 223.8 450.57Z" fill="#939598"/>
<path d="M274.8 269.41L282.69 295.56L277.56 297.11L274.45 286.8C274.38 286.55 274.22 286.36 274 286.24C273.79 286.13 273.53 286.1 273.29 286.18L268.84 287.52C268.34 287.67 268.07 288.18 268.22 288.68L271.33 298.99L266.2 300.54L258.31 274.39L263.44 272.84L266.4 282.66C266.48 282.9 266.63 283.1 266.85 283.22C267.07 283.33 267.32 283.36 267.56 283.28L272.01 281.94C272.25 281.87 272.45 281.7 272.57 281.49C272.68 281.27 272.71 281.02 272.63 280.78L269.67 270.96L274.8 269.41Z" fill="white"/>
<path d="M279 308.55L287.08 335.34C287.32 336.13 287.97 336.48 288.76 336.24L300.74 332.62C300.91 332.57 301.06 332.5 301.17 332.42C301.38 332.28 301.499 332.12 301.57 331.99C301.68 331.78 301.78 331.43 301.64 330.94L300.17 326.07C300.02 325.58 299.74 325.35 299.53 325.24C299.33 325.13 298.98 325.02 298.49 325.17L293.57 326.66L287.34 306.03C287.1 305.24 286.46 304.89 285.66 305.13L279.9 306.87C279.41 307.02 279.17 307.3 279.06 307.5C278.95 307.71 278.85 308.06 279 308.55ZM277.08 339.38C277.29 339.49 277.639 339.59 278.13 339.44L283.89 337.71C284.07 337.65 284.22 337.58 284.33 337.5C284.54 337.36 284.66 337.2 284.73 337.07C284.84 336.87 284.94 336.52 284.8 336.03L276.71 309.24C276.47 308.45 275.83 308.1 275.03 308.34L269.27 310.08C268.78 310.23 268.54 310.51 268.43 310.71C268.32 310.92 268.22 311.27 268.37 311.76L276.45 338.55C276.6 339.04 276.88 339.27 277.08 339.38ZM274.77 444.35C274.26 443.45 273.81 442.44 273.42 441.33C270.33 432.5 261.79 417.25 256.08 410.33C246.58 398.83 233.92 395.92 227.75 396C219.99 396.1 198.62 401.68 195.08 402.33C190.62 403.15 186.04 404.23 182.59 403.53C180.43 403.11 178.71 401.98 177.75 399.67C175.25 393.67 148.75 305.67 148.75 305.67V305.61C152.83 304.54 162.19 301.55 164.5 300.67C167.33 299.58 167.8 297.67 166.58 290.33C164 274.75 163.5 271.33 166.08 264.83C168.05 259.89 173.67 255.25 183.25 252.42C188.09 250.99 273.57 225.85 289.91 220.72V220.75C289.91 220.75 329.26 360.28 330.08 362.67C330.8 364.76 330.95 368.81 329.89 371.99C329.6 372.85 329.23 373.65 328.75 374.33C323.5 381.83 320.08 386.92 322.83 397.25C323.43 399.51 330.75 428.17 331.08 429.67C331.22 430.27 331.3 431.08 331.15 431.93C330.94 433.19 330.22 434.53 328.42 435.33C325.42 436.67 287.37 449.17 285.75 449.67C281.62 450.93 277.44 449.09 274.77 444.35ZM197.3 292.46C197.16 291.97 196.88 291.73 196.67 291.62C196.47 291.51 196.12 291.41 195.62 291.56L181.02 295.96C180.52 296.12 180.29 296.39 180.18 296.6C180.07 296.8 179.97 297.15 180.12 297.65L181.58 302.51C181.82 303.31 182.47 303.65 183.27 303.42L186.4 302.47L192.62 323.09C192.86 323.89 193.51 324.23 194.3 323.99L200.06 322.25C200.24 322.2 200.39 322.13 200.5 322.05C200.71 321.91 200.83 321.75 200.9 321.62C201.01 321.42 201.11 321.06 200.97 320.57L194.74 299.95L197.87 299.01C198.66 298.77 199.01 298.12 198.77 297.33L197.3 292.46ZM256.67 273.51C256.56 273.71 256.46 274.07 256.6 274.56L254.17 275.31C253.95 274.71 253.48 274.41 252.78 274.45C251.28 274.56 249.66 274.85 247.98 275.31C244.97 276.17 242.94 277.39 241.79 279.06C240.52 280.89 240.31 283.18 241.13 286.08C242.2 289.74 243.92 291.66 248.23 293.97C251.74 295.85 252.26 296.24 252.54 297.17C252.65 297.54 252.95 298.51 250.3 299.31C249.29 299.62 248.25 299.81 247.14 299.88C246.72 299.91 246.37 300.09 246.15 300.38C245.94 300.67 245.87 301.05 245.96 301.46L247.02 306.32C247.2 307.12 247.76 307.54 248.49 307.45C250.4 307.27 252.73 306.8 254.89 306.15C256.41 305.69 257.68 305.12 258.7 304.44C261.83 302.35 262.65 299.18 261.3 294.7L262.57 294.32L264.69 301.34C264.93 302.13 265.57 302.48 266.37 302.24L272.13 300.5C272.619 300.35 272.86 300.07 272.97 299.87C273.08 299.66 273.18 299.31 273.03 298.82L270.04 288.91L273.06 288L276.05 297.91C276.2 298.4 276.48 298.63 276.68 298.75C276.89 298.86 277.24 298.96 277.73 298.81L283.49 297.07C283.67 297.02 283.82 296.94 283.93 296.87C284.14 296.73 284.26 296.57 284.33 296.44C284.44 296.23 284.54 295.88 284.39 295.39L276.31 268.61C276.16 268.12 275.88 267.88 275.68 267.77C275.47 267.66 275.119 267.56 274.63 267.71L268.87 269.44C268.07 269.69 267.73 270.33 267.97 271.13L270.81 280.55L267.79 281.46L264.95 272.04C264.8 271.55 264.52 271.31 264.31 271.2C264.11 271.09 263.76 270.99 263.27 271.14L257.51 272.88C257.01 273.03 256.78 273.3 256.67 273.51ZM216.27 342.1C214.26 335.43 212.02 331.84 209 330.48C206.94 329.58 204.49 329.64 201.06 330.67L193.51 332.95C193.02 333.1 192.78 333.38 192.67 333.58C192.56 333.79 192.46 334.14 192.61 334.63L200.69 361.41C200.93 362.21 201.58 362.55 202.37 362.32L209.92 360.04C211.79 359.47 213.25 358.84 214.39 358.07C215.64 357.24 216.5 356.25 217.08 355.04C218.38 352.22 218.13 348.23 216.27 342.1ZM231.77 321.4C230.98 321.64 230.63 322.29 230.87 323.08L232.34 327.95C232.49 328.44 232.77 328.68 232.98 328.79C233.18 328.9 233.53 329 234.02 328.85L237.16 327.9L243.38 348.53C243.619 349.32 244.27 349.67 245.06 349.43L250.82 347.69C251 347.63 251.15 347.56 251.26 347.49C251.47 347.35 251.59 347.19 251.66 347.06C251.77 346.85 251.87 346.5 251.72 346.01L254.53 345.33C254.64 345.59 254.82 345.8 255.05 345.95C255.38 346.15 255.78 346.19 256.18 346.07L261.91 344.34C262.61 344.13 263.01 343.45 262.85 342.73C262.549 341.36 262.25 339.87 261.93 338.18L265.18 337.2C265.8 338.7 266.39 340.14 266.92 341.51C267.19 342.19 267.89 342.54 268.59 342.32L274.33 340.59C274.48 340.55 274.61 340.48 274.73 340.4C274.93 340.27 275.09 340.09 275.2 339.87C275.35 339.54 275.36 339.16 275.21 338.8C273.14 333.81 267.45 321.62 262.91 313.1C262.61 312.54 261.99 312.28 261.37 312.47L251.53 315.44C250.91 315.62 250.53 316.18 250.6 316.83C250.799 318.78 251.04 320.89 251.29 323.05L249.61 323.24C249.61 323.1 249.58 322.94 249.53 322.76L248.06 317.89C247.91 317.4 247.64 317.16 247.43 317.05C247.22 316.94 246.869 316.84 246.38 316.99L231.77 321.4ZM219.5 305.73C222.08 303.39 221.73 300.03 220.32 295.38C218.99 290.95 217.63 288.73 215.64 287.73C213.34 286.58 210.29 287.13 206.42 288.3L199.28 290.45C198.79 290.6 198.55 290.88 198.44 291.09C198.33 291.29 198.23 291.64 198.38 292.13L206.46 318.92C206.7 319.71 207.34 320.06 208.14 319.82L213.9 318.08C214.7 317.83 215.04 317.19 214.8 316.4L212.56 308.96H212.62L217.58 315.91C218 316.47 218.57 316.67 219.22 316.47L224.9 314.76C225.08 314.7 225.22 314.63 225.34 314.56C225.62 314.36 225.74 314.13 225.78 313.98C225.84 313.77 225.89 313.34 225.47 312.84L219.5 305.73ZM225.85 312.93C225.92 313.31 226.13 313.63 226.45 313.82C226.78 314.02 227.18 314.07 227.58 313.95L233.31 312.22C234.01 312.01 234.4 311.33 234.25 310.61C233.95 309.26 233.65 307.76 233.33 306.06L236.57 305.08C237.2 306.57 237.78 308.02 238.31 309.38C238.58 310.07 239.29 310.41 239.99 310.2L245.73 308.47C245.87 308.43 246.009 308.36 246.13 308.28C246.329 308.15 246.49 307.97 246.59 307.75C246.75 307.42 246.76 307.04 246.61 306.68C244.53 301.68 238.85 289.49 234.31 280.98C234.01 280.41 233.39 280.16 232.77 280.34L222.92 283.31C222.3 283.5 221.93 284.06 222 284.71C222.96 294.21 224.83 307.45 225.85 312.93ZM229.8 323.4C229.56 322.61 228.92 322.26 228.12 322.5L215.01 326.46C214.53 326.61 214.29 326.88 214.18 327.09C214.07 327.3 213.97 327.65 214.11 328.14L222.2 354.92C222.44 355.72 223.079 356.06 223.88 355.82L237.39 351.74C237.57 351.69 237.72 351.62 237.83 351.54C238.04 351.4 238.16 351.24 238.23 351.11C238.34 350.9 238.44 350.55 238.29 350.06L236.82 345.19C236.68 344.7 236.4 344.47 236.19 344.36C235.98 344.25 235.63 344.14 235.14 344.29L228.68 346.24L227.55 342.49L233.08 340.82C233.87 340.58 234.22 339.94 233.98 339.14L232.52 334.32C232.28 333.52 231.64 333.17 230.84 333.42L225.31 335.08L224.32 331.78L230.37 329.95C230.86 329.8 231.1 329.53 231.21 329.32C231.32 329.11 231.42 328.76 231.27 328.27L229.8 323.4Z" fill="#386B45"/>
<path d="M259.689 295.19C260.449 297.72 260.419 299.67 259.589 301.15C258.749 302.63 257.049 303.74 254.399 304.54C252.489 305.12 250.449 305.55 248.619 305.75L247.689 301.52C248.809 301.41 249.769 301.23 250.789 300.92C252.099 300.52 253.059 299.98 253.639 299.3C254.259 298.56 254.439 297.65 254.149 296.68C253.669 295.12 252.749 294.49 249.019 292.49C245.089 290.38 243.679 288.84 242.749 285.62C242.089 283.31 242.199 281.52 243.079 280.14C243.989 278.75 245.739 277.7 248.419 276.93C249.909 276.52 251.249 276.27 252.639 276.15L253.499 280.14C252.639 280.23 251.959 280.35 251.439 280.51C247.949 281.56 247.999 283.59 248.339 284.71C248.929 286.66 249.989 287.45 253.929 289.56C257.779 291.63 258.969 292.78 259.689 295.19Z" fill="white"/>
<path d="M262.08 329.97C261.31 328.23 260.49 326.39 259.62 324.45C259.93 326.42 260.25 328.43 260.58 330.42L262.08 329.97ZM258.74 329.61C258.45 327.8 258.09 325.66 257.38 321.4C257.32 321.01 257.52 320.68 257.88 320.57L258.87 320.27C259.23 320.17 259.58 320.32 259.74 320.67C261.34 324.17 262.56 326.9 263.97 330.09C264.11 330.43 264.06 330.69 263.98 330.84C263.94 330.95 263.85 331.08 263.69 331.19C263.61 331.24 263.52 331.28 263.4 331.32L260.22 332.28C259.86 332.39 259.61 332.3 259.46 332.21C259.32 332.12 259.13 331.93 259.07 331.58L258.74 329.61Z" fill="#1E150F"/>
<path d="M259.62 324.45C260.49 326.39 261.309 328.23 262.079 329.97L260.579 330.42C260.249 328.43 259.93 326.42 259.62 324.45Z" fill="#386B45"/>
<path d="M192.92 299.72L199.26 320.74L194.14 322.29L187.79 301.27C187.72 301.03 187.56 300.83 187.34 300.71C187.12 300.6 186.87 300.57 186.63 300.65L183.1 301.71L181.82 297.48L195.79 293.26L197.07 297.49L193.54 298.56C193.03 298.71 192.77 299.22 192.92 299.72Z" fill="white"/>
<path d="M275.202 310.033L270.071 311.581L277.96 337.727L283.091 336.179L275.202 310.033Z" fill="white"/>
<path d="M219.58 435C228.1 435 235 441.9 235 450.42C235 458.94 228.1 465.83 219.58 465.83C211.06 465.83 204.17 458.93 204.17 450.42C204.17 441.91 211.07 435 219.58 435ZM220.09 455.29C222.42 455.01 224.07 452.9 223.8 450.57C223.52 448.24 221.4 446.58 219.08 446.86C216.75 447.14 215.09 449.26 215.37 451.58C215.65 453.91 217.76 455.57 220.09 455.29Z" fill="#BCBEC0"/>
<path d="M231.009 292.33C231.329 294.3 231.649 296.3 231.979 298.3L233.469 297.85C232.709 296.11 231.899 294.29 231.009 292.33ZM228.779 289.27C228.709 288.89 228.919 288.56 229.289 288.45L230.259 288.15C230.629 288.04 230.979 288.2 231.139 288.55C232.729 292.04 233.959 294.77 235.359 297.97C235.509 298.3 235.449 298.56 235.379 298.72C235.329 298.83 235.239 298.96 235.079 299.06C235.009 299.11 234.909 299.16 234.799 299.2L231.609 300.16C231.259 300.27 231.009 300.18 230.859 300.09C230.709 299.99 230.519 299.81 230.469 299.45L230.089 297.2C229.809 295.45 229.449 293.31 228.779 289.27Z" fill="#1E150F"/>
<path d="M235.31 346L236.59 350.23L223.71 354.12L215.82 327.97L228.29 324.2L229.57 328.44L223.12 330.39C222.61 330.54 222.34 331.04 222.5 331.55L223.92 336.28C224.08 336.79 224.58 337.06 225.09 336.91L231.01 335.12L232.28 339.31L226.35 341.1C226.11 341.18 225.91 341.33 225.79 341.55C225.68 341.77 225.66 342.02 225.73 342.26L227.29 347.44C227.37 347.69 227.53 347.88 227.74 348C227.96 348.12 228.21 348.14 228.45 348.07L235.31 346Z" fill="white"/>
<path d="M275.5 193.83C278.11 194.27 282.93 200.51 284.14 202.12C271.3 205.81 184.84 231.76 136.63 246.33L136.58 246.17C136.67 244.33 141.42 232.67 143.75 231.5C146.08 230.33 272.5 193.33 275.5 193.83Z" fill="#386B45"/>
<path d="M210.739 308.74C210.659 308.49 210.689 308.24 210.799 308.02C210.919 307.81 211.119 307.65 211.359 307.57L212.659 307.18C213.029 307.07 213.419 307.2 213.639 307.52L218.869 314.82L223.709 313.36L217.749 306.31C217.409 305.91 217.429 305.36 217.799 305.01L218.299 304.54C220.069 302.97 220.179 300.7 218.719 295.87C217.519 291.89 216.449 290.04 214.889 289.25C213.329 288.46 211.089 288.64 206.899 289.9L200.079 291.96L207.969 318.11L213.099 316.57L210.739 308.74ZM206.419 288.3C210.289 287.13 213.339 286.58 215.639 287.73C217.629 288.73 218.989 290.95 220.319 295.38C221.729 300.03 222.079 303.39 219.499 305.73L225.469 312.84C225.889 313.34 225.839 313.77 225.779 313.98C225.739 314.13 225.619 314.36 225.339 314.56C225.219 314.63 225.079 314.7 224.899 314.76L219.219 316.47C218.569 316.67 217.999 316.47 217.579 315.91L212.619 308.95H212.559L214.799 316.4C215.039 317.19 214.699 317.83 213.899 318.08L208.139 319.82C207.339 320.06 206.699 319.71 206.459 318.92L198.379 292.13C198.229 291.64 198.329 291.29 198.439 291.09C198.549 290.88 198.789 290.6 199.279 290.45L206.419 288.3Z" fill="#1E150F"/>
<path d="M210.519 301.58C212.309 301.04 212.839 300.74 211.979 297.9C211.119 295.04 210.629 295.06 208.719 295.64L208.549 295.69L210.349 301.64L210.519 301.58ZM213.589 297.41C214.129 299.2 214.199 300.34 213.809 301.21C213.609 301.69 213.279 302.08 212.779 302.41C212.329 302.71 211.749 302.96 210.999 303.19L210.119 303.46C209.609 303.61 209.109 303.34 208.959 302.83L206.729 295.46C206.659 295.22 206.679 294.97 206.799 294.75C206.909 294.54 207.109 294.38 207.349 294.3L208.239 294.04C211.279 293.12 212.529 293.91 213.589 297.41Z" fill="#1E150F"/>
<path d="M243.68 325.16L250.02 346.18L244.89 347.73L238.55 326.71C238.4 326.21 237.89 325.93 237.38 326.08L233.85 327.15L232.58 322.91L246.55 318.69L247.83 322.93L244.3 323.99C243.79 324.15 243.52 324.65 243.68 325.16Z" fill="white"/>
<path d="M233.31 312.22L227.58 313.95C227.18 314.07 226.78 314.02 226.45 313.82C226.13 313.63 225.92 313.31 225.85 312.93C224.83 307.45 222.96 294.21 222 284.71C221.93 284.06 222.3 283.5 222.92 283.31L232.77 280.34C233.39 280.16 234.01 280.41 234.31 280.98C238.85 289.49 244.53 301.68 246.61 306.68C246.76 307.04 246.75 307.42 246.59 307.75C246.49 307.97 246.33 308.15 246.13 308.28C246.01 308.36 245.87 308.43 245.73 308.47L239.99 310.2C239.29 310.41 238.58 310.07 238.31 309.38C237.78 308.02 237.2 306.57 236.57 305.08L233.33 306.06C233.65 307.76 233.95 309.26 234.25 310.61C234.4 311.33 234.01 312.01 233.31 312.22ZM227.43 312.24L232.55 310.7C232.24 309.23 231.95 307.8 231.63 306.11L231.56 305.72C231.46 305.22 231.72 304.79 232.22 304.64L236.72 303.28C237.22 303.13 237.67 303.34 237.87 303.82L238.02 304.19C238.67 305.75 239.22 307.11 239.78 308.51L244.91 306.97C242.22 300.59 236.73 289.12 232.97 282.04L223.7 284.84C224.58 293.35 226.29 305.95 227.43 312.24Z" fill="#1E150F"/>
<path d="M263 432.83L265.42 441.33L260.92 442.17L260.58 447.5L265.42 448.33L264.75 455.33L260.75 454.17L258.75 459.33L263.42 461.33L260.25 469.33L256.25 467.67L253.42 472L257.58 475L253.25 480.5L249.58 478.17L246.42 481.5L249.92 484.83L244.42 489.67L241.25 485L236.75 488.33L238.75 493.33L230.75 496.33L229.25 491.83L224.92 493.17L225.42 498.5L218.08 499.67L217.75 494.67L212.42 494.33L210.75 499.17L204.75 497.5L206.42 493.33L203.08 491.83L200.08 495.83L194.58 492.5L196.58 488.17L193.42 486.17L190.92 489.5L186.25 484.67L188.92 480.67L186.08 477.83L182.42 480.17L177.92 474.17L181.25 471.17L179.58 467.33L174.75 468.17L173.75 462L178.25 461.17L177.75 456.33L173.25 455.83L173.42 450.33L178.08 450.17L178.25 444.5L174.42 443.5L175.42 437.17L179.42 437.83L180.25 433.17L177.25 431.5L179.58 426.67L182.42 428.33L185.25 424L182.25 421L185.25 417.17L187 418.5L188.08 419.33L191.58 416.17L189.92 413.17L194.25 409.83L196.75 412.17L200.42 409.83L199.92 406.5L206.42 405.17L207.58 408.5L210.92 407.67L211.42 403.67L218.42 404.17L218.75 407.67L224.92 408.67L226.42 405.17L232.58 407.17L231.42 410.08L237.67 412.92L239.58 409.67L246.08 413.67L244.25 417.25L249.67 421L253.58 418.5L258 425.17L255.42 427.58L258.5 433.67L263 432.83ZM255.5 450.92C255.5 430.99 239.34 414.83 219.42 414.83C199.5 414.83 183.33 430.99 183.33 450.92C183.33 470.85 199.49 487 219.42 487C239.35 487 255.5 470.84 255.5 450.92Z" fill="#6D6E71"/>
<path d="M232.969 282.04C236.729 289.12 242.219 300.59 244.909 306.97L239.779 308.51C239.219 307.11 238.669 305.75 238.019 304.19L237.869 303.82C237.669 303.34 237.219 303.13 236.719 303.28L232.219 304.64C231.719 304.79 231.459 305.22 231.559 305.72L231.629 306.11C231.949 307.8 232.239 309.23 232.549 310.7L227.429 312.24C226.289 305.95 224.579 293.35 223.699 284.84L232.969 282.04ZM235.379 298.72C235.449 298.56 235.509 298.3 235.359 297.97C233.959 294.77 232.729 292.04 231.139 288.55C230.979 288.2 230.629 288.04 230.259 288.15L229.289 288.45C228.919 288.56 228.709 288.89 228.779 289.27C229.449 293.31 229.809 295.45 230.089 297.2L230.469 299.45C230.519 299.81 230.709 299.99 230.859 300.09C231.009 300.18 231.259 300.27 231.609 300.16L234.799 299.2C234.909 299.16 235.009 299.11 235.079 299.06C235.239 298.96 235.329 298.83 235.379 298.72Z" fill="white"/>
<path d="M231.01 292.33C231.9 294.29 232.71 296.11 233.47 297.85L231.98 298.3C231.65 296.3 231.33 294.3 231.01 292.33Z" fill="#386B45"/>
<path d="M187.25 418.17L182.58 403.58V403.53C186.04 404.23 190.62 403.15 195.08 402.33C198.62 401.68 219.99 396.1 227.75 396C233.92 395.92 246.58 398.83 256.08 410.33C261.79 417.25 270.33 432.5 273.42 441.33C273.81 442.44 274.26 443.45 274.77 444.35L265.42 448.33L260.58 447.5L260.92 442.17L265.42 441.33L263 432.83L258.5 433.67L255.42 427.58L258 425.17L253.58 418.5L249.67 421L244.25 417.25L246.08 413.67L239.58 409.67L237.67 412.92L231.42 410.08L232.58 407.17L226.42 405.17L224.92 408.67L218.75 407.67L218.42 404.17L211.42 403.67L210.92 407.67L207.58 408.5L206.42 405.17L199.92 406.5L200.42 409.83L196.75 412.17L194.25 409.83L189.92 413.17L191.58 416.17L188.08 419.33L187 418.5L187.25 418.17Z" fill="#386B45"/>
<path d="M262.91 313.1C267.45 321.62 273.14 333.81 275.21 338.8C275.36 339.16 275.35 339.54 275.2 339.87C275.09 340.09 274.93 340.27 274.73 340.4C274.61 340.48 274.48 340.55 274.33 340.59L268.59 342.32C267.89 342.54 267.19 342.19 266.92 341.51C266.39 340.14 265.8 338.7 265.18 337.2L261.93 338.18C262.25 339.87 262.55 341.36 262.85 342.73C263.01 343.45 262.61 344.13 261.91 344.34L256.18 346.07C255.78 346.19 255.38 346.15 255.05 345.95C254.82 345.8 254.64 345.59 254.53 345.33C254.49 345.24 254.47 345.15 254.45 345.05C253.64 340.69 252.3 331.44 251.29 323.05C251.04 320.89 250.8 318.78 250.6 316.83C250.53 316.18 250.91 315.62 251.53 315.44L261.37 312.47C261.99 312.28 262.61 312.54 262.91 313.1ZM252.3 316.96C253.18 325.47 254.9 338.07 256.03 344.36L261.15 342.82C260.84 341.37 260.56 339.95 260.24 338.23L260.16 337.85C260.07 337.33 260.32 336.91 260.82 336.76L265.33 335.4C265.82 335.25 266.27 335.47 266.47 335.94L266.63 336.32C267.27 337.87 267.83 339.23 268.38 340.64L273.51 339.09C270.82 332.71 265.33 321.24 261.57 314.16L252.3 316.96Z" fill="#1E150F"/>
<path d="M233.85 327.15L237.38 326.08C237.89 325.93 238.4 326.21 238.55 326.71L244.89 347.73L250.02 346.18L243.68 325.16C243.52 324.65 243.79 324.15 244.3 323.99L247.83 322.93L246.55 318.69L232.58 322.91L233.85 327.15ZM230.87 323.08C230.63 322.29 230.98 321.64 231.77 321.4L246.38 316.99C246.87 316.84 247.22 316.94 247.43 317.05C247.64 317.16 247.91 317.4 248.06 317.89L249.53 322.76C249.58 322.94 249.61 323.1 249.61 323.24C249.61 323.49 249.54 323.68 249.47 323.81C249.36 324.02 249.12 324.29 248.63 324.44L245.5 325.39L251.72 346.01C251.87 346.5 251.77 346.85 251.66 347.06C251.59 347.19 251.47 347.35 251.26 347.49C251.15 347.56 251 347.63 250.82 347.69L245.06 349.43C244.27 349.67 243.62 349.32 243.38 348.53L237.16 327.9L234.02 328.85C233.53 329 233.18 328.9 232.98 328.79C232.77 328.68 232.49 328.44 232.34 327.95L230.87 323.08Z" fill="#1E150F"/>
<path d="M206.99 352.7L202.67 338.4L203.33 338.2C203.94 338.02 204.48 338.09 204.93 338.41C206.14 339.25 207 341.84 207.85 344.64C208.75 347.61 209.27 349.86 208.94 351.2C208.74 351.89 208.35 352.29 207.65 352.51L206.99 352.7Z" fill="#386B45"/>
<path d="M273.51 339.09L268.38 340.64C267.83 339.23 267.27 337.87 266.63 336.32L266.47 335.94C266.27 335.47 265.82 335.25 265.33 335.4L260.82 336.76C260.32 336.91 260.07 337.33 260.16 337.85L260.24 338.23C260.56 339.95 260.84 341.37 261.15 342.82L256.03 344.36C254.9 338.07 253.18 325.47 252.3 316.96L261.57 314.16C265.33 321.24 270.82 332.71 273.51 339.09ZM263.98 330.84C264.06 330.69 264.11 330.43 263.97 330.09C262.56 326.9 261.34 324.17 259.74 320.67C259.58 320.32 259.23 320.17 258.87 320.27L257.88 320.57C257.52 320.68 257.32 321.01 257.38 321.4C258.09 325.66 258.45 327.8 258.74 329.61L259.07 331.58C259.13 331.93 259.32 332.12 259.46 332.21C259.61 332.3 259.86 332.39 260.22 332.28L263.4 331.32C263.52 331.28 263.61 331.24 263.69 331.19C263.85 331.08 263.94 330.95 263.98 330.84Z" fill="white"/>
<path d="M254.72 288.08C258.5 290.11 260.35 291.55 261.3 294.7C262.65 299.18 261.83 302.35 258.7 304.44C257.68 305.12 256.41 305.69 254.89 306.15C252.73 306.8 250.4 307.27 248.49 307.45C247.76 307.54 247.2 307.12 247.02 306.32L245.96 301.46C245.87 301.05 245.94 300.67 246.15 300.38C246.37 300.09 246.72 299.91 247.14 299.88C248.25 299.81 249.29 299.62 250.3 299.31C252.95 298.51 252.65 297.54 252.54 297.17C252.26 296.24 251.74 295.85 248.23 293.97C243.92 291.66 242.2 289.74 241.13 286.08C240.31 283.18 240.52 280.89 241.79 279.06C242.94 277.39 244.97 276.17 247.98 275.31C249.66 274.85 251.28 274.56 252.78 274.45C253.48 274.41 253.95 274.71 254.17 275.31C254.2 275.39 254.22 275.48 254.24 275.57L255.23 280.19C255.32 280.6 255.25 280.99 255.03 281.28C254.81 281.57 254.47 281.74 254.05 281.77C253.15 281.85 252.43 281.96 251.93 282.11C251.2 282.33 250.69 282.58 250.34 282.87C249.9 283.25 249.77 283.67 249.94 284.23C250.25 285.24 250.41 285.77 254.72 288.08ZM254.4 304.54C257.05 303.74 258.75 302.63 259.59 301.15C260.42 299.67 260.45 297.72 259.69 295.19C258.97 292.78 257.78 291.63 253.93 289.56C249.99 287.45 248.93 286.66 248.34 284.71C248 283.59 247.95 281.56 251.44 280.51C251.96 280.35 252.64 280.23 253.5 280.14L252.64 276.15C251.25 276.27 249.91 276.52 248.42 276.93C245.74 277.7 243.99 278.75 243.08 280.14C242.2 281.52 242.09 283.31 242.75 285.62C243.68 288.84 245.09 290.38 249.02 292.49C252.75 294.49 253.67 295.12 254.15 296.68C254.44 297.65 254.26 298.56 253.64 299.3C253.06 299.98 252.1 300.52 250.79 300.92C249.77 301.23 248.81 301.41 247.69 301.52L248.62 305.75C250.45 305.55 252.49 305.12 254.4 304.54Z" fill="#1E150F"/>
<path d="M229.57 328.44L228.29 324.2L215.82 327.97L223.71 354.12L236.59 350.23L235.31 346L228.45 348.07C228.21 348.14 227.96 348.12 227.74 348C227.53 347.88 227.37 347.69 227.29 347.44L225.73 342.26C225.66 342.02 225.68 341.77 225.79 341.55C225.91 341.33 226.11 341.18 226.35 341.1L232.28 339.31L231.01 335.12L225.09 336.91C224.58 337.06 224.08 336.79 223.92 336.28L222.5 331.55C222.34 331.04 222.61 330.54 223.12 330.39L229.57 328.44ZM231.27 328.27C231.42 328.76 231.32 329.11 231.21 329.32C231.1 329.53 230.86 329.8 230.37 329.95L224.32 331.78L225.31 335.08L230.84 333.42C231.64 333.17 232.28 333.52 232.52 334.32L233.98 339.14C234.22 339.94 233.87 340.58 233.08 340.82L227.55 342.49L228.68 346.24L235.14 344.29C235.63 344.14 235.98 344.25 236.19 344.36C236.4 344.47 236.68 344.7 236.82 345.19L238.29 350.06C238.44 350.55 238.34 350.9 238.23 351.11C238.16 351.24 238.04 351.4 237.83 351.54C237.72 351.62 237.57 351.69 237.39 351.74L223.88 355.82C223.08 356.06 222.44 355.72 222.2 354.92L214.11 328.14C213.97 327.65 214.07 327.3 214.18 327.09C214.29 326.88 214.53 326.61 215.01 326.46L228.12 322.5C228.92 322.26 229.56 322.61 229.8 323.4L231.27 328.27Z" fill="#1E150F"/>
<path d="M194.14 322.29L199.26 320.74L192.92 299.72C192.77 299.22 193.03 298.71 193.54 298.56L197.07 297.49L195.79 293.26L181.82 297.48L183.1 301.71L186.63 300.65C186.87 300.57 187.12 300.6 187.34 300.71C187.56 300.83 187.72 301.03 187.79 301.27L194.14 322.29ZM200.97 320.57C201.11 321.06 201.01 321.42 200.9 321.62C200.83 321.75 200.71 321.91 200.5 322.05C200.39 322.13 200.24 322.2 200.06 322.25L194.3 323.99C193.51 324.23 192.86 323.89 192.62 323.09L186.4 302.47L183.27 303.42C182.47 303.65 181.82 303.31 181.58 302.51L180.12 297.65C179.97 297.15 180.07 296.8 180.18 296.6C180.29 296.39 180.52 296.12 181.02 295.96L195.62 291.56C196.12 291.41 196.47 291.51 196.67 291.62C196.88 291.73 197.16 291.97 197.3 292.46L198.77 297.33C199.01 298.12 198.66 298.77 197.87 299.01L194.74 299.95L200.97 320.57Z" fill="#1E150F"/>
<path d="M217.75 306.31L223.71 313.36L218.87 314.82L213.64 307.52C213.42 307.2 213.03 307.07 212.66 307.18L211.36 307.57C211.12 307.65 210.92 307.81 210.8 308.02C210.69 308.24 210.66 308.49 210.74 308.74L213.1 316.57L207.97 318.11L200.08 291.96L206.9 289.9C211.09 288.64 213.33 288.46 214.89 289.25C216.45 290.04 217.52 291.89 218.72 295.87C220.18 300.7 220.07 302.97 218.3 304.54L217.8 305.01C217.43 305.36 217.41 305.91 217.75 306.31ZM213.81 301.21C214.2 300.34 214.13 299.2 213.59 297.41C212.53 293.91 211.28 293.12 208.24 294.04L207.35 294.3C207.11 294.38 206.91 294.54 206.8 294.75C206.68 294.97 206.66 295.22 206.73 295.46L208.96 302.83C209.11 303.34 209.61 303.61 210.12 303.46L211 303.19C211.75 302.96 212.33 302.71 212.78 302.41C213.28 302.08 213.61 301.69 213.81 301.21Z" fill="white"/>
<path d="M268.87 269.44L274.63 267.71C275.12 267.56 275.47 267.66 275.68 267.77C275.88 267.88 276.16 268.12 276.31 268.61L284.39 295.39C284.54 295.88 284.44 296.23 284.33 296.44C284.26 296.57 284.14 296.73 283.93 296.87C283.82 296.94 283.67 297.02 283.49 297.07L277.73 298.81C277.24 298.96 276.89 298.86 276.68 298.75C276.48 298.63 276.2 298.4 276.05 297.91L273.06 288L270.04 288.91L273.03 298.82C273.18 299.31 273.08 299.66 272.97 299.87C272.86 300.07 272.62 300.35 272.13 300.5L266.37 302.24C265.57 302.48 264.93 302.13 264.69 301.34L262.57 294.32L256.6 274.57C256.46 274.07 256.56 273.71 256.67 273.51C256.78 273.3 257.01 273.03 257.51 272.88L263.27 271.14C263.76 270.99 264.11 271.09 264.31 271.2C264.52 271.31 264.8 271.55 264.95 272.04L267.79 281.46L270.81 280.55L267.97 271.13C267.73 270.33 268.07 269.69 268.87 269.44ZM266.2 300.54L271.33 298.99L268.22 288.68C268.07 288.18 268.34 287.67 268.84 287.52L273.29 286.18C273.53 286.1 273.79 286.13 274 286.24C274.22 286.36 274.38 286.55 274.45 286.8L277.56 297.11L282.69 295.56L274.8 269.41L269.67 270.96L272.63 280.78C272.71 281.02 272.68 281.27 272.57 281.49C272.45 281.7 272.25 281.87 272.01 281.94L267.56 283.28C267.32 283.36 267.07 283.33 266.85 283.22C266.63 283.1 266.48 282.9 266.4 282.66L263.44 272.84L258.31 274.39L266.2 300.54Z" fill="#1E150F"/>
<path d="M276.45 338.55L268.37 311.76C268.22 311.27 268.32 310.92 268.43 310.71C268.54 310.51 268.78 310.23 269.27 310.08L275.03 308.34C275.83 308.1 276.47 308.45 276.71 309.24L284.8 336.03C284.94 336.52 284.84 336.87 284.73 337.07C284.66 337.2 284.54 337.36 284.33 337.5C284.22 337.58 284.07 337.65 283.89 337.71L278.13 339.44C277.64 339.59 277.29 339.49 277.08 339.38C276.88 339.27 276.6 339.04 276.45 338.55ZM275.2 310.04L270.07 311.59L277.96 337.74L283.09 336.19L275.2 310.04Z" fill="#1E150F"/>
<path d="M214.67 342.58C216.37 348.22 216.65 351.95 215.57 354.32C214.68 356.17 212.85 357.4 209.44 358.43L202.2 360.61L194.31 334.46L201.54 332.28C204.56 331.37 206.65 331.29 208.31 332.01C210.85 333.16 212.81 336.42 214.67 342.58ZM210.56 351.62C210.94 350.1 210.64 348.08 209.46 344.16C208.52 341.06 207.55 338.18 205.9 337.04C205.05 336.43 203.94 336.27 202.85 336.6L201.47 337.01C200.97 337.17 200.7 337.67 200.85 338.17L205.6 353.9C205.67 354.15 205.83 354.35 206.05 354.46C206.26 354.58 206.52 354.6 206.76 354.53L208.13 354.11C208.51 354 208.85 353.84 209.15 353.64C209.83 353.18 210.31 352.51 210.56 351.62Z" fill="white"/>
<path d="M208.94 351.2C209.27 349.86 208.75 347.61 207.85 344.64C207 341.84 206.14 339.25 204.93 338.41C204.48 338.09 203.94 338.02 203.33 338.2L202.67 338.4L206.99 352.7L207.65 352.51C208.35 352.29 208.74 351.89 208.94 351.2ZM205.6 353.9L200.85 338.17C200.7 337.67 200.97 337.17 201.47 337.01L202.85 336.6C203.94 336.27 205.05 336.43 205.9 337.04C207.55 338.18 208.52 341.06 209.46 344.16C210.64 348.08 210.94 350.1 210.56 351.62C210.31 352.51 209.83 353.18 209.15 353.64C208.85 353.84 208.51 354 208.13 354.11L206.76 354.53C206.52 354.6 206.26 354.58 206.05 354.46C205.83 354.35 205.67 354.15 205.6 353.9Z" fill="#1E150F"/>
<path d="M289.92 220.75C289.92 220.75 329.26 360.28 330.08 362.67C330.8 364.76 330.95 368.81 329.89 371.99C329.6 372.85 329.23 373.65 328.75 374.33C323.5 381.83 320.08 386.92 322.83 397.25C323.43 399.51 330.75 428.17 331.08 429.67C331.22 430.27 331.3 431.08 331.15 431.93C330.94 433.19 330.22 434.53 328.42 435.33C325.42 436.67 287.37 449.17 285.75 449.67C281.62 450.93 277.44 449.09 274.77 444.35C274.26 443.45 273.81 442.44 273.42 441.33C270.33 432.5 261.79 417.25 256.08 410.33C246.58 398.83 233.92 395.92 227.75 396C219.99 396.1 198.62 401.68 195.08 402.33C190.62 403.15 186.04 404.23 182.59 403.53C180.43 403.11 178.71 401.98 177.75 399.67C175.25 393.67 148.75 305.67 148.75 305.67" stroke="#1E150F" stroke-width="2" stroke-miterlimit="10"/>
<path d="M284.14 202.12C285.12 201.83 285.68 201.68 285.75 201.67C287.17 201.5 289 200.67 290.08 202.33C291.17 204 294.08 215.67 294.08 215.67C294.25 216.58 294.25 218.92 292.58 219.83C292.43 219.91 291.5 220.22 289.91 220.72C273.57 225.85 188.09 250.99 183.25 252.42C173.67 255.25 168.05 259.89 166.08 264.83C163.5 271.33 164 274.75 166.58 290.33C167.8 297.67 167.33 299.58 164.5 300.67C162.19 301.55 152.83 304.54 148.74 305.61C147.82 305.86 147.16 306 146.92 306C145.58 306 144 305.5 142.92 302C141.83 298.5 134 271.25 133.83 270.92C133.67 270.58 132.75 270.08 130.92 270.83C129.08 271.58 110.06 277.06 108.33 277.67C106.67 278.25 104.33 278.83 102.42 272.42C101.45 269.18 99.7495 263.5 99.7495 262.67C99.7495 262.19 99.4795 260.78 100.26 259.29C100.85 258.17 102.05 257 104.42 256.17C105.8 255.69 117.73 252.05 134.88 246.86C135.45 246.69 136.04 246.51 136.63 246.33C184.84 231.76 271.3 205.81 284.14 202.12Z" stroke="#1E150F" stroke-width="2" stroke-miterlimit="10"/>
<path d="M284.42 202.5C284.42 202.5 284.32 202.36 284.14 202.12C282.93 200.51 278.11 194.27 275.5 193.83C272.5 193.33 146.08 230.33 143.75 231.5C141.42 232.67 136.67 244.33 136.58 246.17" stroke="#1E150F" stroke-width="2" stroke-miterlimit="10"/>
<path d="M329.92 372C329.92 372 343.83 419.33 344.42 421.5C345 423.67 343.83 427.42 341.75 428.33C339.67 429.25 331.58 432 331.58 432" stroke="#1E150F" stroke-width="2" stroke-miterlimit="10"/>
<path d="M265.42 448.33L260.58 447.5L260.92 442.17L265.42 441.33L263 432.83L258.5 433.67L255.42 427.58L258 425.17L253.58 418.5L249.67 421L244.25 417.25L246.08 413.67L239.58 409.67L237.67 412.92L231.42 410.08L232.58 407.17L226.42 405.17L224.92 408.67L218.75 407.67L218.42 404.17L211.42 403.67L210.92 407.67L207.58 408.5L206.42 405.17L199.92 406.5L200.42 409.83L196.75 412.17L194.25 409.83L189.92 413.17L191.58 416.17L188.08 419.33L187 418.5L185.25 417.17L182.25 421L185.25 424L182.42 428.33L179.58 426.67L177.25 431.5L180.25 433.17L179.42 437.83L175.42 437.17L174.42 443.5L178.25 444.5L178.08 450.17L173.42 450.33L173.25 455.83L177.75 456.33L178.25 461.17L173.75 462L174.75 468.17L179.58 467.33L181.25 471.17L177.92 474.17L182.42 480.17L186.08 477.83L188.92 480.67L186.25 484.67L190.92 489.5L193.42 486.17L196.58 488.17L194.58 492.5L200.08 495.83L203.08 491.83L206.42 493.33L204.75 497.5L210.75 499.17L212.42 494.33L217.75 494.67L218.08 499.67L225.42 498.5L224.92 493.17L229.25 491.83L230.75 496.33L238.75 493.33L236.75 488.33L241.25 485L244.42 489.67L249.92 484.83L246.42 481.5L249.58 478.17L253.25 480.5L257.58 475L253.42 472L256.25 467.67L260.25 469.33L263.42 461.33L258.75 459.33L260.75 454.17L264.75 455.33L265.42 448.33Z" stroke="#1E150F" stroke-width="2" stroke-miterlimit="10"/>
<path d="M183.33 450.92C183.33 470.84 199.49 487 219.42 487C239.35 487 255.5 470.84 255.5 450.92C255.5 431 239.34 414.83 219.42 414.83C199.5 414.83 183.33 430.99 183.33 450.92Z" stroke="#1E150F" stroke-miterlimit="10"/>
<path d="M219.58 471.83C231.454 471.83 241.08 462.204 241.08 450.33C241.08 438.456 231.454 428.83 219.58 428.83C207.705 428.83 198.08 438.456 198.08 450.33C198.08 462.204 207.705 471.83 219.58 471.83Z" stroke="#1E150F" stroke-miterlimit="10"/>
<path d="M204.17 450.42C204.17 458.93 211.07 465.83 219.58 465.83C228.09 465.83 235 458.93 235 450.42C235 441.91 228.1 435 219.58 435C211.06 435 204.17 441.9 204.17 450.42Z" stroke="#1E150F" stroke-width="2" stroke-miterlimit="10"/>
<path d="M215.37 451.58C215.65 453.91 217.76 455.57 220.09 455.29C222.42 455.01 224.07 452.9 223.8 450.57C223.52 448.24 221.4 446.58 219.08 446.86C216.75 447.14 215.09 449.26 215.37 451.58Z" stroke="#1E150F" stroke-width="2" stroke-miterlimit="10"/>
<path d="M275 444.25L274.77 444.35L265.42 448.33" stroke="#1E150F" stroke-width="2" stroke-miterlimit="10"/>
<path d="M187.25 418.17L182.58 403.58" stroke="#1E150F" stroke-width="2" stroke-miterlimit="10"/>
<path d="M102.26 476.97L102.19 476.77C101.16 472.69 99.4096 468.55 96.0096 466.07C92.6096 463.59 87.2296 463.5 84.6296 466.81C82.3196 469.76 82.9696 474.05 84.2596 477.58C79.7896 473.74 72.9896 472.94 67.7496 475.62C65.7896 476.63 64.0196 478.11 62.8896 480C60.9996 483.2 61.1496 487.5 63.2596 490.55C65.3696 493.61 69.3296 495.26 72.9896 494.62C64.1496 498.98 58.8696 510.59 63.5696 519.25C64.2196 520.46 68.2396 526.17 74.7196 522.9C78.8596 520.82 81.9396 516.64 82.3196 512.01C83.0296 521.27 91.0596 529.41 100.31 530.24C105.17 530.68 111.15 529.41 113.28 525.03C115.28 520.92 113.32 514.44 111.47 512.49C114.78 515.5 120.95 514.11 122.95 510.05C125.03 505.84 122.68 500.25 118.43 498.27L117.99 497.81L141.88 474.92C140.1 472.89 138.2 469.77 136.5 465.99L102.26 476.98V476.97Z" fill="white"/>
<path d="M135.52 440.69L136.42 440.49C135.45 439.74 134.55 439.39 133.79 439.52L133.48 439.59C130.35 440.67 130.72 450.01 134.31 460.46C134.98 462.42 135.73 464.27 136.5 465.99L140.94 464.57L135.52 440.69Z" fill="#6D6E71"/>
<path d="M133.79 439.52C134.55 439.38 135.45 439.74 136.42 440.49C139.4 442.8 143.04 448.92 145.65 456.56C146.36 458.6 146.93 460.6 147.39 462.51C147.91 464.73 148.27 466.81 148.45 468.68C148.9 473.16 148.35 476.41 146.78 477.3L174.46 464.98L173.48 462.67L165.94 463.88L164.48 454.25L171.51 453.02L170.82 445.49L163.81 444.63L164.16 436.07L163.38 432.72L133.79 439.53V439.52Z" fill="#BCBEC0"/>
<path d="M135.52 440.69L140.94 464.57L147.39 462.5C146.93 460.59 146.36 458.59 145.65 456.55C143.04 448.91 139.4 442.8 136.42 440.48L135.52 440.68V440.69Z" fill="#6D6E71"/>
<path d="M140.94 464.57L136.5 465.99C138.2 469.77 140.09 472.89 141.88 474.92L148.4 468.67H148.45C148.27 466.8 147.91 464.72 147.39 462.5L140.94 464.57Z" fill="white"/>
<path d="M148.4 468.67L141.88 474.92C143.61 476.89 145.23 477.86 146.48 477.43C146.59 477.39 146.68 477.35 146.78 477.29C148.36 476.41 148.9 473.15 148.45 468.67H148.4Z" fill="#6D6E71"/>
<path d="M163.38 432.71L164.15 436.06L171.42 435.88L171.63 430.83H171.56L163.38 432.71Z" fill="#BCBEC0"/>
<path d="M174.46 464.96L176.01 468.64L170.77 473.26L177.69 482.68L183.44 479.11L187.81 483.56L183.59 489.75L190.78 497.35L194.73 492.2L199.63 495.37L196.44 502.08L204.95 507.36L209.69 501.18L214.85 503.58L212.2 510.03L221.51 512.73L224.19 505.23L232.48 505.84L232.92 513.64L244.37 511.94L243.68 503.62L250.45 501.62L252.72 508.66L265.22 504.11L262.2 496.3L269.27 491.18L274.12 498.49L282.77 491.06L277.38 485.82L282.36 480.67L288.04 484.36L294.87 475.88L288.43 471.13L292.92 464.43L299.11 467.08L304.17 454.68L296.94 451.49L300.14 443.47L306.35 445.35L307.51 434.46L299.99 433.08L300.6 424.77L307.61 423.54L303.99 410.27L296.98 411.5L292.27 401.97L296.34 398.25L289.56 387.79L283.42 391.62L275.05 385.68L277.96 380.14L267.91 373.8L264.86 378.84L255.18 374.32L257.05 369.8L247.48 366.57L245.08 372L235.48 370.34L235.03 364.88L224.12 363.98L223.28 370.2L218.08 371.45L216.32 366.24L206.16 368.21L206.88 373.41L201.13 376.98L197.28 373.3L190.47 378.42L193.02 383.12L187.52 387.99L183.14 384.57L178.4 390.49L183.03 395.21L178.55 401.91L174.15 399.27L170.45 406.76L175.09 409.41L173.71 416.65L167.49 415.55L165.83 425.41L171.78 427.03L171.63 430.8L171.43 435.85L164.16 436.03L163.81 444.59L170.82 445.45L171.51 452.98L164.48 454.21L165.94 463.84L173.48 462.63L174.46 464.94V464.96ZM235.19 493.93C204.15 493.6 179.26 468.17 179.59 437.13C179.92 406.09 205.35 381.19 236.39 381.53C267.43 381.86 292.33 407.29 291.99 438.33C291.66 469.37 266.23 494.26 235.19 493.93Z" fill="#6D6E71"/>
<path d="M179.59 437.13C179.26 468.17 204.15 493.6 235.19 493.93C266.23 494.26 291.66 469.37 291.99 438.33C292.33 407.29 267.43 381.86 236.39 381.53C205.35 381.19 179.92 406.09 179.59 437.13ZM235.71 470.31C217.21 470.12 202.38 454.97 202.57 436.46C202.77 417.97 217.93 403.13 236.42 403.34C254.92 403.53 269.75 418.68 269.56 437.17C269.36 455.67 254.2 470.5 235.71 470.31Z" fill="#6D6E71"/>
<path d="M202.57 436.47C202.38 454.97 217.21 470.13 235.71 470.32C254.2 470.51 269.35 455.68 269.56 437.18C269.75 418.69 254.92 403.54 236.42 403.35C217.93 403.15 202.78 417.99 202.57 436.47ZM235.81 460.97C222.55 460.82 211.92 449.96 212.05 436.69C212.19 423.43 223.05 412.8 236.33 412.93C249.59 413.07 260.22 423.93 260.09 437.21C259.94 450.47 249.08 461.1 235.81 460.97Z" fill="#6D6E71"/>
<path d="M212.05 436.7C211.91 449.96 222.55 460.83 235.81 460.98C249.07 461.12 259.94 450.48 260.09 437.22C260.23 423.95 249.59 413.08 236.33 412.94C223.06 412.8 212.19 423.44 212.05 436.7ZM229.48 438.7C229.09 435.08 231.71 431.81 235.33 431.42C238.97 431.03 242.23 433.64 242.63 437.27C243.02 440.89 240.4 444.16 236.78 444.55C233.14 444.94 229.89 442.33 229.48 438.7Z" fill="#BCBEC0"/>
<path d="M235.33 431.41C231.71 431.8 229.08 435.07 229.48 438.69C229.89 442.33 233.14 444.94 236.78 444.54C240.4 444.15 243.03 440.88 242.63 437.26C242.24 433.62 238.97 431.01 235.33 431.41Z" fill="#939598"/>
<path d="M133.79 439.52C134.55 439.38 135.45 439.74 136.42 440.49C139.4 442.8 143.04 448.92 145.65 456.56C146.36 458.6 146.93 460.6 147.39 462.51C147.91 464.73 148.27 466.81 148.45 468.68C148.9 473.16 148.35 476.41 146.78 477.3C144 478.5 142.4 476.6 142 475" stroke="#231F20" stroke-width="2" stroke-miterlimit="10"/>
<path d="M136.5 465.98C135.72 464.26 134.98 462.41 134.31 460.45C130.72 449.99 130.35 440.65 133.48 439.58" stroke="#231F20" stroke-width="2" stroke-miterlimit="10"/>
<path d="M133.48 439.58L133.79 439.52L163.38 432.71L171.56 430.83" stroke="#231F20" stroke-width="2" stroke-miterlimit="10"/>
<path d="M146.48 477.42C146.59 477.38 146.68 477.34 146.78 477.28L174.46 464.96" stroke="#231F20" stroke-width="2" stroke-miterlimit="10"/>
<path d="M137.56 458.75C135.82 454.5 134.14 447.83 135.48 440.49" stroke="#231F20" stroke-width="2" stroke-miterlimit="10"/>
<path d="M143.65 461.99C140.74 457.42 138.57 449.16 139.4 444.25" stroke="#231F20" stroke-width="2" stroke-miterlimit="10"/>
<path d="M111.46 512.48C114.77 515.49 120.94 514.1 122.94 510.04C125.02 505.83 122.67 500.24 118.42 498.26" stroke="#231F20" stroke-width="2" stroke-miterlimit="10"/>
<path d="M102.19 476.77C101.16 472.69 99.4096 468.55 96.0096 466.07C92.6096 463.59 87.2296 463.5 84.6296 466.81C82.3196 469.76 82.9696 474.05 84.2596 477.58C79.7896 473.74 72.9896 472.94 67.7496 475.62C65.7896 476.63 64.0196 478.11 62.8896 480C60.9996 483.2 61.1496 487.5 63.2596 490.55C65.3696 493.61 69.3296 495.26 72.9896 494.62C64.1496 498.98 58.8696 510.59 63.5696 519.25C64.2196 520.46 68.2396 526.17 74.7196 522.9C78.8596 520.82 81.9396 516.64 82.3196 512.01C83.0296 521.27 91.0596 529.41 100.31 530.24C105.17 530.68 111.15 529.41 113.28 525.03C115.28 520.92 113.32 514.44 111.47 512.49C111.36 512.39 111.25 512.3 111.16 512.19" stroke="#231F20" stroke-width="2" stroke-miterlimit="10"/>
<path d="M148.4 468.67L141.88 474.91L117.98 497.8L114.81 500.84" stroke="#231F20" stroke-width="2" stroke-miterlimit="10"/>
<path d="M147.389 462.5L140.939 464.57L136.499 465.98L102.259 476.97L97.2295 478.58" stroke="#231F20" stroke-width="2" stroke-miterlimit="10"/>
<path d="M135.15 472.16L93.8196 489.17" stroke="#231F20" stroke-width="2" stroke-miterlimit="10"/>
<path d="M126.15 481.33L98.8096 504.17" stroke="#231F20" stroke-width="2" stroke-miterlimit="10"/>
<path d="M111.48 487.33L96.8096 494.33" stroke="#231F20" stroke-width="2" stroke-miterlimit="10"/>
<path d="M174.46 464.96L176.01 468.64L170.77 473.25L177.68 482.67L183.43 479.11L187.8 483.56L183.58 489.75L190.77 497.35L194.72 492.21L199.62 495.38L196.43 502.09L204.94 507.37L209.68 501.19L214.84 503.59L212.18 510.04L221.5 512.74L224.18 505.23L232.47 505.85L232.91 513.65L244.36 511.95L243.66 503.63L250.43 501.63L252.7 508.67L265.2 504.12L262.18 496.3L269.24 491.18L274.09 498.5L282.74 491.06L277.35 485.82L282.33 480.67L288.01 484.36L294.84 475.88L288.4 471.13L292.89 464.43L299.09 467.09L304.15 454.68L296.92 451.5L300.12 443.48L306.33 445.36L307.49 434.46L299.97 433.09L300.59 424.78L307.6 423.56L303.98 410.28L296.96 411.51L292.25 401.98L296.32 398.26L289.54 387.81L283.4 391.63L275.03 385.7L277.94 380.15L267.9 373.81L264.85 378.85L255.17 374.33L257.03 369.81L247.46 366.58L245.06 372.01L235.47 370.35L235.02 364.89L224.11 363.99L223.27 370.22L218.07 371.47L216.31 366.25L206.15 368.23L206.87 373.43L201.13 377L197.28 373.32L190.47 378.44L193.01 383.14L187.51 388.01L183.13 384.59L178.39 390.52L183.02 395.24L178.54 401.94L174.14 399.3L170.44 406.79L175.08 409.44L173.71 416.68L167.49 415.58L165.83 425.44L171.78 427.06L171.63 430.83L171.42 435.88L164.15 436.06L163.8 444.62L170.81 445.48L171.5 453.01L164.48 454.23L165.94 463.86L173.48 462.65L174.46 464.96Z" stroke="#231F20" stroke-width="2" stroke-miterlimit="10"/>
<path d="M179.59 437.13C179.26 468.17 204.15 493.6 235.19 493.93C266.23 494.26 291.66 469.37 291.99 438.33C292.33 407.29 267.43 381.86 236.39 381.53C205.35 381.19 179.92 406.09 179.59 437.13Z" stroke="#231F20" stroke-miterlimit="10"/>
<path d="M202.57 436.47C202.38 454.97 217.21 470.13 235.71 470.32C254.2 470.51 269.35 455.68 269.56 437.18C269.75 418.69 254.92 403.54 236.42 403.35C217.93 403.15 202.78 417.99 202.57 436.47Z" stroke="#231F20" stroke-miterlimit="10"/>
<path d="M212.05 436.7C211.91 449.96 222.55 460.83 235.81 460.98C249.07 461.12 259.94 450.48 260.09 437.22C260.23 423.95 249.59 413.08 236.33 412.94C223.06 412.8 212.19 423.44 212.05 436.7Z" stroke="#231F20" stroke-width="2" stroke-miterlimit="10"/>
<path d="M229.48 438.7C229.89 442.34 233.14 444.95 236.78 444.55C240.4 444.16 243.03 440.89 242.63 437.27C242.24 433.63 238.97 431.02 235.33 431.42C231.71 431.81 229.08 435.08 229.48 438.7Z" stroke="#231F20" stroke-width="2" stroke-miterlimit="10"/>
</svg>
