<svg width="24" height="25" viewBox="0 0 24 25" fill="none" xmlns="http://www.w3.org/2000/svg">
<path d="M9.02441 22.1744C9.81404 22.7912 10.8568 23.1662 11.9999 23.1662C13.143 23.1662 14.1858 22.7912 14.9754 22.1744" stroke="#006B00" stroke-width="2" stroke-linecap="round" stroke-linejoin="round"/>
<path d="M12.0003 2.83398C12.3806 2.83398 12.7544 2.86097 13.1194 2.91406C13.042 3.26377 13.0003 3.62698 13.0003 4C13.0003 6.76142 15.2389 9 18.0003 9C18.4685 8.99996 18.9211 8.93385 19.3509 8.81348C19.4231 9.21659 19.4642 9.63064 19.4642 10.0537C19.4643 11.0855 19.5258 12.0552 20.1478 12.9443C20.6227 13.6149 21.2633 14.3023 21.3929 15.127C21.6035 16.4687 20.6606 17.4001 19.5062 17.8643C15.08 19.6439 8.92063 19.6439 4.49445 17.8643C3.34005 17.4001 2.39711 16.4687 2.60773 15.127C2.73735 14.3023 3.37799 13.6149 3.85284 12.9443C4.47482 12.0552 4.53732 11.0855 4.53741 10.0537C4.53741 6.06628 7.87843 2.834 12.0003 2.83398Z" fill="#006B00"/>
<circle cx="18" cy="4" r="4" fill="#FF0004"/>
</svg>
