<svg width="25" height="25" viewBox="0 0 25 25" fill="none" xmlns="http://www.w3.org/2000/svg">
<path d="M17 20.53V21.6729M17 20.53C15.9878 20.53 15.0961 20.025 14.573 19.2581M17 20.53C18.0122 20.53 18.9039 20.025 19.427 19.2581M14.573 19.2581L13.5004 19.9586M14.573 19.2581C14.2637 18.8045 14.0833 18.2593 14.0833 17.6729C14.0833 17.0865 14.2636 16.5414 14.5729 16.0879M19.427 19.2581L20.4996 19.9586M19.427 19.2581C19.7363 18.8045 19.9167 18.2593 19.9167 17.6729C19.9167 17.0865 19.7364 16.5414 19.4271 16.0879M17 14.8158C18.0123 14.8158 18.9041 15.3209 19.4271 16.0879M17 14.8158C15.9877 14.8158 15.0959 15.3209 14.5729 16.0879M17 14.8158V13.6729M19.4271 16.0879L20.5 15.3872M14.5729 16.0879L13.5 15.3872" stroke="#222222" stroke-width="1.5" stroke-linecap="round"/>
<path d="M4.5 3.67285H20.5" stroke="#222222" stroke-width="1.5" stroke-linecap="round"/>
<path d="M4.5 9.67285H20.5" stroke="#222222" stroke-width="1.5" stroke-linecap="round"/>
<path d="M4.5 15.6729H9.5" stroke="#222222" stroke-width="1.5" stroke-linecap="round"/>
</svg>
