<svg width="25" height="25" viewBox="0 0 25 25" fill="none" xmlns="http://www.w3.org/2000/svg">
<path d="M8.49805 16.6729H12.498M8.49805 11.6729H16.498" stroke="#386B45" stroke-width="1.5" stroke-linecap="round"/>
<path d="M8 4.17285C6.4442 4.21952 5.51661 4.39269 4.87477 5.03512C3.99609 5.91462 3.99609 7.33015 3.99609 10.1612V16.6673C3.99609 19.4984 3.99609 20.9139 4.87477 21.7934C5.75345 22.6729 7.16767 22.6729 9.99609 22.6729H14.9961C17.8245 22.6729 19.2387 22.6729 20.1174 21.7934C20.9961 20.9139 20.9961 19.4984 20.9961 16.6673V10.1612C20.9961 7.33015 20.9961 5.91462 20.1174 5.03513C19.4756 4.39269 18.548 4.21952 16.9922 4.17285" stroke="#386B45" stroke-width="1.5"/>
<path d="M7.99609 4.42285C7.99609 3.45635 8.7796 2.67285 9.74609 2.67285H15.2461C16.2126 2.67285 16.9961 3.45635 16.9961 4.42285C16.9961 5.38935 16.2126 6.17285 15.2461 6.17285H9.74609C8.7796 6.17285 7.99609 5.38935 7.99609 4.42285Z" stroke="#386B45" stroke-width="1.5" stroke-linejoin="round"/>
</svg>
