<svg width="28" height="34" viewBox="0 0 28 34" fill="none" xmlns="http://www.w3.org/2000/svg">
<path d="M14.5064 14.0953C14.346 14.0258 14.1441 14.0335 13.8523 14.1214L13.1538 14.3321L13.9161 16.8586L14.6156 16.648C14.9451 16.5485 15.1219 16.4296 15.2079 16.2509C15.3122 16.0219 15.2852 15.6615 15.1209 15.1166C14.9412 14.5214 14.7518 14.2065 14.5064 14.0953ZM13.8059 13.9659C14.1373 13.8664 14.3741 13.8606 14.5731 13.9475C14.8649 14.0789 15.0813 14.4258 15.2755 15.0702C15.4552 15.6625 15.4794 16.048 15.3538 16.3205C15.2977 16.4374 15.2146 16.533 15.0939 16.6132C14.9837 16.6876 14.8427 16.7485 14.662 16.8036L13.9325 17.0238C13.8562 17.0461 13.7934 17.0132 13.7702 16.9359L12.9895 14.3485C12.975 14.3011 12.9847 14.2673 12.9953 14.247C13.0059 14.2277 13.0291 14.2007 13.0765 14.1862L13.8059 13.9659Z" fill="#1E150F"/>
<path d="M23.2352 13.5988L23.3589 14.0085L22.2642 14.3389L21.5009 11.8124L21.9966 11.6626L22.6101 13.6935C22.6246 13.7428 22.6729 13.7689 22.7222 13.7544L23.2352 13.5988Z" fill="white"/>
<path d="M14.5461 10.5814C14.7306 10.5253 14.778 10.5234 14.8611 10.7997C14.9442 11.0741 14.8929 11.1031 14.72 11.1553L14.7036 11.1611L14.5297 10.5862L14.5461 10.5814Z" fill="#386B45"/>
<path d="M19.1722 8.54565L19.749 10.4539L19.6263 10.4906C19.5345 10.1862 19.3557 10.0471 18.9905 9.85097C18.5741 9.62778 18.5586 9.57657 18.5287 9.47899C18.5123 9.42488 18.5248 9.3843 18.5673 9.34759C18.6012 9.31957 18.6504 9.29541 18.721 9.27415C18.7693 9.25966 18.8388 9.24903 18.9258 9.2413C18.9664 9.23841 18.9992 9.22198 19.0205 9.19396C19.0417 9.16594 19.0485 9.12826 19.0398 9.08865L18.9441 8.64227C18.9422 8.63358 18.9403 8.62488 18.9374 8.61715L19.1722 8.54565Z" fill="#386B45"/>
<path d="M21.8331 1.54557C21.9278 1.51755 21.9819 1.50306 21.9887 1.50209C22.1259 1.48566 22.3027 1.40547 22.407 1.56586C22.5124 1.72721 22.7935 2.85475 22.7935 2.85475C22.8099 2.94267 22.8099 3.16875 22.6486 3.25668C22.6341 3.26441 22.5442 3.29436 22.3906 3.34267C20.8119 3.83832 12.5529 6.26731 12.0853 6.40547C11.1597 6.6789 10.6167 7.12721 10.4264 7.6045C10.1771 8.23252 10.2254 8.56296 10.4747 10.0683C10.5926 10.7774 10.5471 10.962 10.2737 11.0673C10.0505 11.1523 9.14617 11.4412 8.75101 11.5446C8.66212 11.5688 8.59835 11.5823 8.57516 11.5823C8.44569 11.5823 8.29303 11.534 8.18869 11.1958C8.08337 10.8576 7.32685 8.2248 7.31043 8.19291C7.29497 8.16006 7.20608 8.11175 7.02927 8.18421C6.85149 8.25668 5.01381 8.78615 4.84666 8.84509C4.68627 8.90112 4.46018 8.95716 4.27564 8.33784C4.18192 8.0248 4.01767 7.476 4.01767 7.39581C4.01767 7.34943 3.99159 7.2132 4.06695 7.06924C4.12395 6.96103 4.23989 6.84798 4.46888 6.76779C4.60221 6.72141 5.75487 6.36972 7.41187 5.86827C7.46695 5.85185 7.52395 5.83446 7.58096 5.81706C12.2389 4.40933 20.5926 1.90209 21.8331 1.54557Z" fill="#386B45"/>
<path d="M18.9643 15.3553C18.9662 15.365 18.9681 15.3737 18.972 15.3824L18.7005 15.4481L18.0995 13.4558L18.402 13.364C18.4493 13.3495 18.4725 13.3235 18.4831 13.3032C18.4899 13.2906 18.4966 13.2722 18.4966 13.2481L18.659 13.2297C18.7566 14.0404 18.886 14.9341 18.9643 15.3553Z" fill="#386B45"/>
<path d="M15.5799 22.0972C17.5045 22.0972 19.0658 23.6585 19.0658 25.5841C19.0658 27.5097 17.5045 29.0701 15.5799 29.0701C13.6552 29.0701 12.0929 27.5088 12.0929 25.5841C12.0929 23.6595 13.6542 22.0972 15.5799 22.0972ZM17.6726 25.5271C17.6726 24.3803 16.7431 23.4498 15.5953 23.4498C14.4475 23.4498 13.518 24.3803 13.518 25.5271C13.518 26.674 14.4485 27.6044 15.5953 27.6044C16.7422 27.6044 17.6726 26.6749 17.6726 25.5271Z" fill="#6D6E71"/>
<path d="M26.2562 17.959C26.2562 17.959 27.6002 22.5319 27.6572 22.7416C27.7133 22.9512 27.6002 23.3136 27.3992 23.4015C27.1983 23.4904 26.4166 23.7561 26.4166 23.7561L26.3751 23.7493C26.3896 23.6672 26.3818 23.5889 26.3683 23.531C26.3364 23.386 25.6292 20.6169 25.5712 20.3986C25.3055 19.4005 25.636 18.9087 26.1432 18.1841C26.1896 18.1184 26.2253 18.0411 26.2533 17.958H26.2562V17.959Z" fill="#386B45"/>
<path d="M15.5954 23.45C16.7432 23.45 17.6727 24.3804 17.6727 25.5272C17.6727 26.6741 16.7432 27.6045 15.5954 27.6045C14.4475 27.6045 13.5181 26.6751 13.5181 25.5272C13.5181 24.3794 14.4485 23.45 15.5954 23.45ZM17.0852 25.5359C17.0852 24.7128 16.4185 24.0461 15.5954 24.0461C14.7722 24.0461 14.1065 24.7128 14.1065 25.5359C14.1065 26.3591 14.7731 27.0248 15.5954 27.0248C16.4176 27.0248 17.0852 26.3582 17.0852 25.5359Z" fill="#6D6E71"/>
<path d="M21.5008 11.8122L22.264 14.3387L23.3587 14.0083L23.2351 13.5987L22.722 13.7542C22.6727 13.7687 22.6244 13.7426 22.6099 13.6933L21.9964 11.6624L21.5008 11.8122ZM21.3365 11.8286C21.322 11.7813 21.3317 11.7474 21.3423 11.7272C21.3529 11.7078 21.3761 11.6808 21.4235 11.6663L21.98 11.4982C22.0573 11.475 22.1191 11.5088 22.1423 11.5851L22.7442 13.5784L23.2196 13.4344C23.2669 13.4199 23.3008 13.4305 23.3201 13.4412C23.3404 13.4518 23.3674 13.474 23.3819 13.5214L23.5239 13.9919C23.5375 14.0392 23.5278 14.073 23.5172 14.0933C23.5104 14.1059 23.4988 14.1214 23.4785 14.1349C23.4679 14.1426 23.4534 14.1494 23.437 14.1542L22.2795 14.504C22.2032 14.5272 22.1404 14.4933 22.1172 14.417L21.3365 11.8286Z" fill="#1E150F"/>
<path d="M16.003 25.5504C16.0291 25.7755 15.8697 25.9794 15.6446 26.0064C15.4194 26.0335 15.2156 25.8731 15.1885 25.648C15.1615 25.4238 15.3219 25.219 15.547 25.1919C15.7711 25.1649 15.976 25.3253 16.003 25.5504Z" fill="#939598"/>
<path d="M20.9306 8.04688L21.693 10.5734L21.1973 10.7232L20.8968 9.72707C20.8901 9.70291 20.8746 9.68455 20.8533 9.67296C20.8331 9.66233 20.8079 9.65943 20.7847 9.66716L20.3548 9.79663C20.3065 9.81112 20.2804 9.8604 20.2949 9.90871L20.5954 10.9048L20.0997 11.0546L19.3374 8.52804L19.8331 8.37828L20.119 9.32707C20.1268 9.35026 20.1413 9.36958 20.1625 9.38117C20.1838 9.3918 20.2079 9.3947 20.2311 9.38697L20.6611 9.2575C20.6843 9.25074 20.7036 9.23431 20.7152 9.21402C20.7258 9.19277 20.7287 9.16861 20.721 9.14543L20.435 8.19663L20.9306 8.04688Z" fill="white"/>
<path d="M21.3364 11.8285L22.117 14.4169C22.1402 14.4933 22.203 14.5271 22.2794 14.5039L23.4369 14.1541C23.4533 14.1493 23.4678 14.1425 23.4784 14.1348C23.4987 14.1213 23.5103 14.1058 23.517 14.0933C23.5277 14.073 23.5373 14.0391 23.5238 13.9918L23.3818 13.5213C23.3673 13.4739 23.3402 13.4517 23.3199 13.4411C23.3006 13.4305 23.2668 13.4198 23.2195 13.4343L22.7441 13.5783L22.1422 11.585C22.119 11.5087 22.0571 11.4749 21.9799 11.4981L21.4233 11.6662C21.376 11.6807 21.3528 11.7077 21.3422 11.7271C21.3315 11.7474 21.3219 11.7812 21.3364 11.8285ZM21.1509 14.8073C21.1712 14.8179 21.205 14.8276 21.2523 14.8131L21.8088 14.6459C21.8262 14.6401 21.8407 14.6334 21.8513 14.6256C21.8716 14.6121 21.8832 14.5966 21.89 14.5841C21.9006 14.5648 21.9103 14.5309 21.8968 14.4836L21.1151 11.8952C21.0919 11.8189 21.0301 11.785 20.9528 11.8082L20.3963 11.9763C20.3489 11.9908 20.3257 12.0179 20.3151 12.0372C20.3045 12.0575 20.2948 12.0913 20.3093 12.1387L21.09 14.7271C21.1045 14.7744 21.1315 14.7966 21.1509 14.8073ZM20.9277 24.9493C20.8784 24.8623 20.8349 24.7648 20.7972 24.6575C20.4987 23.8044 19.6736 22.3309 19.1219 21.6623C18.204 20.5512 16.9808 20.2701 16.3847 20.2778C15.6349 20.2875 13.5702 20.8266 13.2282 20.8894C12.7972 20.9686 12.3547 21.073 12.0214 21.0053C11.8127 20.9648 11.6465 20.8556 11.5538 20.6324C11.3122 20.0527 8.75183 11.5503 8.75183 11.5503V11.5445C9.14603 11.4411 10.0504 11.1522 10.2736 11.0672C10.547 10.9619 10.5924 10.7773 10.4745 10.0681C10.2253 8.56282 10.177 8.23238 10.4262 7.60436C10.6166 7.12707 11.1596 6.67876 12.0852 6.40533C12.5528 6.26717 20.8117 3.83818 22.3905 3.34253V3.34543C22.3905 3.34543 26.1924 16.8266 26.2716 17.0575C26.3412 17.2594 26.3557 17.6507 26.2533 17.958C26.2253 18.0411 26.1895 18.1184 26.1431 18.1841C25.6359 18.9087 25.3055 19.4005 25.5712 20.3986C25.6291 20.6169 26.3364 23.386 26.3683 23.5309C26.3818 23.5889 26.3895 23.6672 26.375 23.7493C26.3547 23.871 26.2852 24.0005 26.1112 24.0778C25.8214 24.2073 22.1451 25.415 21.9885 25.4633C21.5895 25.585 21.1856 25.4073 20.9277 24.9493ZM13.4427 10.2739C13.4291 10.2266 13.4021 10.2034 13.3818 10.1928C13.3625 10.1821 13.3286 10.1725 13.2803 10.187L11.8697 10.6121C11.8214 10.6276 11.7992 10.6536 11.7885 10.6739C11.7779 10.6933 11.7683 10.7271 11.7827 10.7754L11.9238 11.2449C11.947 11.3222 12.0098 11.3551 12.0871 11.3329L12.3895 11.2411L12.9905 13.2334C13.0137 13.3106 13.0765 13.3435 13.1528 13.3203L13.7093 13.1522C13.7267 13.1474 13.7412 13.1406 13.7518 13.1329C13.7721 13.1193 13.7837 13.1039 13.7905 13.0913C13.8011 13.072 13.8108 13.0372 13.7972 12.9899L13.1953 10.9976L13.4977 10.9068C13.5741 10.8836 13.6079 10.8208 13.5847 10.7445L13.4427 10.2739ZM19.1789 8.44301C19.1683 8.46234 19.1586 8.49712 19.1721 8.54446L18.9373 8.61693C18.9161 8.55895 18.8707 8.52997 18.803 8.53383C18.6581 8.54446 18.5016 8.57248 18.3393 8.61693C18.0484 8.70002 17.8523 8.81789 17.7412 8.97924C17.6185 9.15606 17.5982 9.37731 17.6774 9.6575C17.7808 10.0111 17.947 10.1966 18.3634 10.4198C18.7026 10.6015 18.7528 10.6391 18.7798 10.729C18.7905 10.7648 18.8195 10.8585 18.5634 10.9358C18.4658 10.9657 18.3654 10.9841 18.2581 10.9908C18.2175 10.9937 18.1837 11.0111 18.1625 11.0391C18.1422 11.0672 18.1354 11.1039 18.1441 11.1435L18.2465 11.6131C18.2639 11.6904 18.318 11.7309 18.3885 11.7222C18.5731 11.7048 18.7982 11.6594 19.0069 11.5966C19.1538 11.5522 19.2765 11.4971 19.375 11.4314C19.6774 11.2295 19.7567 10.9232 19.6262 10.4904L19.7489 10.4536L19.9538 11.1319C19.977 11.2082 20.0388 11.242 20.1161 11.2189L20.6726 11.0507C20.7199 11.0362 20.7431 11.0092 20.7538 10.9899C20.7644 10.9696 20.7741 10.9358 20.7596 10.8884L20.4707 9.93094L20.7625 9.84301L21.0513 10.8005C21.0658 10.8478 21.0929 10.8701 21.1122 10.8817C21.1325 10.8923 21.1663 10.9019 21.2137 10.8875L21.7702 10.7193C21.7876 10.7145 21.8021 10.7068 21.8127 10.7C21.833 10.6865 21.8446 10.671 21.8513 10.6585C21.862 10.6382 21.8716 10.6044 21.8571 10.557L21.0765 7.96958C21.062 7.92224 21.0349 7.89905 21.0156 7.88842C20.9953 7.87779 20.9615 7.86813 20.9141 7.88263L20.3576 8.04978C20.2803 8.07393 20.2475 8.13577 20.2707 8.21306L20.5451 9.1232L20.2533 9.21113L19.9789 8.30098C19.9644 8.25364 19.9373 8.23045 19.917 8.21983C19.8977 8.2092 19.8639 8.19954 19.8166 8.21403L19.26 8.38214C19.2117 8.39664 19.1895 8.42272 19.1789 8.44301ZM15.2755 15.0701C15.0813 14.4256 14.8649 14.0788 14.5731 13.9474C14.3741 13.8604 14.1373 13.8662 13.8059 13.9657L13.0765 14.186C13.0291 14.2005 13.0059 14.2276 12.9953 14.2469C12.9847 14.2672 12.975 14.301 12.9895 14.3483L13.7702 16.9358C13.7934 17.0131 13.8562 17.0459 13.9325 17.0237L14.662 16.8034C14.8427 16.7483 14.9837 16.6875 15.0939 16.6131C15.2146 16.5329 15.2977 16.4372 15.3538 16.3203C15.4794 16.0478 15.4552 15.6623 15.2755 15.0701ZM16.7731 13.0701C16.6968 13.0933 16.6629 13.1561 16.6861 13.2324L16.8282 13.7029C16.8427 13.7503 16.8697 13.7734 16.89 13.7841C16.9093 13.7947 16.9431 13.8044 16.9905 13.7899L17.2939 13.6981L17.8948 15.6913C17.918 15.7677 17.9808 15.8015 18.0571 15.7783L18.6137 15.6102C18.6311 15.6044 18.6455 15.5976 18.6562 15.5908C18.6765 15.5773 18.6881 15.5619 18.6948 15.5493C18.7055 15.529 18.7151 15.4952 18.7006 15.4478L18.9721 15.3821C18.9827 15.4073 19.0001 15.4276 19.0224 15.442C19.0542 15.4614 19.0929 15.4652 19.1315 15.4536L19.6852 15.2865C19.7528 15.2662 19.7914 15.2005 19.776 15.1309C19.747 14.9986 19.718 14.8546 19.6871 14.6913L20.0011 14.5966C20.061 14.7416 20.118 14.8807 20.1692 15.0131C20.1953 15.0788 20.2629 15.1126 20.3306 15.0913L20.8852 14.9242C20.8997 14.9203 20.9122 14.9135 20.9238 14.9058C20.9431 14.8933 20.9586 14.8759 20.9692 14.8546C20.9837 14.8227 20.9847 14.786 20.9702 14.7512C20.7702 14.2691 20.2204 13.0913 19.7818 12.2681C19.7528 12.214 19.6929 12.1889 19.633 12.2073L18.6823 12.4942C18.6224 12.5116 18.5856 12.5657 18.5924 12.6285C18.6117 12.8169 18.6349 13.0208 18.6591 13.2295L18.4968 13.2478C18.4968 13.2343 18.4939 13.2189 18.489 13.2015L18.347 12.7309C18.3325 12.6836 18.3064 12.6604 18.2861 12.6498C18.2658 12.6391 18.232 12.6295 18.1847 12.644L16.7731 13.0701ZM15.5876 11.5561C15.8369 11.33 15.803 11.0053 15.6668 10.5561C15.5383 10.128 15.4069 9.91355 15.2146 9.81693C14.9924 9.70582 14.6977 9.75895 14.3238 9.872L13.634 10.0797C13.5866 10.0942 13.5634 10.1213 13.5528 10.1416C13.5422 10.1609 13.5325 10.1947 13.547 10.242L14.3277 12.8305C14.3509 12.9068 14.4127 12.9406 14.49 12.9174L15.0465 12.7493C15.1238 12.7251 15.1567 12.6633 15.1335 12.587L14.917 11.8681H14.9228L15.4021 12.5396C15.4427 12.5937 15.4977 12.6131 15.5605 12.5937L16.1093 12.4285C16.1267 12.4227 16.1402 12.416 16.1518 12.4092C16.1789 12.3899 16.1905 12.3677 16.1943 12.3532C16.2001 12.3329 16.205 12.2913 16.1644 12.243L15.5876 11.5561ZM16.2011 12.2517C16.2079 12.2884 16.2282 12.3193 16.2591 12.3377C16.291 12.357 16.3296 12.3619 16.3683 12.3503L16.9219 12.1831C16.9895 12.1628 17.0272 12.0971 17.0127 12.0276C16.9837 11.8971 16.9547 11.7522 16.9238 11.5879L17.2369 11.4933C17.2977 11.6372 17.3538 11.7773 17.405 11.9087C17.4311 11.9754 17.4997 12.0082 17.5673 11.9879L18.1219 11.8208C18.1354 11.8169 18.1489 11.8102 18.1605 11.8024C18.1798 11.7899 18.1953 11.7725 18.205 11.7512C18.2204 11.7193 18.2214 11.6826 18.2069 11.6478C18.0059 11.1648 17.4571 9.98698 17.0185 9.16475C16.9895 9.10968 16.9296 9.08552 16.8697 9.10292L15.918 9.38987C15.8581 9.40823 15.8224 9.46234 15.8291 9.52514C15.9219 10.443 16.1026 11.7222 16.2011 12.2517ZM16.5827 13.2633C16.5596 13.187 16.4977 13.1532 16.4204 13.1763L15.1538 13.559C15.1074 13.5734 15.0842 13.5995 15.0736 13.6198C15.0629 13.6401 15.0533 13.6739 15.0668 13.7213L15.8484 16.3087C15.8716 16.386 15.9335 16.4189 16.0108 16.3957L17.3161 16.0015C17.3335 15.9966 17.348 15.9899 17.3586 15.9821C17.3789 15.9686 17.3905 15.9532 17.3972 15.9406C17.4079 15.9203 17.4175 15.8865 17.403 15.8391L17.261 15.3686C17.2475 15.3213 17.2204 15.2991 17.2001 15.2884C17.1799 15.2778 17.146 15.2672 17.0987 15.2817L16.4745 15.4701L16.3654 15.1077L16.8997 14.9464C16.976 14.9232 17.0098 14.8614 16.9866 14.7841L16.8456 14.3184C16.8224 14.2411 16.7605 14.2073 16.6832 14.2314L16.1489 14.3918L16.0533 14.073L16.6378 13.8962C16.6852 13.8817 16.7084 13.8556 16.719 13.8353C16.7296 13.815 16.7393 13.7812 16.7248 13.7338L16.5827 13.2633Z" fill="#386B45"/>
<path d="M19.4707 10.5379C19.5441 10.7823 19.5412 10.9707 19.461 11.1137C19.3799 11.2567 19.2156 11.3639 18.9596 11.4412C18.775 11.4973 18.5779 11.5388 18.4011 11.5581L18.3113 11.1494C18.4195 11.1388 18.5122 11.1214 18.6108 11.0915C18.7373 11.0528 18.8301 11.0007 18.8861 10.935C18.946 10.8635 18.9634 10.7755 18.9354 10.6818C18.889 10.5311 18.8001 10.4702 18.4398 10.277C18.06 10.0731 17.9238 9.92433 17.834 9.61322C17.7702 9.39003 17.7808 9.21708 17.8658 9.08375C17.9538 8.94945 18.1229 8.848 18.3818 8.7736C18.5257 8.73399 18.6552 8.70984 18.7895 8.69824L18.8726 9.08375C18.7895 9.09245 18.7238 9.10404 18.6736 9.1195C18.3364 9.22095 18.3412 9.41708 18.3741 9.5253C18.4311 9.7137 18.5335 9.79003 18.9142 9.99389C19.2861 10.1939 19.4011 10.305 19.4707 10.5379Z" fill="white"/>
<path d="M19.7016 13.8981C19.6272 13.73 19.548 13.5523 19.4639 13.3648C19.4939 13.5552 19.5248 13.7494 19.5567 13.9416L19.7016 13.8981ZM19.3789 13.8634C19.3509 13.6885 19.3161 13.4817 19.2475 13.0701C19.2417 13.0324 19.261 13.0006 19.2958 12.9899L19.3914 12.9609C19.4262 12.9513 19.46 12.9658 19.4755 12.9996C19.6301 13.3378 19.748 13.6015 19.8842 13.9097C19.8977 13.9426 19.8929 13.9677 19.8852 13.9822C19.8813 13.9928 19.8726 14.0054 19.8571 14.016C19.8494 14.0209 19.8407 14.0247 19.8291 14.0286L19.5219 14.1213C19.4871 14.132 19.4629 14.1233 19.4484 14.1146C19.4349 14.1059 19.4166 14.0875 19.4108 14.0537L19.3789 13.8634Z" fill="#1E150F"/>
<path d="M19.4639 13.365C19.548 13.5524 19.6272 13.7302 19.7016 13.8983L19.5567 13.9418C19.5248 13.7495 19.4939 13.5553 19.4639 13.365Z" fill="#386B45"/>
<path d="M13.0195 10.9755L13.632 13.0064L13.1374 13.1561L12.5238 11.1252C12.5171 11.102 12.5016 11.0827 12.4804 11.0711C12.4591 11.0605 12.4349 11.0576 12.4118 11.0653L12.0707 11.1677L11.947 10.759L13.2968 10.3513L13.4205 10.76L13.0794 10.8634C13.0301 10.8779 13.005 10.9272 13.0195 10.9755Z" fill="white"/>
<path d="M20.9697 11.972L20.4739 12.1216L21.2361 14.6477L21.7319 14.4981L20.9697 11.972Z" fill="white"/>
<path d="M15.5953 24.0461C16.4185 24.0461 17.0852 24.7128 17.0852 25.536C17.0852 26.3592 16.4185 27.0249 15.5953 27.0249C14.7721 27.0249 14.1064 26.3582 14.1064 25.536C14.1064 24.7138 14.7731 24.0461 15.5953 24.0461ZM15.6446 26.0065C15.8697 25.9795 16.0292 25.7756 16.0031 25.5505C15.976 25.3254 15.7712 25.165 15.547 25.192C15.3219 25.2191 15.1615 25.4239 15.1886 25.6481C15.2156 25.8732 15.4195 26.0336 15.6446 26.0065Z" fill="#BCBEC0"/>
<path d="M16.6997 10.2617C16.7306 10.452 16.7616 10.6452 16.7934 10.8385L16.9374 10.795C16.864 10.6269 16.7857 10.451 16.6997 10.2617ZM16.4843 9.96602C16.4775 9.92931 16.4978 9.89742 16.5335 9.8868L16.6273 9.85781C16.663 9.84718 16.6968 9.86264 16.7123 9.89645C16.8659 10.2337 16.9847 10.4974 17.12 10.8066C17.1345 10.8385 17.1287 10.8636 17.1219 10.8791C17.1171 10.8897 17.1084 10.9023 17.093 10.9119C17.0862 10.9167 17.0765 10.9216 17.0659 10.9254L16.7577 11.0182C16.7239 11.0288 16.6997 11.0201 16.6852 11.0114C16.6707 11.0018 16.6524 10.9844 16.6475 10.9496L16.6108 10.7322C16.5838 10.5631 16.549 10.3564 16.4843 9.96602Z" fill="#1E150F"/>
<path d="M17.1153 15.4471L17.2389 15.8558L15.9945 16.2316L15.2322 13.7051L16.437 13.3408L16.5607 13.7505L15.9375 13.9389C15.8882 13.9534 15.8621 14.0017 15.8776 14.051L16.0148 14.508C16.0302 14.5572 16.0786 14.5833 16.1278 14.5688L16.6998 14.3959L16.8225 14.8007L16.2496 14.9737C16.2264 14.9814 16.2071 14.9959 16.1955 15.0171C16.1848 15.0384 16.1829 15.0626 16.1897 15.0857L16.3404 15.5862C16.3481 15.6104 16.3636 15.6287 16.3839 15.6403C16.4051 15.6519 16.4293 15.6539 16.4525 15.6471L17.1153 15.4471Z" fill="white"/>
<path d="M20.9983 0.744626C21.2505 0.787138 21.7162 1.39004 21.8331 1.54559C20.5925 1.90211 12.2389 4.40936 7.58094 5.81709L7.57611 5.80163C7.58481 5.62385 8.04374 4.49728 8.26886 4.38424C8.49399 4.2712 20.7085 0.696317 20.9983 0.744626Z" fill="#386B45"/>
<path d="M14.7412 11.8471C14.7335 11.8229 14.7364 11.7988 14.747 11.7775C14.7586 11.7572 14.7779 11.7417 14.8011 11.734L14.9267 11.6963C14.9625 11.6857 15.0002 11.6983 15.0214 11.7292L15.5267 12.4345L15.9944 12.2934L15.4185 11.6123C15.3857 11.5736 15.3876 11.5205 15.4233 11.4867L15.4717 11.4413C15.6427 11.2896 15.6533 11.0702 15.5122 10.6036C15.3963 10.219 15.2929 10.0403 15.1422 9.96397C14.9915 9.88764 14.775 9.90503 14.3702 10.0268L13.7113 10.2258L14.4736 12.7524L14.9692 12.6036L14.7412 11.8471ZM14.3238 9.87218C14.6977 9.75914 14.9924 9.706 15.2146 9.81711C15.4069 9.91373 15.5383 10.1282 15.6668 10.5562C15.8031 11.0055 15.8369 11.3302 15.5876 11.5562L16.1644 12.2432C16.205 12.2915 16.2002 12.3331 16.1944 12.3533C16.1905 12.3678 16.1789 12.3901 16.1518 12.4094C16.1403 12.4161 16.1267 12.4229 16.1093 12.4287L15.5605 12.5939C15.4977 12.6132 15.4427 12.5939 15.4021 12.5398L14.9229 11.8674H14.9171L15.1335 12.5872C15.1567 12.6635 15.1238 12.7253 15.0465 12.7495L14.49 12.9176C14.4127 12.9408 14.3509 12.907 14.3277 12.8306L13.547 10.2422C13.5325 10.1949 13.5422 10.1611 13.5528 10.1417C13.5634 10.1215 13.5866 10.0944 13.634 10.0799L14.3238 9.87218Z" fill="#1E150F"/>
<path d="M14.72 11.1553C14.893 11.1031 14.9442 11.0741 14.8611 10.7997C14.778 10.5234 14.7307 10.5253 14.5461 10.5813L14.5297 10.5862L14.7036 11.1611L14.72 11.1553ZM15.0167 10.7524C15.0688 10.9253 15.0756 11.0355 15.0379 11.1195C15.0186 11.1659 14.9867 11.2036 14.9384 11.2355C14.8949 11.2644 14.8389 11.2886 14.7664 11.3108L14.6814 11.3369C14.6321 11.3514 14.5838 11.3253 14.5693 11.276L14.3539 10.564C14.3471 10.5408 14.349 10.5166 14.3606 10.4954C14.3713 10.4751 14.3906 10.4596 14.4138 10.4519L14.4998 10.4268C14.7935 10.3379 14.9143 10.4142 15.0167 10.7524Z" fill="#1E150F"/>
<path d="M17.9239 13.4335L18.5365 15.4644L18.0408 15.6141L17.4283 13.5832C17.4138 13.5349 17.3645 13.5079 17.3152 13.5224L16.9741 13.6257L16.8514 13.2161L18.2012 12.8083L18.3249 13.218L17.9838 13.3204C17.9345 13.3359 17.9084 13.3842 17.9239 13.4335Z" fill="white"/>
<path d="M16.9221 12.1832L16.3684 12.3503C16.3298 12.3619 16.2911 12.3571 16.2593 12.3378C16.2283 12.3194 16.208 12.2885 16.2013 12.2518C16.1027 11.7223 15.9221 10.4431 15.8293 9.5252C15.8225 9.46239 15.8583 9.40829 15.9182 9.38993L16.8699 9.10297C16.9298 9.08558 16.9897 9.10974 17.0187 9.16481C17.4573 9.98703 18.0061 11.1648 18.2071 11.6479C18.2216 11.6827 18.2206 11.7194 18.2052 11.7513C18.1955 11.7725 18.18 11.7899 18.1607 11.8025C18.1491 11.8102 18.1356 11.817 18.1221 11.8208L17.5675 11.988C17.4998 12.0083 17.4312 11.9754 17.4052 11.9088C17.3539 11.7774 17.2979 11.6373 17.237 11.4933L16.924 11.588C16.9549 11.7522 16.9839 11.8972 17.0129 12.0276C17.0274 12.0972 16.9897 12.1629 16.9221 12.1832ZM16.3539 12.1851L16.8486 12.0363C16.8187 11.8943 16.7907 11.7561 16.7597 11.5928L16.753 11.5551C16.7433 11.5068 16.7684 11.4653 16.8167 11.4508L17.2515 11.3194C17.2998 11.3049 17.3433 11.3252 17.3626 11.3716L17.3771 11.4073C17.4399 11.558 17.4931 11.6894 17.5472 11.8247L18.0428 11.6759C17.7829 11.0595 17.2525 9.95128 16.8892 9.26723L15.9936 9.53776C16.0786 10.36 16.2438 11.5774 16.3539 12.1851Z" fill="#1E150F"/>
<path d="M19.7905 23.8364L20.0243 24.6577L19.5895 24.7388L19.5567 25.2538L20.0243 25.334L19.9596 26.0103L19.5731 25.8983L19.3799 26.3968L19.8311 26.5901L19.5248 27.363L19.1383 27.2026L18.8649 27.621L19.2668 27.9108L18.8485 28.4422L18.4939 28.2171L18.1886 28.5388L18.5267 28.8606L17.9953 29.3282L17.6891 28.877L17.2543 29.1988L17.4475 29.6818L16.6746 29.9717L16.5296 29.5369L16.1113 29.6664L16.1596 30.1814L15.4504 30.2944L15.4185 29.8113L14.9036 29.7785L14.7422 30.2461L14.1625 30.0847L14.3238 29.6818L14.0011 29.5369L13.7113 29.9234L13.1799 29.6017L13.3731 29.1833L13.0678 28.9901L12.8263 29.3118L12.3751 28.8451L12.633 28.4587L12.3586 28.1843L12.005 28.4103L11.5702 27.8306L11.892 27.5408L11.7306 27.1698L11.2639 27.2509L11.1673 26.6548L11.6021 26.5746L11.5538 26.107L11.119 26.0587L11.1354 25.5273L11.5857 25.5118L11.6021 24.964L11.2321 24.8674L11.3287 24.2558L11.7152 24.3195L11.7953 23.8693L11.5055 23.7079L11.7306 23.2413L12.005 23.4016L12.2784 22.9833L11.9886 22.6934L12.2784 22.3234L12.4475 22.4519L12.5519 22.5321L12.89 22.2268L12.7296 21.9369L13.148 21.6142L13.3895 21.8403L13.7441 21.6142L13.6958 21.2925L14.3238 21.164L14.4359 21.4857L14.7586 21.4055L14.8069 21.019L15.4833 21.0674L15.5152 21.4055L16.1113 21.5021L16.2562 21.164L16.8514 21.3572L16.7393 21.6384L17.3432 21.9128L17.5277 21.5988L18.1557 21.9852L17.9789 22.3311L18.5026 22.6934L18.8804 22.4519L19.3074 23.0963L19.0581 23.3292L19.3557 23.9176L19.7905 23.8364ZM19.0659 25.5843C19.0659 23.6587 17.5045 22.0973 15.5799 22.0973C13.6553 22.0973 12.0929 23.6587 12.0929 25.5843C12.0929 27.5099 13.6543 29.0702 15.5799 29.0702C17.5055 29.0702 19.0659 27.5089 19.0659 25.5843Z" fill="#6D6E71"/>
<path d="M16.8891 9.26733C17.2524 9.95139 17.7828 11.0596 18.0427 11.676L17.5471 11.8248C17.493 11.6896 17.4398 11.5582 17.377 11.4074L17.3626 11.3717C17.3432 11.3253 17.2998 11.305 17.2514 11.3195L16.8167 11.4509C16.7684 11.4654 16.7432 11.5069 16.7529 11.5553L16.7597 11.5929C16.7906 11.7562 16.8186 11.8944 16.8485 12.0364L16.3539 12.1852C16.2437 11.5775 16.0785 10.3601 15.9935 9.53786L16.8891 9.26733ZM17.122 10.8789C17.1287 10.8635 17.1345 10.8383 17.12 10.8065C16.9848 10.4973 16.8659 10.2335 16.7123 9.89632C16.6969 9.8625 16.663 9.84704 16.6273 9.85767L16.5336 9.88666C16.4978 9.89729 16.4775 9.92917 16.4843 9.96588C16.549 10.3562 16.5838 10.563 16.6109 10.7321L16.6476 10.9495C16.6524 10.9842 16.6708 11.0016 16.6853 11.0113C16.6997 11.02 16.7239 11.0287 16.7577 11.0181L17.0659 10.9253C17.0766 10.9214 17.0862 10.9166 17.093 10.9118C17.1084 10.9021 17.1171 10.8896 17.122 10.8789Z" fill="white"/>
<path d="M16.6996 10.2615C16.7856 10.4508 16.8639 10.6267 16.9373 10.7948L16.7934 10.8383C16.7615 10.645 16.7306 10.4518 16.6996 10.2615Z" fill="#386B45"/>
<path d="M12.4717 22.42L12.0205 21.0104V21.0055C12.3548 21.0732 12.7973 20.9688 13.2282 20.8896C13.5703 20.8268 15.635 20.2876 16.3848 20.278C16.9809 20.2703 18.2041 20.5514 19.122 21.6625C19.6736 22.3311 20.4988 23.8046 20.7973 24.6577C20.835 24.7649 20.8785 24.8625 20.9278 24.9495L20.0244 25.334L19.5567 25.2538L19.5896 24.7389L20.0244 24.6577L19.7906 23.8364L19.3558 23.9176L19.0582 23.3292L19.3075 23.0963L18.8804 22.4519L18.5026 22.6934L17.979 22.3311L18.1558 21.9852L17.5278 21.5988L17.3432 21.9128L16.7393 21.6384L16.8514 21.3572L16.2563 21.164L16.1113 21.5021L15.5152 21.4055L15.4833 21.0674L14.807 21.019L14.7587 21.4055L14.436 21.4857L14.3239 21.164L13.6959 21.2925L13.7442 21.6142L13.3896 21.8403L13.148 21.6142L12.7297 21.9369L12.8901 22.2268L12.5519 22.5321L12.4476 22.4519L12.4717 22.42Z" fill="#386B45"/>
<path d="M19.7819 12.2682C20.2206 13.0914 20.7703 14.2692 20.9703 14.7513C20.9848 14.7861 20.9838 14.8228 20.9693 14.8547C20.9587 14.876 20.9433 14.8934 20.9239 14.9059C20.9123 14.9137 20.8998 14.9204 20.8853 14.9243L20.3307 15.0914C20.2631 15.1127 20.1954 15.0789 20.1693 15.0132C20.1181 14.8808 20.0611 14.7417 20.0012 14.5967L19.6872 14.6914C19.7181 14.8547 19.7471 14.9987 19.7761 15.131C19.7916 15.2006 19.7529 15.2663 19.6853 15.2866L19.1317 15.4538C19.093 15.4653 19.0544 15.4615 19.0225 15.4422C19.0003 15.4277 18.9829 15.4074 18.9722 15.3823C18.9684 15.3736 18.9664 15.3649 18.9645 15.3552C18.8863 14.9339 18.7568 14.0402 18.6592 13.2296C18.635 13.0209 18.6119 12.817 18.5925 12.6286C18.5858 12.5658 18.6225 12.5117 18.6824 12.4943L19.6331 12.2074C19.693 12.189 19.7529 12.2141 19.7819 12.2682ZM18.7568 12.6412C18.8418 13.4634 19.008 14.6808 19.1172 15.2885L19.6119 15.1397C19.5819 14.9996 19.5549 14.8624 19.5239 14.6963L19.5162 14.6595C19.5075 14.6093 19.5317 14.5687 19.58 14.5542L20.0157 14.4228C20.0631 14.4083 20.1065 14.4296 20.1259 14.475L20.1413 14.5117C20.2032 14.6615 20.2573 14.7929 20.3104 14.9291L20.8061 14.7794C20.5462 14.1629 20.0157 13.0547 19.6524 12.3707L18.7568 12.6412Z" fill="#1E150F"/>
<path d="M16.9742 13.6257L17.3153 13.5223C17.3645 13.5078 17.4138 13.5349 17.4283 13.5832L18.0409 15.6141L18.5365 15.4644L17.924 13.4334C17.9085 13.3842 17.9346 13.3358 17.9839 13.3204L18.3249 13.218L18.2013 12.8083L16.8515 13.216L16.9742 13.6257ZM16.6863 13.2325C16.6631 13.1561 16.6969 13.0933 16.7732 13.0701L18.1848 12.6441C18.2322 12.6296 18.266 12.6392 18.2863 12.6499C18.3066 12.6605 18.3327 12.6837 18.3471 12.731L18.4892 13.2016C18.494 13.2189 18.4969 13.2344 18.4969 13.2479C18.4969 13.2721 18.4901 13.2904 18.4834 13.303C18.4728 13.3233 18.4496 13.3494 18.4022 13.3639L18.0998 13.4557L18.7008 15.4479C18.7153 15.4953 18.7056 15.5291 18.695 15.5494C18.6882 15.5619 18.6766 15.5774 18.6563 15.5909C18.6457 15.5977 18.6312 15.6044 18.6138 15.6102L18.0573 15.7784C17.981 15.8016 17.9182 15.7677 17.895 15.6914L17.294 13.6982L16.9906 13.79C16.9433 13.8045 16.9095 13.7948 16.8901 13.7842C16.8699 13.7735 16.8428 13.7503 16.8283 13.703L16.6863 13.2325Z" fill="#1E150F"/>
<path d="M14.3792 16.0942L13.9619 14.7126L14.0256 14.6932C14.0846 14.6758 14.1367 14.6826 14.1802 14.7135C14.2971 14.7947 14.3802 15.0449 14.4623 15.3155C14.5493 15.6024 14.5995 15.8198 14.5677 15.9493C14.5483 16.0159 14.5106 16.0546 14.443 16.0758L14.3792 16.0942Z" fill="#386B45"/>
<path d="M20.806 14.7793L20.3103 14.9291C20.2572 14.7928 20.2031 14.6614 20.1413 14.5117L20.1258 14.475C20.1065 14.4295 20.063 14.4083 20.0157 14.4228L19.5799 14.5542C19.5316 14.5687 19.5074 14.6093 19.5161 14.6595L19.5239 14.6962C19.5548 14.8624 19.5818 14.9996 19.6118 15.1397L19.1171 15.2885C19.0079 14.6807 18.8417 13.4634 18.7567 12.6411L19.6524 12.3706C20.0156 13.0547 20.5461 14.1629 20.806 14.7793ZM19.8852 13.9822C19.8929 13.9677 19.8978 13.9426 19.8843 13.9097C19.748 13.6015 19.6301 13.3378 19.4756 12.9996C19.4601 12.9658 19.4263 12.9513 19.3915 12.9609L19.2958 12.9899C19.2611 13.0006 19.2417 13.0324 19.2475 13.0701C19.3161 13.4817 19.3509 13.6885 19.3789 13.8634L19.4108 14.0537C19.4166 14.0875 19.435 14.1059 19.4485 14.1146C19.463 14.1233 19.4871 14.132 19.5219 14.1213L19.8292 14.0286C19.8408 14.0247 19.8495 14.0208 19.8572 14.016C19.8727 14.0054 19.8814 13.9928 19.8852 13.9822Z" fill="white"/>
<path d="M18.9906 9.85094C19.3558 10.0471 19.5346 10.1862 19.6263 10.4906C19.7568 10.9234 19.6776 11.2297 19.3751 11.4316C19.2766 11.4973 19.1539 11.5524 19.007 11.5968C18.7983 11.6596 18.5732 11.705 18.3887 11.7224C18.3181 11.7311 18.264 11.6906 18.2466 11.6133L18.1442 11.1437C18.1355 11.1041 18.1423 11.0674 18.1626 11.0393C18.1838 11.0113 18.2177 10.9939 18.2582 10.991C18.3655 10.9843 18.466 10.9659 18.5635 10.936C18.8196 10.8587 18.7906 10.765 18.78 10.7292C18.7529 10.6393 18.7027 10.6017 18.3635 10.42C17.9471 10.1968 17.7809 10.0113 17.6776 9.6577C17.5983 9.37751 17.6186 9.15625 17.7413 8.97944C17.8524 8.81809 18.0486 8.70022 18.3394 8.61712C18.5017 8.57268 18.6582 8.54466 18.8032 8.53403C18.8708 8.53017 18.9162 8.55915 18.9375 8.61712C18.9404 8.62485 18.9423 8.63355 18.9442 8.64225L19.0399 9.08862C19.0486 9.12824 19.0418 9.16592 19.0206 9.19394C18.9993 9.22195 18.9664 9.23838 18.9259 9.24128C18.8389 9.24901 18.7693 9.25963 18.721 9.27413C18.6505 9.29538 18.6012 9.31954 18.5674 9.34756C18.5249 9.38427 18.5123 9.42485 18.5288 9.47896C18.5587 9.57655 18.5742 9.62775 18.9906 9.85094ZM18.9597 11.4413C19.2157 11.364 19.38 11.2567 19.4611 11.1137C19.5413 10.9707 19.5442 10.7823 19.4708 10.5379C19.4012 10.305 19.2863 10.1939 18.9143 9.99394C18.5336 9.79007 18.4312 9.71374 18.3742 9.52534C18.3413 9.41712 18.3365 9.22099 18.6737 9.11954C18.7239 9.10408 18.7896 9.09249 18.8727 9.08379L18.7896 8.69828C18.6553 8.70988 18.5259 8.73403 18.3819 8.77364C18.123 8.84804 17.9539 8.94949 17.866 9.08379C17.7809 9.21713 17.7703 9.39007 17.8341 9.61326C17.9239 9.92437 18.0602 10.0732 18.4399 10.277C18.8003 10.4703 18.8892 10.5311 18.9355 10.6819C18.9635 10.7756 18.9462 10.8635 18.8863 10.935C18.8302 11.0007 18.7375 11.0529 18.6109 11.0915C18.5123 11.1215 18.4196 11.1389 18.3114 11.1495L18.4012 11.5582C18.578 11.5389 18.7751 11.4973 18.9597 11.4413Z" fill="#1E150F"/>
<path d="M16.5608 13.7503L16.4372 13.3406L15.2323 13.7049L15.9947 16.2315L17.2391 15.8556L17.1154 15.4469L16.4526 15.6469C16.4294 15.6537 16.4053 15.6518 16.384 15.6402C16.3637 15.6286 16.3483 15.6102 16.3405 15.5861L16.1898 15.0856C16.1831 15.0624 16.185 15.0382 16.1956 15.017C16.2072 14.9957 16.2265 14.9812 16.2497 14.9735L16.8227 14.8005L16.7 14.3957L16.128 14.5687C16.0787 14.5832 16.0304 14.5571 16.0149 14.5078L15.8777 14.0508C15.8623 14.0015 15.8884 13.9532 15.9377 13.9387L16.5608 13.7503ZM16.7251 13.7339C16.7396 13.7812 16.7299 13.815 16.7193 13.8353C16.7087 13.8556 16.6855 13.8817 16.6381 13.8962L16.0536 14.073L16.1492 14.3918L16.6835 14.2315C16.7608 14.2073 16.8227 14.2411 16.8459 14.3184L16.9869 14.7841C17.0101 14.8614 16.9763 14.9233 16.9 14.9464L16.3657 15.1078L16.4748 15.4701L17.099 15.2817C17.1463 15.2672 17.1802 15.2778 17.2005 15.2885C17.2207 15.2991 17.2478 15.3213 17.2613 15.3687L17.4034 15.8392C17.4178 15.8865 17.4082 15.9204 17.3976 15.9406C17.3908 15.9532 17.3792 15.9687 17.3589 15.9822C17.3483 15.9899 17.3338 15.9967 17.3164 16.0015L16.0111 16.3957C15.9338 16.4189 15.872 16.3861 15.8488 16.3088L15.0671 13.7213C15.0536 13.674 15.0633 13.6402 15.0739 13.6199C15.0845 13.5996 15.1077 13.5735 15.1541 13.559L16.4207 13.1764C16.498 13.1532 16.5599 13.187 16.5831 13.2633L16.7251 13.7339Z" fill="#1E150F"/>
<path d="M13.1374 13.1561L13.6321 13.0064L13.0196 10.9754C13.0051 10.9271 13.0302 10.8779 13.0795 10.8634L13.4205 10.76L13.2969 10.3513L11.9471 10.759L12.0708 11.1677L12.4118 11.0653C12.435 11.0576 12.4592 11.0605 12.4804 11.0711C12.5017 11.0827 12.5172 11.102 12.5239 11.1252L13.1374 13.1561ZM13.7973 12.9899C13.8109 13.0373 13.8012 13.0721 13.7906 13.0914C13.7838 13.1039 13.7722 13.1194 13.7519 13.1329C13.7413 13.1407 13.7268 13.1474 13.7094 13.1522L13.1529 13.3204C13.0766 13.3436 13.0138 13.3107 12.9906 13.2334L12.3896 11.2411L12.0872 11.3329C12.0099 11.3551 11.9471 11.3223 11.9239 11.245L11.7829 10.7754C11.7684 10.7271 11.778 10.6933 11.7887 10.674C11.7993 10.6537 11.8215 10.6276 11.8698 10.6122L13.2804 10.187C13.3287 10.1725 13.3626 10.1822 13.3819 10.1928C13.4022 10.2035 13.4292 10.2266 13.4428 10.274L13.5848 10.7445C13.608 10.8208 13.5742 10.8837 13.4978 10.9068L13.1954 10.9977L13.7973 12.9899Z" fill="#1E150F"/>
<path d="M15.4186 11.6122L15.9945 12.2934L15.5268 12.4344L15.0215 11.7291C15.0003 11.6982 14.9626 11.6856 14.9268 11.6963L14.8012 11.7339C14.778 11.7417 14.7587 11.7571 14.7471 11.7774C14.7365 11.7987 14.7336 11.8228 14.7413 11.847L14.9693 12.6035L14.4737 12.7523L13.7114 10.2257L14.3703 10.0267C14.7751 9.90496 14.9916 9.88757 15.1423 9.9639C15.293 10.0402 15.3964 10.219 15.5123 10.6035C15.6534 11.0702 15.6428 11.2895 15.4718 11.4412L15.4234 11.4866C15.3877 11.5204 15.3858 11.5736 15.4186 11.6122ZM15.0379 11.1195C15.0756 11.0354 15.0689 10.9253 15.0167 10.7523C14.9143 10.4141 14.7935 10.3378 14.4998 10.4267L14.4138 10.4518C14.3906 10.4595 14.3713 10.475 14.3606 10.4953C14.349 10.5166 14.3471 10.5407 14.3539 10.5639L14.5693 11.276C14.5838 11.3252 14.6321 11.3513 14.6814 11.3368L14.7664 11.3108C14.8389 11.2885 14.8949 11.2644 14.9384 11.2354C14.9867 11.2035 15.0186 11.1658 15.0379 11.1195Z" fill="white"/>
<path d="M20.3576 8.04998L20.9141 7.88283C20.9615 7.86834 20.9953 7.878 21.0156 7.88863C21.0349 7.89926 21.062 7.92244 21.0764 7.96979L21.8571 10.5572C21.8716 10.6046 21.862 10.6384 21.8513 10.6587C21.8446 10.6712 21.833 10.6867 21.8127 10.7002C21.8021 10.707 21.7876 10.7147 21.7702 10.7195L21.2136 10.8877C21.1663 10.9022 21.1325 10.8925 21.1122 10.8819C21.0929 10.8703 21.0658 10.8481 21.0513 10.8007L20.7624 9.84322L20.4707 9.93114L20.7595 10.8886C20.774 10.936 20.7644 10.9698 20.7537 10.9901C20.7431 11.0094 20.7199 11.0365 20.6726 11.0509L20.1161 11.2191C20.0388 11.2423 19.9769 11.2084 19.9537 11.1321L19.7489 10.4538L19.1721 8.54564C19.1586 8.49733 19.1682 8.46254 19.1789 8.44322C19.1895 8.42293 19.2117 8.39684 19.26 8.38235L19.8165 8.21423C19.8639 8.19974 19.8977 8.2094 19.917 8.22003C19.9373 8.23066 19.9644 8.25385 19.9789 8.30119L20.2533 9.21133L20.545 9.12341L20.2707 8.21327C20.2475 8.13597 20.2803 8.07414 20.3576 8.04998ZM20.0996 11.0548L20.5953 10.9051L20.2948 9.90892C20.2803 9.86061 20.3064 9.81133 20.3547 9.79684L20.7847 9.66737C20.8078 9.65964 20.833 9.66254 20.8533 9.67317C20.8745 9.68476 20.89 9.70312 20.8967 9.72728L21.1972 10.7234L21.6929 10.5737L20.9306 8.04708L20.4349 8.19684L20.7209 9.14563C20.7286 9.16882 20.7257 9.19298 20.7151 9.21423C20.7035 9.23452 20.6842 9.25095 20.661 9.25771L20.231 9.38718C20.2079 9.39491 20.1837 9.39201 20.1624 9.38138C20.1412 9.36979 20.1267 9.35047 20.119 9.32728L19.833 8.37848L19.3373 8.52824L20.0996 11.0548Z" fill="#1E150F"/>
<path d="M21.0901 14.7273L20.3095 12.1389C20.295 12.0916 20.3046 12.0577 20.3153 12.0375C20.3259 12.0181 20.3491 11.9911 20.3964 11.9766L20.9529 11.8085C21.0302 11.7853 21.0921 11.8191 21.1153 11.8954L21.8969 14.4838C21.9104 14.5312 21.9008 14.565 21.8901 14.5843C21.8834 14.5969 21.8718 14.6123 21.8515 14.6259C21.8409 14.6336 21.8264 14.6404 21.809 14.6462L21.2525 14.8133C21.2051 14.8278 21.1713 14.8181 21.151 14.8075C21.1317 14.7969 21.1046 14.7747 21.0901 14.7273ZM20.9694 11.9727L20.4737 12.1225L21.236 14.649L21.7317 14.4993L20.9694 11.9727Z" fill="#1E150F"/>
<path d="M15.1211 15.1165C15.2853 15.6615 15.3124 16.0218 15.208 16.2508C15.122 16.4296 14.9452 16.5484 14.6158 16.6479L13.9162 16.8586L13.1539 14.332L13.8525 14.1214C14.1443 14.0334 14.3462 14.0257 14.5066 14.0953C14.752 14.2064 14.9414 14.5214 15.1211 15.1165ZM14.724 15.99C14.7607 15.8431 14.7317 15.6479 14.6177 15.2692C14.5269 14.9697 14.4332 14.6914 14.2737 14.5813C14.1916 14.5223 14.0844 14.5069 13.9791 14.5388L13.8457 14.5784C13.7974 14.5938 13.7713 14.6421 13.7858 14.6904L14.2448 16.2103C14.2515 16.2344 14.267 16.2537 14.2882 16.2644C14.3085 16.276 14.3336 16.2779 14.3568 16.2711L14.4892 16.2305C14.5259 16.2199 14.5588 16.2045 14.5877 16.1851C14.6534 16.1407 14.6998 16.076 14.724 15.99Z" fill="white"/>
<path d="M14.5674 15.9493C14.5993 15.8199 14.549 15.6025 14.4621 15.3155C14.3799 15.045 14.2968 14.7948 14.1799 14.7136C14.1365 14.6827 14.0843 14.6759 14.0253 14.6933L13.9616 14.7126L14.379 16.0943L14.4427 16.0759C14.5104 16.0547 14.5481 16.016 14.5674 15.9493ZM14.2447 16.2102L13.7857 14.6904C13.7712 14.6421 13.7973 14.5938 13.8456 14.5783L13.979 14.5387C14.0843 14.5068 14.1915 14.5223 14.2737 14.5812C14.4331 14.6914 14.5268 14.9696 14.6176 15.2692C14.7316 15.6479 14.7606 15.8431 14.7239 15.9899C14.6997 16.0759 14.6534 16.1406 14.5877 16.1851C14.5587 16.2044 14.5258 16.2199 14.4891 16.2305L14.3567 16.2711C14.3336 16.2778 14.3084 16.2759 14.2881 16.2643C14.2669 16.2537 14.2514 16.2344 14.2447 16.2102Z" fill="#1E150F"/>
<path d="M22.3914 3.3457C22.3914 3.3457 26.1924 16.8269 26.2716 17.0578C26.3412 17.2597 26.3557 17.651 26.2533 17.9583C26.2253 18.0414 26.1895 18.1186 26.1431 18.1843C25.6359 18.909 25.3055 19.4008 25.5712 20.3988C25.6291 20.6172 26.3364 23.3863 26.3683 23.5312C26.3818 23.5892 26.3895 23.6674 26.375 23.7496C26.3547 23.8713 26.2852 24.0008 26.1113 24.0781C25.8214 24.2075 22.1451 25.4153 21.9885 25.4636C21.5895 25.5853 21.1856 25.4075 20.9277 24.9496C20.8784 24.8626 20.8349 24.765 20.7972 24.6578C20.4987 23.8046 19.6736 22.3312 19.1219 21.6626C18.204 20.5515 16.9808 20.2703 16.3847 20.2781C15.6349 20.2877 13.5702 20.8269 13.2282 20.8897C12.7972 20.9689 12.3547 21.0732 12.0214 21.0056C11.8127 20.965 11.6465 20.8558 11.5538 20.6327C11.3122 20.053 8.75183 11.5505 8.75183 11.5505" stroke="#1E150F" stroke-width="0.193237" stroke-miterlimit="10"/>
<path d="M21.8331 1.54557C21.9278 1.51755 21.9819 1.50306 21.9887 1.50209C22.1259 1.48566 22.3027 1.40547 22.407 1.56586C22.5124 1.72721 22.7935 2.85475 22.7935 2.85475C22.8099 2.94267 22.8099 3.16875 22.6486 3.25668C22.6341 3.26441 22.5442 3.29436 22.3906 3.34267C20.8119 3.83832 12.5529 6.26731 12.0853 6.40547C11.1597 6.6789 10.6167 7.12721 10.4264 7.6045C10.1771 8.23252 10.2254 8.56296 10.4747 10.0683C10.5926 10.7774 10.5471 10.962 10.2737 11.0673C10.0505 11.1523 9.14617 11.4412 8.75101 11.5446C8.66212 11.5688 8.59835 11.5823 8.57516 11.5823C8.44569 11.5823 8.29303 11.534 8.18869 11.1958C8.08337 10.8576 7.32685 8.2248 7.31042 8.19291C7.29497 8.16006 7.20608 8.11175 7.02927 8.18421C6.85149 8.25668 5.01381 8.78615 4.84666 8.84509C4.68627 8.90112 4.46018 8.95716 4.27564 8.33784C4.18192 8.0248 4.01767 7.476 4.01767 7.39581C4.01767 7.34943 3.99159 7.2132 4.06695 7.06924C4.12395 6.96103 4.23989 6.84798 4.46888 6.76779C4.60221 6.72141 5.75487 6.36972 7.41187 5.86827C7.46695 5.85185 7.52395 5.83445 7.58096 5.81706C12.2389 4.40933 20.5926 1.90209 21.8331 1.54557Z" stroke="#1E150F" stroke-width="0.193237" stroke-miterlimit="10"/>
<path d="M21.8602 1.58231C21.8602 1.58231 21.8505 1.56878 21.8331 1.54559C21.7162 1.39004 21.2505 0.787138 20.9983 0.744626C20.7085 0.696317 8.49399 4.2712 8.26886 4.38424C8.04374 4.49728 7.58481 5.62385 7.57611 5.80163" stroke="#1E150F" stroke-width="0.193237" stroke-miterlimit="10"/>
<path d="M26.2563 17.959C26.2563 17.959 27.6003 22.5319 27.6573 22.7416C27.7134 22.9513 27.6003 23.3136 27.3993 23.4015C27.1984 23.4904 26.4167 23.7561 26.4167 23.7561" stroke="#1E150F" stroke-width="0.193237" stroke-miterlimit="10"/>
<path d="M20.0243 25.334L19.5567 25.2538L19.5895 24.7388L20.0243 24.6577L19.7905 23.8364L19.3557 23.9176L19.0581 23.3292L19.3074 23.0963L18.8804 22.4519L18.5026 22.6934L17.9789 22.3311L18.1557 21.9852L17.5277 21.5988L17.3432 21.9128L16.7393 21.6384L16.8514 21.3572L16.2562 21.164L16.1113 21.5021L15.5152 21.4055L15.4833 21.0674L14.8069 21.019L14.7586 21.4055L14.4359 21.4857L14.3238 21.164L13.6958 21.2925L13.7441 21.6142L13.3895 21.8403L13.148 21.6142L12.7296 21.9369L12.89 22.2268L12.5519 22.5321L12.4475 22.4519L12.2784 22.3234L11.9886 22.6934L12.2784 22.9833L12.005 23.4016L11.7306 23.2413L11.5055 23.7079L11.7953 23.8693L11.7152 24.3195L11.3287 24.2558L11.2321 24.8674L11.6021 24.964L11.5857 25.5118L11.1354 25.5273L11.119 26.0587L11.5538 26.107L11.6021 26.5746L11.1673 26.6548L11.2639 27.2509L11.7306 27.1698L11.892 27.5408L11.5702 27.8306L12.005 28.4103L12.3586 28.1843L12.633 28.4587L12.3751 28.8451L12.8263 29.3118L13.0678 28.9901L13.3731 29.1833L13.1799 29.6017L13.7113 29.9234L14.0011 29.5369L14.3238 29.6818L14.1625 30.0847L14.7422 30.2461L14.9036 29.7785L15.4185 29.8113L15.4504 30.2944L16.1596 30.1814L16.1113 29.6664L16.5296 29.5369L16.6746 29.9717L17.4475 29.6818L17.2543 29.1988L17.6891 28.877L17.9953 29.3282L18.5267 28.8606L18.1886 28.5388L18.4939 28.2171L18.8485 28.4422L19.2668 27.9108L18.8649 27.621L19.1383 27.2026L19.5248 27.363L19.8311 26.5901L19.3799 26.3968L19.5731 25.8983L19.9596 26.0103L20.0243 25.334Z" stroke="#1E150F" stroke-width="0.193237" stroke-miterlimit="10"/>
<path d="M12.0929 25.5841C12.0929 27.5088 13.6542 29.0701 15.5799 29.0701C17.5055 29.0701 19.0658 27.5088 19.0658 25.5841C19.0658 23.6595 17.5045 22.0972 15.5799 22.0972C13.6552 22.0972 12.0929 23.6585 12.0929 25.5841Z" stroke="#1E150F" stroke-width="0.0966184" stroke-miterlimit="10"/>
<path d="M15.5954 27.6045C16.7426 27.6045 17.6727 26.6745 17.6727 25.5272C17.6727 24.38 16.7426 23.45 15.5954 23.45C14.4481 23.45 13.5181 24.38 13.5181 25.5272C13.5181 26.6745 14.4481 27.6045 15.5954 27.6045Z" stroke="#1E150F" stroke-width="0.0966184" stroke-miterlimit="10"/>
<path d="M14.1064 25.536C14.1064 26.3582 14.7731 27.0249 15.5953 27.0249C16.4176 27.0249 17.0852 26.3582 17.0852 25.536C17.0852 24.7138 16.4185 24.0461 15.5953 24.0461C14.7721 24.0461 14.1064 24.7128 14.1064 25.536Z" stroke="#1E150F" stroke-width="0.193237" stroke-miterlimit="10"/>
<path d="M15.1885 25.648C15.2156 25.8731 15.4194 26.0335 15.6446 26.0064C15.8697 25.9794 16.0291 25.7755 16.003 25.5504C15.976 25.3253 15.7711 25.1649 15.547 25.1919C15.3219 25.219 15.1615 25.4238 15.1885 25.648Z" stroke="#1E150F" stroke-width="0.193237" stroke-miterlimit="10"/>
<path d="M20.95 24.9397L20.9278 24.9494L20.0244 25.3339" stroke="#1E150F" stroke-width="0.193237" stroke-miterlimit="10"/>
<path d="M12.4717 22.4199L12.0205 21.0103" stroke="#1E150F" stroke-width="0.193237" stroke-miterlimit="10"/>
<path d="M4.2602 28.1011L4.25344 28.0818C4.15392 27.6876 3.98484 27.2876 3.65634 27.048C3.32784 26.8084 2.80803 26.7997 2.55682 27.1195C2.33363 27.4045 2.39644 27.819 2.52107 28.1601C2.08919 27.7891 1.43219 27.7118 0.925905 27.9707C0.736533 28.0683 0.565518 28.2113 0.45634 28.3939C0.273731 28.7031 0.288223 29.1185 0.492088 29.4132C0.695953 29.7089 1.07856 29.8683 1.43218 29.8064C0.578079 30.2277 0.067934 31.3494 0.52204 32.1862C0.584842 32.3031 0.973247 32.8548 1.59933 32.5388C1.99933 32.3378 2.29692 31.934 2.33363 31.4866C2.40223 32.3813 3.17808 33.1678 4.0718 33.248C4.54136 33.2905 5.11914 33.1678 5.32494 32.7446C5.51817 32.3475 5.3288 31.7214 5.15006 31.533C5.46987 31.8238 6.066 31.6895 6.25924 31.2973C6.4602 30.8905 6.23315 30.3504 5.82252 30.1591L5.78001 30.1147L8.08822 27.9031C7.91624 27.7069 7.73267 27.4055 7.56842 27.0403L4.2602 28.1021V28.1011Z" fill="white"/>
<path d="M7.47365 24.5956L7.56061 24.5763C7.46689 24.5038 7.37993 24.47 7.3065 24.4826L7.27655 24.4893C6.97413 24.5937 7.00988 25.4961 7.35674 26.5057C7.42148 26.6951 7.49394 26.8739 7.56834 27.04L7.99732 26.9028L7.47365 24.5956Z" fill="#6D6E71"/>
<path d="M7.30658 24.4827C7.38001 24.4692 7.46697 24.5039 7.56068 24.5764C7.84861 24.7996 8.2003 25.3909 8.45247 26.1291C8.52107 26.3262 8.57614 26.5194 8.62059 26.7039C8.67083 26.9184 8.70561 27.1194 8.723 27.3001C8.76648 27.7329 8.71334 28.0469 8.56165 28.1329L11.236 26.9426L11.1414 26.7194L10.4129 26.8363L10.2718 25.9059L10.951 25.787L10.8844 25.0595L10.2071 24.9764L10.2409 24.1494L10.1655 23.8257L7.30658 24.4837V24.4827Z" fill="#BCBEC0"/>
<path d="M7.47363 24.5957L7.9973 26.903L8.62049 26.703C8.57605 26.5184 8.52098 26.3252 8.45238 26.1281C8.2002 25.3899 7.84851 24.7996 7.56059 24.5754L7.47363 24.5948V24.5957Z" fill="#6D6E71"/>
<path d="M7.99741 26.9029L7.56842 27.0401C7.73267 27.4053 7.91528 27.7067 8.08823 27.9029L8.71818 27.299H8.72301C8.70562 27.1183 8.67084 26.9174 8.62059 26.7029L7.99741 26.9029Z" fill="white"/>
<path d="M8.71821 27.2991L8.08826 27.9029C8.25541 28.0933 8.41193 28.187 8.5327 28.1454C8.54333 28.1416 8.55202 28.1377 8.56169 28.1319C8.71434 28.0469 8.76652 27.7319 8.72304 27.2991H8.71821Z" fill="#6D6E71"/>
<path d="M10.1655 23.8247L10.2399 24.1484L10.9423 24.131L10.9626 23.6431H10.9558L10.1655 23.8247Z" fill="#BCBEC0"/>
<path d="M11.236 26.9406L11.3857 27.2962L10.8794 27.7425L11.548 28.6527L12.1036 28.3078L12.5258 28.7377L12.1181 29.3358L12.8128 30.0701L13.1944 29.5725L13.6678 29.8788L13.3596 30.5271L14.1818 31.0372L14.6398 30.4401L15.1384 30.672L14.8823 31.2952L15.7818 31.5561L16.0408 30.8314L16.8418 30.8904L16.8843 31.644L17.9905 31.4797L17.9239 30.6759L18.578 30.4826L18.7973 31.1628L20.005 30.7232L19.7133 29.9686L20.3963 29.4739L20.8649 30.1802L21.7007 29.4623L21.1799 28.9561L21.6611 28.4585L22.2099 28.815L22.8698 27.9957L22.2476 27.5367L22.6814 26.8894L23.2794 27.1454L23.7683 25.9474L23.0698 25.6392L23.379 24.8643L23.979 25.0459L24.091 23.9937L23.3645 23.8604L23.4234 23.0575L24.1007 22.9387L23.7509 21.6565L23.0736 21.7754L22.6186 20.8546L23.0118 20.4952L22.3567 19.4846L21.7635 19.8546L20.9548 19.2807L21.236 18.7454L20.2649 18.1329L19.9703 18.6198L19.035 18.1831L19.2157 17.7464L18.291 17.4343L18.0591 17.959L17.1316 17.7986L17.0881 17.271L16.034 17.1841L15.9529 17.785L15.4504 17.9058L15.2804 17.4024L14.2988 17.5928L14.3683 18.0952L13.8128 18.4401L13.4408 18.0846L12.7828 18.5793L13.0292 19.0334L12.4978 19.5039L12.0746 19.1735L11.6166 19.7454L12.064 20.2015L11.6311 20.8488L11.206 20.5937L10.8485 21.3174L11.2968 21.5735L11.1635 22.273L10.5625 22.1667L10.4021 23.1193L10.977 23.2759L10.9625 23.6401L10.9432 24.128L10.2408 24.1454L10.207 24.9725L10.8843 25.0556L10.9509 25.7831L10.2717 25.902L10.4128 26.8324L11.1413 26.7155L11.236 26.9387V26.9406ZM17.1036 29.7396C14.1046 29.7078 11.6997 27.2507 11.7316 24.2517C11.7635 21.2527 14.2205 18.8469 17.2195 18.8797C20.2186 18.9116 22.6244 21.3686 22.5915 24.3677C22.5596 27.3667 20.1026 29.7715 17.1036 29.7396Z" fill="#6D6E71"/>
<path d="M11.7318 24.2517C11.6999 27.2507 14.1047 29.7077 17.1037 29.7396C20.1028 29.7715 22.5598 27.3667 22.5917 24.3676C22.6245 21.3686 20.2187 18.9116 17.2197 18.8797C14.2206 18.8469 11.7636 21.2527 11.7318 24.2517ZM17.154 27.4575C15.3665 27.4391 13.9337 25.9754 13.952 24.187C13.9714 22.4005 15.4361 20.9667 17.2226 20.987C19.01 21.0053 20.4429 22.4691 20.4245 24.2556C20.4052 26.043 18.9405 27.4759 17.154 27.4575Z" fill="#6D6E71"/>
<path d="M13.9519 24.188C13.9335 25.9754 15.3664 27.4402 17.1538 27.4585C18.9403 27.4769 20.4041 26.044 20.4244 24.2566C20.4427 22.4701 19.0099 21.0063 17.2224 20.988C15.436 20.9687 13.9722 22.4025 13.9519 24.188ZM17.1635 26.5551C15.8823 26.5406 14.8553 25.4914 14.8678 24.2092C14.8814 22.9281 15.9306 21.901 17.2137 21.9136C18.4949 21.9271 19.5219 22.9764 19.5094 24.2595C19.4949 25.5406 18.4456 26.5677 17.1635 26.5551Z" fill="#6D6E71"/>
<path d="M14.868 24.2103C14.8545 25.4915 15.8825 26.5417 17.1636 26.5562C18.4448 26.5698 19.495 25.5417 19.5095 24.2606C19.5231 22.9785 18.495 21.9282 17.2139 21.9147C15.9318 21.9012 14.8815 22.9292 14.868 24.2103ZM16.552 24.4036C16.5144 24.0538 16.7675 23.7379 17.1173 23.7002C17.469 23.6625 17.7839 23.9147 17.8226 24.2654C17.8603 24.6152 17.6071 24.9311 17.2574 24.9688C16.9057 25.0065 16.5917 24.7543 16.552 24.4036Z" fill="#BCBEC0"/>
<path d="M17.1173 23.6992C16.7675 23.7369 16.5134 24.0528 16.552 24.4026C16.5917 24.7543 16.9057 25.0065 17.2574 24.9678C17.6071 24.9301 17.8612 24.6142 17.8226 24.2644C17.7849 23.9127 17.469 23.6606 17.1173 23.6992Z" fill="#939598"/>
<path d="M7.30658 24.4829C7.38001 24.4693 7.46697 24.5041 7.56068 24.5766C7.84861 24.7998 8.2003 25.3911 8.45247 26.1292C8.52107 26.3263 8.57614 26.5196 8.62059 26.7041C8.67083 26.9186 8.70561 27.1196 8.723 27.3002C8.76648 27.7331 8.71334 28.0471 8.56165 28.1331" stroke="#231F20" stroke-width="0.193237" stroke-miterlimit="10"/>
<path d="M8.53253 28.1446C8.41175 28.1871 8.25523 28.0934 8.08808 27.9021C7.9161 27.7059 7.73253 27.4045 7.56827 27.0392C7.49291 26.8731 7.42141 26.6943 7.35668 26.505C7.00982 25.4943 6.97407 24.5919 7.27649 24.4885" stroke="#231F20" stroke-width="0.193237" stroke-miterlimit="10"/>
<path d="M7.27667 24.4885L7.30662 24.4827L10.1656 23.8247L10.9559 23.6431" stroke="#231F20" stroke-width="0.193237" stroke-miterlimit="10"/>
<path d="M8.53259 28.1448C8.54322 28.1409 8.55192 28.1371 8.56158 28.1313L11.236 26.9409" stroke="#231F20" stroke-width="0.193237" stroke-miterlimit="10"/>
<path d="M7.67081 26.3407C7.50269 25.93 7.34037 25.2856 7.46984 24.5764" stroke="#231F20" stroke-width="0.193237" stroke-miterlimit="10"/>
<path d="M8.25895 26.6537C7.97779 26.2122 7.76813 25.4141 7.84832 24.9397" stroke="#231F20" stroke-width="0.193237" stroke-miterlimit="10"/>
<path d="M5.14899 31.5321C5.46879 31.8229 6.06493 31.6886 6.25817 31.2964C6.45913 30.8896 6.23208 30.3495 5.82145 30.1582" stroke="#231F20" stroke-width="0.193237" stroke-miterlimit="10"/>
<path d="M4.25338 28.0818C4.15386 27.6876 3.98478 27.2876 3.65628 27.048C3.32778 26.8084 2.80797 26.7997 2.55676 27.1195C2.33357 27.4045 2.39638 27.819 2.52101 28.1601C2.08913 27.7891 1.43212 27.7118 0.925844 27.9707C0.736472 28.0683 0.565457 28.2113 0.456279 28.3939C0.27367 28.7031 0.288162 29.1185 0.492027 29.4132C0.695892 29.7089 1.0785 29.8683 1.43212 29.8064C0.578018 30.2277 0.067873 31.3494 0.521979 32.1862C0.584781 32.3031 0.973186 32.8548 1.59927 32.5388C1.99927 32.3378 2.29686 31.934 2.33357 31.4866C2.40217 32.3813 3.17802 33.1678 4.07174 33.248C4.5413 33.2905 5.11908 33.1678 5.32488 32.7446C5.51811 32.3475 5.32874 31.7214 5.15 31.533C5.13937 31.5233 5.12874 31.5147 5.12005 31.504" stroke="#231F20" stroke-width="0.193237" stroke-miterlimit="10"/>
<path d="M8.71807 27.2991L8.08812 27.902L5.77894 30.1136L5.47266 30.4073" stroke="#231F20" stroke-width="0.193237" stroke-miterlimit="10"/>
<path d="M8.62067 26.7029L7.99748 26.9029L7.56849 27.0391L4.26028 28.1009L3.77429 28.2565" stroke="#231F20" stroke-width="0.193237" stroke-miterlimit="10"/>
<path d="M7.43794 27.6365L3.4447 29.28" stroke="#231F20" stroke-width="0.193237" stroke-miterlimit="10"/>
<path d="M6.56843 28.5225L3.92688 30.7292" stroke="#231F20" stroke-width="0.193237" stroke-miterlimit="10"/>
<path d="M5.15097 29.1021L3.73358 29.7784" stroke="#231F20" stroke-width="0.193237" stroke-miterlimit="10"/>
<path d="M11.2359 26.9406L11.3856 27.2962L10.8794 27.7416L11.547 28.6517L12.1026 28.3078L12.5248 28.7377L12.117 29.3358L12.8117 30.0701L13.1934 29.5735L13.6668 29.8797L13.3586 30.5281L14.1808 31.0382L14.6388 30.4411L15.1373 30.673L14.8803 31.2962L15.7808 31.557L16.0397 30.8314L16.8407 30.8913L16.8832 31.645L17.9895 31.4807L17.9219 30.6768L18.576 30.4836L18.7953 31.1638L20.003 30.7242L19.7112 29.9686L20.3934 29.4739L20.862 30.1812L21.6977 29.4624L21.1769 28.9561L21.6581 28.4585L22.2069 28.815L22.8668 27.9957L22.2446 27.5368L22.6784 26.8894L23.2774 27.1464L23.7663 25.9474L23.0678 25.6401L23.3769 24.8653L23.9769 25.0469L24.089 23.9938L23.3625 23.8614L23.4224 23.0585L24.0997 22.9406L23.7499 21.6575L23.0716 21.7764L22.6166 20.8556L23.0098 20.4962L22.3547 19.4865L21.7615 19.8556L20.9528 19.2826L21.234 18.7464L20.2639 18.1339L19.9692 18.6208L19.034 18.1841L19.2137 17.7474L18.289 17.4353L18.0571 17.9599L17.1306 17.7996L17.0871 17.272L16.033 17.1851L15.9518 17.787L15.4494 17.9078L15.2794 17.4034L14.2977 17.5947L14.3673 18.0971L13.8127 18.4421L13.4407 18.0865L12.7827 18.5812L13.0282 19.0353L12.4968 19.5058L12.0736 19.1754L11.6156 19.7483L12.0629 20.2044L11.6301 20.8517L11.205 20.5967L10.8475 21.3203L11.2958 21.5764L11.1634 22.2759L10.5625 22.1696L10.4021 23.1223L10.9769 23.2788L10.9625 23.643L10.9422 24.131L10.2397 24.1483L10.2059 24.9754L10.8832 25.0585L10.9499 25.786L10.2716 25.9039L10.4127 26.8343L11.1412 26.7174L11.2359 26.9406Z" stroke="#231F20" stroke-width="0.193237" stroke-miterlimit="10"/>
<path d="M11.7318 24.2517C11.6999 27.2507 14.1047 29.7077 17.1037 29.7396C20.1028 29.7715 22.5598 27.3667 22.5917 24.3676C22.6245 21.3686 20.2187 18.9116 17.2197 18.8797C14.2206 18.8469 11.7636 21.2527 11.7318 24.2517Z" stroke="#231F20" stroke-width="0.0966184" stroke-miterlimit="10"/>
<path d="M13.9518 24.188C13.9335 25.9754 15.3663 27.4402 17.1538 27.4585C18.9402 27.4769 20.404 26.044 20.4243 24.2566C20.4427 22.4701 19.0098 21.0063 17.2224 20.988C15.4359 20.9687 13.9721 22.4025 13.9518 24.188Z" stroke="#231F20" stroke-width="0.0966184" stroke-miterlimit="10"/>
<path d="M14.8679 24.2103C14.8544 25.4915 15.8824 26.5417 17.1636 26.5562C18.4447 26.5698 19.495 25.5417 19.5095 24.2606C19.523 22.9785 18.495 21.9282 17.2138 21.9147C15.9317 21.9012 14.8815 22.9292 14.8679 24.2103Z" stroke="#231F20" stroke-width="0.193237" stroke-miterlimit="10"/>
<path d="M16.552 24.4036C16.5916 24.7553 16.9056 25.0074 17.2573 24.9688C17.6071 24.9311 17.8612 24.6152 17.8225 24.2654C17.7848 23.9137 17.4689 23.6616 17.1172 23.7002C16.7674 23.7379 16.5133 24.0538 16.552 24.4036Z" stroke="#231F20" stroke-width="0.193237" stroke-miterlimit="10"/>
</svg>
